<svg xmlns="http://www.w3.org/2000/svg" width="375" viewBox="0 0 375 375" height="375" version="1.0"><g fill="#5D3A30"><g><g><path d="M 4.980469 -30.242188 C 15.757812 10.082031 73.921875 9.847656 81.335938 -27.808594 L 80.410156 -28.039062 C 73.574219 6.488281 23.636719 6.371094 13.207031 -32.441406 C 8.34375 -50.515625 14.367188 -74.386719 34.296875 -79.714844 C 50.980469 -84.117188 65.117188 -71.722656 72.300781 -57.355469 L 73.34375 -57.355469 L 76.007812 -67.550781 C 66.042969 -79.253906 49.9375 -84.929688 34.066406 -80.644531 C 12.050781 -74.734375 -0.925781 -52.253906 4.980469 -30.242188 Z M 4.980469 -30.242188" transform="translate(-.9 201.675)"/></g></g></g><g fill="#5D3A30"><g><g><path d="M 54.226562 -12.398438 C 56.3125 -5.910156 56.425781 -1.042969 55.617188 -1.042969 L 55.617188 0 L 69.171875 0 L 69.171875 -1.042969 C 67.433594 -1.042969 64.539062 -8.109375 61.523438 -16.800781 L 39.394531 -81.335938 L 30.589844 -81.335938 L 32.789062 -74.964844 L 12.164062 -14.597656 C 8.574219 -4.171875 5.214844 -1.042969 3.476562 -1.042969 L 3.476562 0 L 13.324219 0 L 13.324219 -1.042969 C 10.3125 -1.042969 10.082031 -5.445312 13.207031 -14.25 L 18.886719 -31.167969 C 20.507812 -35.6875 26.300781 -36.730469 30.472656 -36.382812 C 41.828125 -35.222656 49.824219 -25.375 53.296875 -15.179688 Z M 33.371094 -73.34375 L 50.402344 -23.753906 C 46 -30.820312 39.164062 -36.496094 30.472656 -37.308594 C 27.113281 -37.65625 22.824219 -37.078125 20.160156 -34.644531 Z M 33.371094 -73.34375" transform="translate(83.912 201.675)"/></g></g></g><g fill="#5D3A30"><g><g><path d="M 33.601562 -54.457031 L 46.113281 -66.96875 C 51.792969 -72.648438 60.945312 -80.296875 67.316406 -80.296875 L 67.316406 -81.335938 L 48.78125 -81.335938 L 48.78125 -80.296875 C 55.847656 -80.296875 53.414062 -75.777344 45.652344 -67.898438 L 14.367188 -36.730469 L 14.367188 -71.375 C 14.367188 -79.019531 16.335938 -80.296875 17.148438 -80.296875 L 17.148438 -81.335938 L 3.476562 -81.335938 L 3.476562 -80.296875 C 4.171875 -80.296875 6.140625 -79.019531 6.140625 -71.375 L 6.140625 -9.964844 C 6.140625 -2.433594 4.171875 -1.042969 3.476562 -1.042969 L 3.476562 0 L 17.148438 0 L 17.148438 -1.042969 C 16.335938 -1.042969 14.367188 -2.433594 14.367188 -9.964844 L 14.367188 -35.339844 L 27.460938 -48.316406 L 48.78125 -10.542969 C 53.296875 -2.664062 52.949219 -1.042969 51.792969 -1.042969 L 51.792969 0 L 66.273438 0 L 66.273438 -1.042969 C 64.886719 -1.042969 61.988281 -4.171875 57.121094 -12.628906 Z M 33.601562 -54.457031" transform="translate(156.558 201.675)"/></g></g></g><g fill="#5D3A30"><g><g><path d="M 4.980469 -30.125 C 15.757812 10.195312 73.921875 9.964844 81.453125 -27.691406 L 80.410156 -27.921875 C 73.574219 6.605469 23.636719 6.488281 13.207031 -32.328125 C 12.050781 -36.496094 11.585938 -40.902344 11.585938 -45.304688 L 14.019531 -45.304688 C 32.558594 -45.304688 52.835938 -40.902344 52.835938 -40.902344 L 53.878906 -40.902344 L 53.878906 -50.75 L 52.835938 -50.75 C 52.835938 -50.75 32.558594 -46.347656 14.019531 -46.347656 L 11.703125 -46.347656 C 12.164062 -60.945312 19.347656 -75.542969 34.296875 -79.601562 C 51.097656 -84.003906 65.117188 -71.605469 72.300781 -57.238281 L 73.34375 -57.238281 L 76.125 -67.433594 C 66.160156 -79.136719 49.9375 -84.8125 34.066406 -80.527344 C 12.164062 -74.617188 -0.925781 -52.140625 4.980469 -30.125 Z M 4.980469 -30.125" transform="translate(227.35 201.675)"/></g></g></g><g fill="#5D3A30"><g><g><path d="M 36.84375 0.925781 C 49.359375 0.925781 60.132812 -7.300781 60.132812 -20.042969 C 60.132812 -33.136719 49.011719 -40.207031 36.960938 -44.492188 C 26.1875 -48.316406 14.367188 -55.5 14.367188 -66.738281 C 14.367188 -77.976562 27.808594 -81.335938 32.90625 -81.335938 C 50.515625 -81.335938 56.195312 -57.121094 56.195312 -57.121094 L 57.238281 -57.121094 L 60.019531 -67.316406 C 55.5 -75.3125 48.664062 -82.378906 32.90625 -82.378906 C 20.277344 -82.378906 9.617188 -74.152344 9.617188 -61.410156 C 9.617188 -48.316406 20.738281 -41.25 32.789062 -36.960938 C 43.449219 -33.136719 55.269531 -25.839844 55.269531 -14.597656 C 55.269531 -3.359375 41.945312 0 36.84375 0 C 19.234375 0 7.183594 -27.808594 7.183594 -27.808594 L 6.257812 -27.808594 L 3.476562 -17.496094 C 7.996094 -9.5 21.085938 0.925781 36.84375 0.925781 Z M 36.84375 0.925781" transform="translate(312.278 201.675)"/></g></g></g></svg>