<svg xmlns="http://www.w3.org/2000/svg" width="375" viewBox="0 0 375 375" height="375" version="1.0"><defs><clipPath id="a"><path d="M 4 7.21875 L 185 7.21875 L 185 234.46875 L 4 234.46875 Z M 4 7.21875"/></clipPath></defs><g clip-path="url(#a)"><path fill="#5D3A30" d="M 94.5 14.742188 C 82.703125 15.125 70.976562 20.25 61.125 30.128906 L 59.34375 31.917969 L 56.710938 32.449219 C 38.488281 36.121094 25.703125 56.1875 27.269531 70.351562 L 27.671875 73.972656 L 24.667969 76.460938 C 19.183594 80.996094 9.621094 99.34375 14.757812 115.34375 C 14.835938 115.59375 15.25 115.550781 15.25 115.292969 C 15.308594 109.921875 17.191406 98.566406 21.523438 94.902344 C 21.695312 94.757812 21.972656 94.871094 21.945312 95.078125 C 20.265625 107.816406 23.941406 120.023438 28.03125 125.851562 C 28.183594 126.074219 28.5625 125.917969 28.488281 125.667969 C 23.804688 110.164062 26.367188 91.953125 28.714844 85.628906 C 28.875 85.292969 29.140625 85.117188 29.511719 85.101562 C 29.882812 85.085938 30.164062 85.234375 30.355469 85.554688 C 32.117188 89.003906 35.839844 90.054688 38.824219 85.910156 C 42.824219 80.363281 48.445312 76.070312 54.1875 72.117188 C 57.578125 69.789062 59.429688 66.117188 59.160156 62.328125 C 58.984375 60.320312 59.164062 58.347656 59.699219 56.410156 C 59.734375 56.320312 59.78125 56.234375 59.839844 56.15625 C 59.894531 56.078125 59.960938 56.011719 60.039062 55.949219 C 60.113281 55.886719 60.195312 55.835938 60.28125 55.796875 C 60.371094 55.757812 60.460938 55.730469 60.558594 55.710938 C 60.652344 55.695312 60.75 55.691406 60.84375 55.699219 C 60.941406 55.707031 61.035156 55.726562 61.125 55.761719 C 61.21875 55.792969 61.304688 55.835938 61.382812 55.890625 C 61.464844 55.945312 61.535156 56.007812 61.601562 56.082031 C 66.589844 62.070312 74.558594 61.328125 85.195312 60.636719 C 88.425781 60.429688 91.472656 60.308594 94.5 60.28125 C 97.527344 60.308594 100.578125 60.429688 103.808594 60.636719 C 114.445312 61.328125 122.414062 62.070312 127.402344 56.082031 C 127.464844 56.007812 127.539062 55.945312 127.617188 55.890625 C 127.699219 55.835938 127.785156 55.792969 127.875 55.761719 C 127.96875 55.726562 128.0625 55.707031 128.15625 55.699219 C 128.253906 55.691406 128.351562 55.695312 128.445312 55.710938 C 128.542969 55.730469 128.632812 55.757812 128.722656 55.796875 C 128.808594 55.835938 128.890625 55.886719 128.96875 55.949219 C 129.042969 56.011719 129.109375 56.078125 129.164062 56.15625 C 129.222656 56.234375 129.269531 56.320312 129.304688 56.410156 C 129.839844 58.351562 130.019531 60.320312 129.84375 62.328125 C 129.570312 66.117188 131.425781 69.789062 134.816406 72.117188 C 140.558594 76.070312 146.179688 80.367188 150.179688 85.910156 C 153.164062 90.054688 156.886719 89.003906 158.652344 85.554688 C 158.839844 85.234375 159.121094 85.085938 159.492188 85.101562 C 159.863281 85.117188 160.128906 85.292969 160.289062 85.628906 C 162.640625 91.953125 165.199219 110.164062 160.515625 125.667969 C 160.441406 125.917969 160.820312 126.070312 160.96875 125.851562 C 165.0625 120.023438 168.734375 107.816406 167.058594 95.078125 C 167.03125 94.871094 167.304688 94.757812 167.476562 94.902344 C 171.8125 98.566406 173.691406 109.921875 173.746094 115.292969 C 173.753906 115.550781 174.167969 115.589844 174.246094 115.34375 C 179.378906 99.34375 169.816406 81 164.335938 76.460938 L 161.332031 73.972656 L 161.730469 70.351562 C 163.296875 56.1875 150.511719 36.121094 132.292969 32.449219 L 129.660156 31.917969 L 127.875 30.128906 C 118.027344 20.25 106.296875 15.125 94.5 14.742188 Z M 94.5 66.296875 C 97.78125 66.347656 101.050781 66.582031 104.304688 67.007812 C 138.960938 71.566406 155.179688 97 156.484375 115.921875 C 156.503906 116.203125 156.046875 116.261719 155.964844 115.992188 C 151.648438 101.625 141.714844 91.3125 134.675781 87.28125 C 134.421875 87.132812 134.140625 87.421875 134.347656 87.625 C 148.292969 101.457031 153.066406 120.527344 152.339844 128.71875 C 152.324219 128.828125 152.269531 128.910156 152.179688 128.972656 C 152.089844 129.035156 151.988281 129.050781 151.882812 129.023438 L 151.480469 128.300781 C 150.273438 122.886719 146.09375 112.222656 134.210938 104.1875 C 124.1875 97.414062 109.417969 93.921875 94.5 93.714844 C 79.582031 93.921875 64.808594 97.414062 54.792969 104.1875 C 42.910156 112.21875 38.730469 122.886719 37.519531 128.300781 L 37.117188 129.023438 C 37.011719 129.050781 36.910156 129.03125 36.820312 128.972656 C 36.730469 128.910156 36.675781 128.828125 36.660156 128.71875 C 35.933594 120.527344 40.703125 101.453125 54.652344 87.621094 C 54.855469 87.421875 54.578125 87.132812 54.324219 87.277344 C 47.285156 91.3125 37.351562 101.625 33.035156 115.992188 C 32.953125 116.261719 32.496094 116.203125 32.515625 115.921875 C 33.820312 97 50.039062 71.566406 84.691406 67.007812 C 87.949219 66.582031 91.21875 66.34375 94.5 66.296875 Z M 94.5 99.054688 C 106.753906 99.253906 118.210938 100.925781 127.4375 109.457031 C 132.601562 114.226562 136.515625 120.488281 138.796875 128.425781 C 144.773438 149.191406 142.726562 178.578125 134.539062 193.835938 C 128.105469 205.824219 117.144531 218.949219 102.402344 226.527344 C 99.828125 227.316406 97.195312 227.710938 94.5 227.710938 C 91.808594 227.710938 89.171875 227.316406 86.597656 226.527344 C 71.855469 218.949219 60.898438 205.824219 54.464844 193.835938 C 46.273438 178.578125 44.226562 149.191406 50.203125 128.425781 C 52.488281 120.488281 56.402344 114.226562 61.5625 109.457031 C 70.789062 100.925781 82.25 99.253906 94.5 99.054688 Z M 94.5 233.898438 C 90.335938 233.898438 86.171875 233.113281 82.867188 231.546875 C 70.046875 225.484375 56.757812 212.160156 49.636719 200.441406 C 50.058594 206.808594 51.585938 211.910156 53.519531 218.164062 C 53.574219 218.335938 53.527344 218.476562 53.382812 218.582031 C 53.234375 218.691406 53.089844 218.691406 52.941406 218.585938 C 49.035156 215.714844 43.085938 203.203125 40.019531 185.589844 C 40.003906 185.496094 39.957031 185.417969 39.882812 185.359375 C 39.808594 185.300781 39.726562 185.273438 39.632812 185.277344 C 39.535156 185.28125 39.453125 185.316406 39.386719 185.382812 C 39.320312 185.449219 39.28125 185.53125 39.273438 185.625 C 37.703125 208.675781 48.691406 226.648438 58.523438 233.578125 C 58.683594 233.691406 58.726562 233.839844 58.652344 234.019531 C 58.578125 234.203125 58.445312 234.277344 58.25 234.25 C 42.046875 231.851562 23.355469 206.382812 21.597656 156.734375 C 9.828125 147.125 5.21875 125.992188 7.386719 119.285156 C 0.0117188 100.171875 11.074219 77.585938 18.945312 71.070312 C 16.976562 53.261719 32.222656 29.804688 54.851562 25.242188 C 66.316406 13.738281 80.367188 7.804688 94.5 7.433594 C 108.632812 7.804688 122.683594 13.738281 134.152344 25.242188 C 156.78125 29.808594 172.027344 53.261719 170.054688 71.070312 C 177.929688 77.585938 188.996094 100.171875 181.617188 119.285156 C 183.785156 125.988281 179.175781 147.125 167.402344 156.734375 C 165.652344 206.382812 146.957031 231.851562 130.753906 234.25 C 130.558594 234.28125 130.425781 234.203125 130.351562 234.019531 C 130.277344 233.839844 130.320312 233.691406 130.480469 233.578125 C 140.3125 226.648438 151.300781 208.675781 149.730469 185.625 C 149.722656 185.53125 149.683594 185.449219 149.617188 185.382812 C 149.546875 185.316406 149.46875 185.28125 149.371094 185.277344 C 149.277344 185.273438 149.191406 185.300781 149.117188 185.359375 C 149.042969 185.421875 149 185.496094 148.984375 185.589844 C 145.914062 203.203125 139.96875 215.714844 136.0625 218.585938 C 135.914062 218.691406 135.765625 218.691406 135.621094 218.582031 C 135.476562 218.476562 135.429688 218.335938 135.484375 218.164062 C 137.417969 211.910156 138.945312 206.8125 139.367188 200.441406 C 132.246094 212.160156 118.953125 225.484375 106.132812 231.546875 C 102.832031 233.113281 98.664062 233.898438 94.5 233.898438 Z M 94.5 201.160156 C 96.804688 200.980469 99.019531 200.429688 101.140625 199.503906 C 101.980469 199.636719 102.945312 199.84375 103.746094 199.972656 C 102.1875 200.914062 100.558594 201.699219 98.855469 202.335938 C 98.78125 202.367188 98.753906 202.417969 98.773438 202.496094 C 98.792969 202.574219 98.84375 202.605469 98.921875 202.59375 C 105.757812 201.714844 111.660156 196.785156 111.601562 194.632812 C 111.230469 194.132812 110.238281 195.085938 108.464844 196.558594 C 106.570312 196.171875 99.816406 194.828125 97.988281 195.164062 L 94.804688 196.746094 C 94.601562 196.847656 94.394531 196.847656 94.1875 196.746094 L 91.011719 195.164062 C 89.179688 194.828125 82.425781 196.171875 80.53125 196.558594 C 78.757812 195.085938 77.765625 194.132812 77.394531 194.632812 C 77.335938 196.785156 83.238281 201.714844 90.078125 202.59375 C 90.15625 202.605469 90.203125 202.570312 90.222656 202.496094 C 90.242188 202.417969 90.214844 202.367188 90.144531 202.335938 C 88.441406 201.703125 86.808594 200.914062 85.253906 199.972656 C 86.050781 199.84375 87.019531 199.636719 87.859375 199.503906 C 89.980469 200.429688 92.191406 200.980469 94.5 201.160156 Z M 94.5 187.246094 C 92.339844 187.246094 90.320312 184.507812 89.019531 184.289062 C 88.800781 184.261719 88.585938 184.277344 88.375 184.339844 C 88.160156 184.398438 87.96875 184.5 87.800781 184.640625 C 87.628906 184.78125 87.492188 184.949219 87.390625 185.144531 C 87.289062 185.339844 87.230469 185.546875 87.214844 185.765625 C 87.214844 187.539062 89.308594 189.132812 91.25 190.226562 C 91.746094 190.507812 92.269531 190.722656 92.820312 190.867188 C 93.371094 191.015625 93.929688 191.085938 94.5 191.085938 C 95.070312 191.085938 95.628906 191.015625 96.179688 190.867188 C 96.730469 190.722656 97.253906 190.507812 97.75 190.226562 C 99.695312 189.132812 101.785156 187.539062 101.785156 185.765625 C 101.769531 185.546875 101.710938 185.339844 101.609375 185.144531 C 101.507812 184.949219 101.371094 184.78125 101.199219 184.640625 C 101.03125 184.5 100.839844 184.398438 100.625 184.339844 C 100.414062 184.277344 100.199219 184.261719 99.980469 184.289062 C 98.683594 184.507812 96.660156 187.246094 94.5 187.246094 Z M 94.5 209.597656 C 91.738281 209.542969 89.027344 209.136719 86.367188 208.378906 C 86.257812 208.347656 86.164062 208.371094 86.082031 208.457031 C 86.003906 208.542969 85.988281 208.636719 86.027344 208.746094 C 86.375 209.582031 86.835938 210.351562 87.410156 211.054688 C 87.984375 211.753906 88.648438 212.359375 89.402344 212.863281 C 90.15625 213.367188 90.96875 213.75 91.835938 214.015625 C 92.703125 214.277344 93.59375 214.410156 94.5 214.410156 C 95.410156 214.410156 96.296875 214.277344 97.164062 214.015625 C 98.035156 213.75 98.84375 213.367188 99.597656 212.863281 C 100.351562 212.359375 101.015625 211.753906 101.59375 211.054688 C 102.167969 210.351562 102.625 209.582031 102.972656 208.746094 C 103.015625 208.636719 102.996094 208.539062 102.917969 208.457031 C 102.839844 208.371094 102.742188 208.34375 102.632812 208.378906 C 99.972656 209.136719 97.265625 209.542969 94.5 209.597656 Z M 130.738281 139.449219 C 122.890625 137.902344 111.953125 142.691406 109.027344 141.261719 C 106.804688 143.621094 106.636719 146.980469 106.628906 147.640625 C 106.625 147.722656 106.667969 147.765625 106.75 147.769531 C 109.28125 147.859375 111.695312 147.363281 113.988281 146.289062 C 123.339844 141.867188 128.726562 141.105469 132.328125 141.746094 C 133.429688 141.941406 134.476562 142.292969 135.472656 142.800781 C 136.261719 143.199219 136.234375 142.585938 135.867188 142.132812 C 134.617188 140.589844 132.664062 139.824219 130.738281 139.445312 Z M 115.296875 164.324219 C 117.78125 164.734375 120.265625 164.734375 122.746094 164.324219 C 122.988281 164.097656 123.207031 163.851562 123.40625 163.582031 C 123.601562 163.316406 123.769531 163.03125 123.914062 162.734375 C 124.058594 162.433594 124.171875 162.125 124.261719 161.804688 C 124.347656 161.484375 124.402344 161.160156 124.429688 160.828125 C 124.457031 160.5 124.453125 160.167969 124.417969 159.839844 C 124.382812 159.507812 124.320312 159.1875 124.226562 158.867188 C 124.128906 158.550781 124.007812 158.242188 123.855469 157.949219 C 123.707031 157.652344 123.53125 157.375 123.328125 157.109375 C 125.347656 157.632812 127.167969 158.550781 128.785156 159.863281 C 128.707031 160.636719 127.546875 162.570312 127.546875 162.570312 C 128.140625 162.355469 128.699219 162.066406 129.222656 161.710938 C 129.742188 161.355469 130.214844 160.941406 130.632812 160.46875 C 131.050781 160 131.40625 159.480469 131.699219 158.921875 C 131.988281 158.359375 132.207031 157.773438 132.347656 157.160156 C 132.347656 157.160156 129.527344 150.4375 122.480469 149.851562 C 122.40625 149.84375 122.359375 149.878906 122.34375 149.953125 C 122.328125 150.027344 122.355469 150.078125 122.425781 150.101562 C 125.691406 151.523438 127.539062 153.15625 128.675781 154.738281 C 116.574219 148.480469 105.699219 159.015625 105.699219 159.015625 C 106.808594 160.398438 108.199219 161.382812 109.875 161.972656 C 109.929688 161.992188 109.976562 161.980469 110.015625 161.9375 C 110.054688 161.894531 110.0625 161.84375 110.039062 161.792969 C 109.785156 161.171875 109.601562 160.527344 109.492188 159.863281 C 111.046875 158.859375 112.707031 158.0625 114.460938 157.472656 C 114.121094 158.003906 113.878906 158.578125 113.738281 159.191406 C 113.597656 159.804688 113.5625 160.425781 113.640625 161.050781 C 113.714844 161.675781 113.898438 162.269531 114.183594 162.832031 C 114.46875 163.394531 114.839844 163.894531 115.296875 164.324219 Z M 58.261719 139.445312 C 56.335938 139.824219 54.386719 140.589844 53.132812 142.132812 C 52.765625 142.585938 52.738281 143.195312 53.527344 142.796875 C 54.523438 142.289062 55.574219 141.941406 56.675781 141.746094 C 60.273438 141.105469 65.660156 141.867188 75.011719 146.285156 C 77.304688 147.363281 79.71875 147.855469 82.253906 147.769531 C 82.332031 147.765625 82.375 147.722656 82.371094 147.640625 C 82.363281 146.980469 82.195312 143.621094 79.972656 141.261719 C 77.046875 142.691406 66.109375 137.902344 58.261719 139.445312 Z M 73.703125 164.324219 C 74.160156 163.890625 74.535156 163.394531 74.816406 162.832031 C 75.101562 162.269531 75.285156 161.675781 75.359375 161.046875 C 75.4375 160.421875 75.402344 159.804688 75.261719 159.1875 C 75.121094 158.574219 74.878906 158 74.539062 157.472656 C 76.292969 158.0625 77.949219 158.855469 79.507812 159.863281 C 79.398438 160.527344 79.21875 161.167969 78.960938 161.789062 C 78.9375 161.84375 78.945312 161.890625 78.984375 161.933594 C 79.027344 161.976562 79.074219 161.988281 79.128906 161.96875 C 80.800781 161.378906 82.191406 160.394531 83.304688 159.011719 C 83.304688 159.011719 72.429688 148.480469 60.324219 154.738281 C 61.457031 153.15625 63.308594 151.523438 66.570312 150.101562 C 66.640625 150.074219 66.667969 150.023438 66.652344 149.949219 C 66.636719 149.875 66.589844 149.84375 66.515625 149.847656 C 59.472656 150.433594 56.648438 157.15625 56.648438 157.15625 C 56.792969 157.769531 57.011719 158.359375 57.300781 158.917969 C 57.589844 159.480469 57.945312 159.996094 58.363281 160.46875 C 58.785156 160.941406 59.253906 161.355469 59.777344 161.710938 C 60.300781 162.066406 60.859375 162.351562 61.453125 162.566406 C 61.453125 162.566406 60.289062 160.632812 60.214844 159.859375 C 61.832031 158.546875 63.652344 157.628906 65.671875 157.109375 C 65.46875 157.371094 65.292969 157.648438 65.140625 157.945312 C 64.992188 158.242188 64.867188 158.546875 64.773438 158.863281 C 64.679688 159.183594 64.617188 159.507812 64.582031 159.835938 C 64.546875 160.164062 64.542969 160.496094 64.570312 160.824219 C 64.59375 161.15625 64.652344 161.480469 64.738281 161.800781 C 64.824219 162.121094 64.941406 162.429688 65.082031 162.730469 C 65.226562 163.027344 65.398438 163.3125 65.59375 163.578125 C 65.789062 163.847656 66.007812 164.09375 66.25 164.320312 C 68.734375 164.730469 71.214844 164.730469 73.699219 164.320312 Z M 73.703125 164.324219" fill-rule="evenodd"/></g><g fill="#5D3A30"><g><g><path d="M 8.003906 -0.488281 C 7.625 -0.488281 6.707031 -1.136719 6.707031 -4.652344 L 6.707031 -20.660156 L 12.167969 -20.660156 C 23.09375 -20.660156 26.882812 -24.394531 26.882812 -29.585938 C 26.882812 -34.832031 23.09375 -38.566406 12.167969 -38.566406 C 9.03125 -38.566406 5.300781 -38.023438 2.109375 -37.96875 L 1.621094 -37.96875 L 1.621094 -37.484375 C 1.945312 -37.484375 2.867188 -36.886719 2.867188 -33.316406 L 2.867188 -4.652344 C 2.867188 -1.136719 1.945312 -0.488281 1.621094 -0.488281 L 1.621094 0 L 8.003906 0 Z M 6.707031 -21.148438 L 6.707031 -37.808594 C 8.601562 -37.96875 10.4375 -38.132812 12.167969 -38.132812 C 16.820312 -38.132812 23.09375 -36.292969 23.09375 -29.585938 C 23.09375 -22.933594 16.820312 -21.09375 12.167969 -21.09375 L 12.167969 -21.148438 Z M 6.707031 -21.148438" transform="translate(211.223 142.912)"/></g></g></g><g fill="#5D3A30"><g><g><path d="M 25.3125 -5.789062 C 26.285156 -2.757812 26.339844 -0.488281 25.960938 -0.488281 L 25.960938 0 L 32.289062 0 L 32.289062 -0.488281 C 31.480469 -0.488281 30.125 -3.785156 28.71875 -7.84375 L 18.390625 -37.96875 L 14.277344 -37.96875 L 15.308594 -34.996094 L 5.679688 -6.816406 C 4.003906 -1.945312 2.433594 -0.488281 1.621094 -0.488281 L 1.621094 0 L 6.21875 0 L 6.21875 -0.488281 C 4.8125 -0.488281 4.707031 -2.542969 6.164062 -6.652344 L 8.816406 -14.550781 C 9.574219 -16.660156 12.277344 -17.144531 14.226562 -16.984375 C 19.527344 -16.441406 23.257812 -11.84375 24.878906 -7.085938 Z M 15.578125 -34.238281 L 23.527344 -11.089844 C 21.472656 -14.386719 18.28125 -17.039062 14.226562 -17.417969 C 12.65625 -17.578125 10.65625 -17.308594 9.410156 -16.171875 Z M 15.578125 -34.238281" transform="translate(239.726 142.912)"/></g></g></g><g fill="#5D3A30"><g><g><path d="M 17.089844 -20.933594 C 24.230469 -21.960938 26.828125 -25.257812 26.828125 -29.585938 C 26.828125 -34.832031 23.09375 -38.566406 12.117188 -38.566406 C 8.980469 -38.566406 5.300781 -38.023438 2.109375 -37.96875 L 1.621094 -37.96875 L 1.621094 -37.484375 C 1.945312 -37.484375 2.867188 -36.886719 2.867188 -33.316406 L 2.867188 -4.652344 C 2.867188 -1.136719 1.945312 -0.488281 1.621094 -0.488281 L 1.621094 0 L 7.949219 0 L 7.949219 -0.488281 C 7.625 -0.488281 6.707031 -1.136719 6.707031 -4.652344 L 6.707031 -20.660156 L 12.820312 -20.660156 L 21.039062 -6.4375 C 23.042969 -2.976562 23.851562 -0.488281 23.421875 -0.488281 L 23.421875 0 L 29.75 0 L 29.75 -0.488281 C 28.9375 -0.488281 27.152344 -3.570312 24.773438 -7.625 Z M 6.707031 -37.808594 C 8.601562 -37.96875 10.4375 -38.132812 12.117188 -38.132812 C 16.820312 -38.132812 23.042969 -36.292969 23.042969 -29.585938 C 23.042969 -22.933594 16.820312 -21.09375 12.117188 -21.09375 L 6.707031 -21.09375 Z M 6.707031 -37.808594" transform="translate(273.639 142.912)"/></g></g></g><g fill="#5D3A30"><g><g><path d="M 8.003906 -37.96875 L 1.621094 -37.96875 L 1.621094 -37.484375 C 1.945312 -37.484375 2.867188 -36.886719 2.867188 -33.316406 L 2.867188 -4.652344 C 2.867188 -1.136719 1.945312 -0.488281 1.621094 -0.488281 L 1.621094 0 L 8.003906 0 L 8.003906 -0.488281 C 7.625 -0.488281 6.707031 -1.136719 6.707031 -4.652344 L 6.707031 -33.316406 C 6.707031 -36.886719 7.625 -37.484375 8.003906 -37.484375 Z M 8.003906 -37.96875" transform="translate(305.009 142.912)"/></g></g></g><g fill="#5D3A30"><g><g><path d="M 17.199219 0.433594 C 23.042969 0.433594 28.070312 -3.40625 28.070312 -9.355469 C 28.070312 -15.46875 22.878906 -18.769531 17.253906 -20.769531 C 12.222656 -22.554688 6.707031 -25.90625 6.707031 -31.15625 C 6.707031 -36.402344 12.980469 -37.96875 15.359375 -37.96875 C 23.582031 -37.96875 26.234375 -26.664062 26.234375 -26.664062 L 26.71875 -26.664062 L 28.015625 -31.425781 C 25.90625 -35.15625 22.71875 -38.457031 15.359375 -38.457031 C 9.464844 -38.457031 4.488281 -34.617188 4.488281 -28.667969 C 4.488281 -22.554688 9.683594 -19.253906 15.308594 -17.253906 C 20.28125 -15.46875 25.800781 -12.0625 25.800781 -6.816406 C 25.800781 -1.570312 19.578125 0 17.199219 0 C 8.980469 0 3.351562 -12.980469 3.351562 -12.980469 L 2.921875 -12.980469 L 1.621094 -8.167969 C 3.730469 -4.433594 9.84375 0.433594 17.199219 0.433594 Z M 17.199219 0.433594" transform="translate(314.636 142.912)"/></g></g></g><g fill="#5D3A30"><g><g><path d="M 2.324219 -14.117188 C 7.355469 4.707031 34.507812 4.597656 37.96875 -12.980469 L 37.535156 -13.089844 C 34.347656 3.027344 11.035156 2.976562 6.164062 -15.144531 C 3.894531 -23.582031 6.707031 -34.722656 16.011719 -37.210938 C 23.796875 -39.269531 30.398438 -33.480469 33.75 -26.773438 L 34.238281 -26.773438 L 35.480469 -31.53125 C 30.828125 -36.996094 23.3125 -39.644531 15.902344 -37.644531 C 5.625 -34.886719 -0.433594 -24.394531 2.324219 -14.117188 Z M 2.324219 -14.117188" transform="translate(195.857 191.174)"/></g></g></g><g fill="#5D3A30"><g><g><path d="M 25.3125 -5.789062 C 26.285156 -2.757812 26.339844 -0.488281 25.960938 -0.488281 L 25.960938 0 L 32.289062 0 L 32.289062 -0.488281 C 31.480469 -0.488281 30.125 -3.785156 28.71875 -7.84375 L 18.390625 -37.96875 L 14.277344 -37.96875 L 15.308594 -34.996094 L 5.679688 -6.816406 C 4.003906 -1.945312 2.433594 -0.488281 1.621094 -0.488281 L 1.621094 0 L 6.21875 0 L 6.21875 -0.488281 C 4.8125 -0.488281 4.707031 -2.542969 6.164062 -6.652344 L 8.816406 -14.550781 C 9.574219 -16.660156 12.277344 -17.144531 14.226562 -16.984375 C 19.527344 -16.441406 23.257812 -11.84375 24.878906 -7.085938 Z M 15.578125 -34.238281 L 23.527344 -11.089844 C 21.472656 -14.386719 18.28125 -17.039062 14.226562 -17.417969 C 12.65625 -17.578125 10.65625 -17.308594 9.410156 -16.171875 Z M 15.578125 -34.238281" transform="translate(235.448 191.174)"/></g></g></g><g fill="#5D3A30"><g><g><path d="M 15.683594 -25.421875 L 21.527344 -31.261719 C 24.175781 -33.914062 28.449219 -37.484375 31.425781 -37.484375 L 31.425781 -37.96875 L 22.769531 -37.96875 L 22.769531 -37.484375 C 26.070312 -37.484375 24.933594 -35.375 21.3125 -31.695312 L 6.707031 -17.144531 L 6.707031 -33.316406 C 6.707031 -36.886719 7.625 -37.484375 8.003906 -37.484375 L 8.003906 -37.96875 L 1.621094 -37.96875 L 1.621094 -37.484375 C 1.945312 -37.484375 2.867188 -36.886719 2.867188 -33.316406 L 2.867188 -4.652344 C 2.867188 -1.136719 1.945312 -0.488281 1.621094 -0.488281 L 1.621094 0 L 8.003906 0 L 8.003906 -0.488281 C 7.625 -0.488281 6.707031 -1.136719 6.707031 -4.652344 L 6.707031 -16.496094 L 12.820312 -22.554688 L 22.769531 -4.921875 C 24.878906 -1.242188 24.71875 -0.488281 24.175781 -0.488281 L 24.175781 0 L 30.9375 0 L 30.9375 -0.488281 C 30.289062 -0.488281 28.9375 -1.945312 26.664062 -5.894531 Z M 15.683594 -25.421875" transform="translate(269.36 191.174)"/></g></g></g><g fill="#5D3A30"><g><g><path d="M 2.324219 -14.0625 C 7.355469 4.757812 34.507812 4.652344 38.023438 -12.925781 L 37.535156 -13.035156 C 34.347656 3.082031 11.035156 3.027344 6.164062 -15.089844 C 5.625 -17.039062 5.410156 -19.09375 5.410156 -21.148438 L 6.542969 -21.148438 C 15.199219 -21.148438 24.664062 -19.09375 24.664062 -19.09375 L 25.152344 -19.09375 L 25.152344 -23.691406 L 24.664062 -23.691406 C 24.664062 -23.691406 15.199219 -21.636719 6.542969 -21.636719 L 5.460938 -21.636719 C 5.679688 -28.449219 9.03125 -35.265625 16.011719 -37.160156 C 23.851562 -39.214844 30.398438 -33.425781 33.75 -26.71875 L 34.238281 -26.71875 L 35.535156 -31.480469 C 30.882812 -36.941406 23.3125 -39.59375 15.902344 -37.589844 C 5.679688 -34.832031 -0.433594 -24.339844 2.324219 -14.0625 Z M 2.324219 -14.0625" transform="translate(302.407 191.174)"/></g></g></g><g fill="#5D3A30"><g><g><path d="M 17.199219 0.433594 C 23.042969 0.433594 28.070312 -3.40625 28.070312 -9.355469 C 28.070312 -15.46875 22.878906 -18.769531 17.253906 -20.769531 C 12.222656 -22.554688 6.707031 -25.90625 6.707031 -31.15625 C 6.707031 -36.402344 12.980469 -37.96875 15.359375 -37.96875 C 23.582031 -37.96875 26.234375 -26.664062 26.234375 -26.664062 L 26.71875 -26.664062 L 28.015625 -31.425781 C 25.90625 -35.15625 22.71875 -38.457031 15.359375 -38.457031 C 9.464844 -38.457031 4.488281 -34.617188 4.488281 -28.667969 C 4.488281 -22.554688 9.683594 -19.253906 15.308594 -17.253906 C 20.28125 -15.46875 25.800781 -12.0625 25.800781 -6.816406 C 25.800781 -1.570312 19.578125 0 17.199219 0 C 8.980469 0 3.351562 -12.980469 3.351562 -12.980469 L 2.921875 -12.980469 L 1.621094 -8.167969 C 3.730469 -4.433594 9.84375 0.433594 17.199219 0.433594 Z M 17.199219 0.433594" transform="translate(342.053 191.174)"/></g></g></g><g fill="#FFF"><g><g><path d="M 12.292969 3.199219 C 17.570312 9.09375 24.136719 12.347656 32.050781 12.574219 C 40.976562 12.742188 48.386719 9.207031 54.335938 2.527344 C 59.5 -3.367188 63.09375 -10.214844 66.179688 -17.34375 C 68.707031 -23.183594 70.558594 -29.300781 72.75 -35.308594 C 75.386719 -42.660156 78.304688 -49.847656 82.347656 -56.46875 C 82.796875 -57.199219 83.300781 -57.59375 84.144531 -57.761719 C 87.566406 -58.492188 90.9375 -59.558594 93.855469 -61.632812 C 94.527344 -62.082031 95.035156 -62.195312 95.820312 -61.972656 C 105.753906 -59.164062 115.914062 -57.535156 126.300781 -57.480469 C 131.296875 -57.425781 136.234375 -57.59375 141.117188 -58.828125 C 143.8125 -59.5 146.453125 -60.457031 148.472656 -62.53125 C 148.695312 -62.699219 149.144531 -62.8125 148.921875 -63.207031 C 148.753906 -63.597656 148.304688 -63.65625 147.910156 -63.488281 C 147.125 -63.261719 146.226562 -63.09375 145.441406 -62.644531 C 143.253906 -61.296875 140.949219 -60.230469 138.367188 -59.726562 C 134.71875 -58.941406 131.015625 -58.714844 127.253906 -58.714844 C 118.664062 -58.601562 110.132812 -59.667969 101.769531 -61.578125 C 99.691406 -62.027344 97.671875 -62.589844 95.59375 -63.148438 C 95.761719 -63.375 95.820312 -63.488281 95.933594 -63.65625 C 97.671875 -66.070312 96.660156 -68.257812 93.6875 -68.652344 C 91.214844 -68.988281 89.082031 -68.035156 87.230469 -66.574219 C 86.390625 -65.902344 85.714844 -65.789062 84.816406 -66.179688 C 84.648438 -66.238281 84.480469 -66.238281 84.367188 -66.292969 C 78.195312 -68.089844 72.019531 -69.492188 65.621094 -69.773438 C 57.703125 -70.109375 50.015625 -68.875 42.492188 -66.574219 C 25.539062 -61.355469 13.136719 -50.800781 5.21875 -35.027344 C 2.078125 -28.738281 1.066406 -22.117188 2.636719 -15.210938 C 4.152344 -8.195312 7.578125 -2.132812 12.292969 3.199219 Z M 92.730469 -67.304688 C 93.519531 -67.585938 93.96875 -67.191406 94.136719 -66.519531 C 94.359375 -65.5625 93.96875 -64.777344 93.40625 -64.046875 C 93.238281 -63.878906 93.070312 -63.824219 92.84375 -63.9375 C 91.609375 -64.273438 90.375 -64.664062 89.027344 -65.058594 C 90.207031 -66.125 91.386719 -66.855469 92.730469 -67.304688 Z M 87.679688 -63.765625 C 87.847656 -63.9375 88.015625 -64.160156 88.410156 -64.046875 C 89.644531 -63.710938 90.9375 -63.316406 92.394531 -62.925781 C 89.925781 -60.90625 87.175781 -60.117188 84.3125 -59.332031 C 85.324219 -60.90625 86.445312 -62.363281 87.679688 -63.765625 Z M 7.914062 -35.53125 C 16.671875 -52.148438 30.199219 -62.476562 48.5 -66.6875 C 53.4375 -67.808594 58.492188 -68.539062 63.542969 -68.59375 C 68.59375 -68.652344 73.535156 -67.695312 78.417969 -66.628906 C 80.664062 -66.125 82.851562 -65.5625 85.152344 -64.890625 C 84.199219 -63.765625 83.300781 -62.757812 82.460938 -61.746094 C 82.121094 -61.355469 81.675781 -60.90625 81.449219 -60.398438 C 80.550781 -58.601562 79.035156 -58.097656 77.128906 -57.929688 C 72.300781 -57.480469 67.472656 -56.976562 62.644531 -56.414062 C 55.179688 -55.515625 48.050781 -53.605469 41.761719 -49.285156 C 34.691406 -44.457031 29.863281 -38.003906 27.785156 -29.636719 C 27 -26.550781 27.394531 -23.464844 28.234375 -20.433594 C 28.402344 -19.984375 28.628906 -19.589844 28.796875 -19.140625 C 28.964844 -18.75 29.359375 -18.523438 29.75 -18.75 C 30.085938 -18.917969 29.75 -19.199219 29.695312 -19.476562 C 28.851562 -23.914062 29.078125 -28.292969 30.761719 -32.5 C 35.195312 -43.445312 43.335938 -50.296875 54.617188 -53.550781 C 59.726562 -55.011719 64.945312 -55.515625 70.222656 -55.964844 C 72.804688 -56.1875 75.386719 -56.46875 77.96875 -56.75 C 78.25 -56.75 78.53125 -56.75 78.921875 -56.808594 C 78.363281 -55.796875 77.855469 -54.898438 77.351562 -54 C 74.265625 -48.78125 72.242188 -43.054688 70.109375 -37.382812 C 67.753906 -31.097656 65.957031 -24.53125 63.375 -18.300781 C 60.457031 -11.28125 57.085938 -4.546875 52.261719 1.347656 C 47.375 7.464844 41.035156 11.003906 33.230469 11.507812 C 27.617188 11.84375 22.507812 10.160156 18.1875 6.566406 C 9.9375 -0.335938 4.996094 -9.09375 4.265625 -19.984375 C 3.929688 -25.539062 5.332031 -30.703125 7.914062 -35.53125 Z M 7.914062 -35.53125" transform="translate(201.813 77.082)"/></g></g></g><g fill="#FFF"><g><g><path d="M 34.183594 -8.757812 C 31.042969 -7.128906 28.121094 -5.21875 25.484375 -2.863281 C 22.003906 0.222656 18.972656 3.761719 15.828125 7.183594 C 14.203125 8.980469 12.460938 10.722656 10.328125 11.898438 C 9.148438 12.628906 8.53125 12.292969 8.363281 11.003906 C 8.308594 10.609375 8.308594 10.214844 8.363281 9.824219 C 8.476562 9.039062 8.644531 8.25 8.867188 7.523438 C 9.878906 4.210938 11.339844 1.066406 12.964844 -2.019531 C 14.480469 -4.996094 16.054688 -7.972656 17.570312 -10.945312 C 18.242188 -12.238281 18.75 -13.695312 19.027344 -15.101562 C 19.421875 -16.839844 18.636719 -17.738281 16.839844 -17.738281 C 15.828125 -17.683594 14.988281 -17.234375 14.144531 -16.726562 C 11.507812 -14.988281 9.207031 -12.742188 6.90625 -10.609375 C 5.164062 -8.980469 3.480469 -7.242188 1.460938 -5.835938 C 1.515625 -7.523438 1.910156 -9.148438 2.46875 -10.664062 C 4.546875 -16.390625 6.90625 -22.003906 9.597656 -27.449219 C 11.226562 -30.984375 13.078125 -34.355469 14.929688 -37.722656 C 18.582031 -44.34375 22.507812 -50.855469 26.664062 -57.144531 C 27.671875 -58.660156 28.570312 -60.289062 29.414062 -61.914062 C 29.808594 -62.699219 29.636719 -62.980469 28.796875 -63.261719 C 27.785156 -63.597656 27.054688 -63.375 26.382812 -62.421875 C 25.035156 -60.457031 23.6875 -58.546875 22.398438 -56.636719 C 17.738281 -49.566406 13.414062 -42.324219 9.542969 -34.859375 C 6.285156 -28.460938 3.199219 -22.003906 0.5625 -15.324219 C -0.617188 -12.40625 -1.570312 -9.429688 -1.683594 -6.285156 C -1.796875 -4.433594 -0.84375 -3.59375 0.953125 -3.761719 C 1.628906 -3.816406 2.1875 -4.097656 2.75 -4.492188 C 3.3125 -4.996094 3.875 -5.445312 4.378906 -5.949219 C 7.015625 -8.421875 9.542969 -11.003906 12.292969 -13.304688 C 13.472656 -14.257812 14.652344 -15.269531 16.054688 -15.828125 C 16.335938 -15.4375 16.167969 -15.101562 15.996094 -14.761719 C 15.71875 -14.035156 15.378906 -13.246094 15.042969 -12.519531 C 13.808594 -9.710938 12.125 -7.183594 10.777344 -4.492188 C 9.09375 -1.292969 7.464844 1.851562 6.566406 5.332031 C 6.117188 7.183594 5.667969 9.039062 6.175781 11.003906 C 6.566406 12.574219 7.410156 13.246094 9.039062 13.246094 C 10.328125 13.304688 11.453125 12.796875 12.40625 12.011719 C 13.585938 11.171875 14.652344 10.214844 15.660156 9.207031 C 18.242188 6.566406 20.824219 3.984375 23.40625 1.292969 C 27.054688 -2.414062 30.929688 -5.78125 35.476562 -8.308594 C 35.757812 -8.476562 36.148438 -8.589844 36.039062 -9.039062 C 35.140625 -9.207031 35.140625 -9.207031 34.183594 -8.757812 Z M 34.183594 -8.757812" transform="translate(277.97 77.082)"/></g></g></g><g fill="#FFF"><g><g><path d="M 10.777344 2.300781 C 16.054688 0.335938 26.945312 -7.972656 37.441406 -9.375 C 37.105469 -10.105469 36.597656 -10.105469 36.148438 -10.105469 C 27 -9.09375 14.988281 -1.179688 11.453125 0.503906 C 9.878906 1.234375 8.25 1.738281 6.457031 1.910156 C 5.164062 2.019531 3.984375 1.738281 3.085938 0.671875 C 0.953125 -2.078125 0.785156 -4.941406 2.1875 -8.027344 C 2.46875 -8.644531 2.808594 -8.980469 3.59375 -8.757812 C 4.660156 -8.476562 5.726562 -8.53125 6.792969 -8.867188 C 8.980469 -9.597656 10.777344 -10.945312 12.40625 -12.519531 C 12.6875 -12.796875 12.855469 -13.078125 13.023438 -13.414062 C 13.472656 -14.3125 13.304688 -15.210938 12.460938 -15.828125 C 11.113281 -16.785156 9.65625 -17.34375 8.027344 -16.839844 C 3.816406 -15.605469 0.617188 -13.136719 -0.953125 -8.925781 C -1.910156 -6.34375 -1.628906 -3.875 -0.28125 -1.628906 C 2.46875 2.863281 5.726562 4.210938 10.777344 2.300781 Z M 10.664062 -14.707031 C 9.992188 -12.628906 6.34375 -10.328125 4.097656 -10.554688 C 4.996094 -12.519531 8.644531 -14.820312 10.664062 -14.707031 Z M 10.664062 -14.707031" transform="translate(312.43 77.082)"/></g></g></g><g fill="#5D3A30"><g><g><path d="M 12.292969 3.199219 C 17.570312 9.09375 24.136719 12.347656 32.050781 12.574219 C 40.976562 12.742188 48.386719 9.207031 54.335938 2.527344 C 59.5 -3.367188 63.09375 -10.214844 66.179688 -17.34375 C 68.707031 -23.183594 70.558594 -29.300781 72.75 -35.308594 C 75.386719 -42.660156 78.304688 -49.847656 82.347656 -56.46875 C 82.796875 -57.199219 83.300781 -57.59375 84.144531 -57.761719 C 87.566406 -58.492188 90.9375 -59.558594 93.855469 -61.632812 C 94.527344 -62.082031 95.035156 -62.195312 95.820312 -61.972656 C 105.753906 -59.164062 115.914062 -57.535156 126.300781 -57.480469 C 131.296875 -57.425781 136.234375 -57.59375 141.117188 -58.828125 C 143.8125 -59.5 146.453125 -60.457031 148.472656 -62.53125 C 148.695312 -62.699219 149.144531 -62.8125 148.921875 -63.207031 C 148.753906 -63.597656 148.304688 -63.65625 147.910156 -63.488281 C 147.125 -63.261719 146.226562 -63.09375 145.441406 -62.644531 C 143.253906 -61.296875 140.949219 -60.230469 138.367188 -59.726562 C 134.71875 -58.941406 131.015625 -58.714844 127.253906 -58.714844 C 118.664062 -58.601562 110.132812 -59.667969 101.769531 -61.578125 C 99.691406 -62.027344 97.671875 -62.589844 95.59375 -63.148438 C 95.761719 -63.375 95.820312 -63.488281 95.933594 -63.65625 C 97.671875 -66.070312 96.660156 -68.257812 93.6875 -68.652344 C 91.214844 -68.988281 89.082031 -68.035156 87.230469 -66.574219 C 86.390625 -65.902344 85.714844 -65.789062 84.816406 -66.179688 C 84.648438 -66.238281 84.480469 -66.238281 84.367188 -66.292969 C 78.195312 -68.089844 72.019531 -69.492188 65.621094 -69.773438 C 57.703125 -70.109375 50.015625 -68.875 42.492188 -66.574219 C 25.539062 -61.355469 13.136719 -50.800781 5.21875 -35.027344 C 2.078125 -28.738281 1.066406 -22.117188 2.636719 -15.210938 C 4.152344 -8.195312 7.578125 -2.132812 12.292969 3.199219 Z M 92.730469 -67.304688 C 93.519531 -67.585938 93.96875 -67.191406 94.136719 -66.519531 C 94.359375 -65.5625 93.96875 -64.777344 93.40625 -64.046875 C 93.238281 -63.878906 93.070312 -63.824219 92.84375 -63.9375 C 91.609375 -64.273438 90.375 -64.664062 89.027344 -65.058594 C 90.207031 -66.125 91.386719 -66.855469 92.730469 -67.304688 Z M 87.679688 -63.765625 C 87.847656 -63.9375 88.015625 -64.160156 88.410156 -64.046875 C 89.644531 -63.710938 90.9375 -63.316406 92.394531 -62.925781 C 89.925781 -60.90625 87.175781 -60.117188 84.3125 -59.332031 C 85.324219 -60.90625 86.445312 -62.363281 87.679688 -63.765625 Z M 7.914062 -35.53125 C 16.671875 -52.148438 30.199219 -62.476562 48.5 -66.6875 C 53.4375 -67.808594 58.492188 -68.539062 63.542969 -68.59375 C 68.59375 -68.652344 73.535156 -67.695312 78.417969 -66.628906 C 80.664062 -66.125 82.851562 -65.5625 85.152344 -64.890625 C 84.199219 -63.765625 83.300781 -62.757812 82.460938 -61.746094 C 82.121094 -61.355469 81.675781 -60.90625 81.449219 -60.398438 C 80.550781 -58.601562 79.035156 -58.097656 77.128906 -57.929688 C 72.300781 -57.480469 67.472656 -56.976562 62.644531 -56.414062 C 55.179688 -55.515625 48.050781 -53.605469 41.761719 -49.285156 C 34.691406 -44.457031 29.863281 -38.003906 27.785156 -29.636719 C 27 -26.550781 27.394531 -23.464844 28.234375 -20.433594 C 28.402344 -19.984375 28.628906 -19.589844 28.796875 -19.140625 C 28.964844 -18.75 29.359375 -18.523438 29.75 -18.75 C 30.085938 -18.917969 29.75 -19.199219 29.695312 -19.476562 C 28.851562 -23.914062 29.078125 -28.292969 30.761719 -32.5 C 35.195312 -43.445312 43.335938 -50.296875 54.617188 -53.550781 C 59.726562 -55.011719 64.945312 -55.515625 70.222656 -55.964844 C 72.804688 -56.1875 75.386719 -56.46875 77.96875 -56.75 C 78.25 -56.75 78.53125 -56.75 78.921875 -56.808594 C 78.363281 -55.796875 77.855469 -54.898438 77.351562 -54 C 74.265625 -48.78125 72.242188 -43.054688 70.109375 -37.382812 C 67.753906 -31.097656 65.957031 -24.53125 63.375 -18.300781 C 60.457031 -11.28125 57.085938 -4.546875 52.261719 1.347656 C 47.375 7.464844 41.035156 11.003906 33.230469 11.507812 C 27.617188 11.84375 22.507812 10.160156 18.1875 6.566406 C 9.9375 -0.335938 4.996094 -9.09375 4.265625 -19.984375 C 3.929688 -25.539062 5.332031 -30.703125 7.914062 -35.53125 Z M 7.914062 -35.53125" transform="translate(199.477 76.323)"/></g></g></g><g fill="#5D3A30"><g><g><path d="M 34.183594 -8.757812 C 31.042969 -7.128906 28.121094 -5.21875 25.484375 -2.863281 C 22.003906 0.222656 18.972656 3.761719 15.828125 7.183594 C 14.203125 8.980469 12.460938 10.722656 10.328125 11.898438 C 9.148438 12.628906 8.53125 12.292969 8.363281 11.003906 C 8.308594 10.609375 8.308594 10.214844 8.363281 9.824219 C 8.476562 9.039062 8.644531 8.25 8.867188 7.523438 C 9.878906 4.210938 11.339844 1.066406 12.964844 -2.019531 C 14.480469 -4.996094 16.054688 -7.972656 17.570312 -10.945312 C 18.242188 -12.238281 18.75 -13.695312 19.027344 -15.101562 C 19.421875 -16.839844 18.636719 -17.738281 16.839844 -17.738281 C 15.828125 -17.683594 14.988281 -17.234375 14.144531 -16.726562 C 11.507812 -14.988281 9.207031 -12.742188 6.90625 -10.609375 C 5.164062 -8.980469 3.480469 -7.242188 1.460938 -5.835938 C 1.515625 -7.523438 1.910156 -9.148438 2.46875 -10.664062 C 4.546875 -16.390625 6.90625 -22.003906 9.597656 -27.449219 C 11.226562 -30.984375 13.078125 -34.355469 14.929688 -37.722656 C 18.582031 -44.34375 22.507812 -50.855469 26.664062 -57.144531 C 27.671875 -58.660156 28.570312 -60.289062 29.414062 -61.914062 C 29.808594 -62.699219 29.636719 -62.980469 28.796875 -63.261719 C 27.785156 -63.597656 27.054688 -63.375 26.382812 -62.421875 C 25.035156 -60.457031 23.6875 -58.546875 22.398438 -56.636719 C 17.738281 -49.566406 13.414062 -42.324219 9.542969 -34.859375 C 6.285156 -28.460938 3.199219 -22.003906 0.5625 -15.324219 C -0.617188 -12.40625 -1.570312 -9.429688 -1.683594 -6.285156 C -1.796875 -4.433594 -0.84375 -3.59375 0.953125 -3.761719 C 1.628906 -3.816406 2.1875 -4.097656 2.75 -4.492188 C 3.3125 -4.996094 3.875 -5.445312 4.378906 -5.949219 C 7.015625 -8.421875 9.542969 -11.003906 12.292969 -13.304688 C 13.472656 -14.257812 14.652344 -15.269531 16.054688 -15.828125 C 16.335938 -15.4375 16.167969 -15.101562 15.996094 -14.761719 C 15.71875 -14.035156 15.378906 -13.246094 15.042969 -12.519531 C 13.808594 -9.710938 12.125 -7.183594 10.777344 -4.492188 C 9.09375 -1.292969 7.464844 1.851562 6.566406 5.332031 C 6.117188 7.183594 5.667969 9.039062 6.175781 11.003906 C 6.566406 12.574219 7.410156 13.246094 9.039062 13.246094 C 10.328125 13.304688 11.453125 12.796875 12.40625 12.011719 C 13.585938 11.171875 14.652344 10.214844 15.660156 9.207031 C 18.242188 6.566406 20.824219 3.984375 23.40625 1.292969 C 27.054688 -2.414062 30.929688 -5.78125 35.476562 -8.308594 C 35.757812 -8.476562 36.148438 -8.589844 36.039062 -9.039062 C 35.140625 -9.207031 35.140625 -9.207031 34.183594 -8.757812 Z M 34.183594 -8.757812" transform="translate(275.635 76.323)"/></g></g></g><g fill="#5D3A30"><g><g><path d="M 10.777344 2.300781 C 16.054688 0.335938 26.945312 -7.972656 37.441406 -9.375 C 37.105469 -10.105469 36.597656 -10.105469 36.148438 -10.105469 C 27 -9.09375 14.988281 -1.179688 11.453125 0.503906 C 9.878906 1.234375 8.25 1.738281 6.457031 1.910156 C 5.164062 2.019531 3.984375 1.738281 3.085938 0.671875 C 0.953125 -2.078125 0.785156 -4.941406 2.1875 -8.027344 C 2.46875 -8.644531 2.808594 -8.980469 3.59375 -8.757812 C 4.660156 -8.476562 5.726562 -8.53125 6.792969 -8.867188 C 8.980469 -9.597656 10.777344 -10.945312 12.40625 -12.519531 C 12.6875 -12.796875 12.855469 -13.078125 13.023438 -13.414062 C 13.472656 -14.3125 13.304688 -15.210938 12.460938 -15.828125 C 11.113281 -16.785156 9.65625 -17.34375 8.027344 -16.839844 C 3.816406 -15.605469 0.617188 -13.136719 -0.953125 -8.925781 C -1.910156 -6.34375 -1.628906 -3.875 -0.28125 -1.628906 C 2.46875 2.863281 5.726562 4.210938 10.777344 2.300781 Z M 10.664062 -14.707031 C 9.992188 -12.628906 6.34375 -10.328125 4.097656 -10.554688 C 4.996094 -12.519531 8.644531 -14.820312 10.664062 -14.707031 Z M 10.664062 -14.707031" transform="translate(310.094 76.323)"/></g></g></g><g fill="#5D3A30"><g><g><path d="M 8.78125 0.238281 L 8.78125 0.101562 C 8.78125 -0.378906 8.605469 -0.65625 8.289062 -0.707031 C 8.640625 -1 8.78125 -1.390625 8.78125 -1.945312 L 8.78125 -2.476562 L 8.464844 -2.476562 C 7.71875 -0.683594 6.835938 -0.390625 5.496094 -0.390625 C 3.324219 -0.390625 2.222656 -2.453125 2.222656 -4.460938 C 2.222656 -6.46875 3.324219 -8.527344 5.496094 -8.527344 C 6.808594 -8.527344 7.71875 -8.238281 8.464844 -6.445312 L 8.78125 -6.445312 L 8.78125 -6.988281 C 8.78125 -7.46875 8.679688 -7.871094 8.289062 -8.226562 C 8.578125 -8.25 8.78125 -8.515625 8.78125 -9.019531 L 8.78125 -9.1875 L 8.464844 -9.1875 C 8.3125 -8.945312 8.175781 -8.871094 7.820312 -8.921875 C 7.226562 -9.007812 6.808594 -9.070312 5.988281 -9.070312 C 1.984375 -9.070312 0.683594 -6.925781 0.683594 -4.460938 C 0.683594 -1.742188 1.984375 0.152344 5.988281 0.152344 C 6.808594 0.152344 7.226562 0.0898438 7.820312 0 C 8.1875 -0.0507812 8.3125 0.0234375 8.464844 0.238281 Z M 8.78125 0.238281" transform="translate(200.28 216.64)"/></g></g></g><g fill="#5D3A30"><g><g><path d="M 0.253906 0 C 0.882812 0 1.289062 -0.175781 1.503906 -0.492188 C 1.71875 -0.175781 2.1875 0 2.753906 0 L 3.375 0 L 3.375 -0.316406 C 2.679688 -0.328125 1.84375 -0.667969 2.25 -1.894531 L 2.792969 -3.523438 L 6.242188 -3.523438 L 7.0625 -1.429688 C 7.367188 -0.644531 6.808594 -0.378906 6.140625 -0.316406 L 6.140625 0 L 6.683594 0 C 7.304688 0 7.71875 -0.175781 7.933594 -0.492188 C 8.148438 -0.175781 8.605469 0 9.1875 0 L 9.566406 0 L 9.566406 -0.316406 C 8.84375 -0.53125 8.640625 -1.035156 8.351562 -1.71875 L 5.835938 -7.617188 C 5.648438 -8.0625 5.457031 -8.476562 5.535156 -8.921875 C 4.925781 -8.921875 4.5625 -8.640625 4.398438 -8.425781 C 4.183594 -8.742188 3.777344 -8.921875 3.476562 -8.921875 L 2.945312 -8.921875 L 2.945312 -8.605469 C 3.652344 -8.542969 3.917969 -8.0625 3.625 -7.339844 L 1.527344 -2.085938 C 1.023438 -0.820312 0.707031 -0.429688 0.152344 -0.316406 L 0.152344 0 Z M 4.484375 -7.746094 L 5.964844 -4.144531 L 3.019531 -4.144531 Z M 4.484375 -7.746094" transform="translate(209.744 216.64)"/></g></g></g><g fill="#5D3A30"><g><g><path d="M 4.433594 -4.925781 C 7.050781 -6.988281 8.328125 -8.011719 10.335938 -8.605469 L 10.335938 -8.921875 L 9.351562 -8.921875 C 8.515625 -8.921875 8.0625 -8.742188 7.71875 -8.425781 C 7.632812 -8.742188 7.203125 -8.921875 6.59375 -8.921875 L 5.785156 -8.921875 L 5.785156 -8.605469 C 6.570312 -8.476562 7.023438 -8.339844 7.023438 -7.984375 C 7.023438 -7.367188 4.523438 -5.292969 3.144531 -4.75 L 3.144531 -7.328125 C 3.144531 -8.175781 3.476562 -8.328125 4.699219 -8.605469 L 4.699219 -8.921875 L 3.726562 -8.921875 C 3.132812 -8.921875 2.691406 -8.742188 2.476562 -8.425781 C 2.261719 -8.742188 1.84375 -8.921875 1.226562 -8.921875 L 0.304688 -8.921875 L 0.304688 -8.605469 C 1.667969 -8.25 1.808594 -8.0625 1.808594 -7.390625 L 1.808594 -1.59375 C 1.808594 -0.949219 1.71875 -0.644531 0.277344 -0.316406 L 0.277344 0 L 1.226562 0 C 1.84375 0 2.261719 -0.175781 2.476562 -0.492188 C 2.691406 -0.175781 3.144531 0 3.726562 0 L 4.675781 0 L 4.675781 -0.316406 C 3.4375 -0.617188 3.144531 -0.746094 3.144531 -1.59375 L 3.144531 -4.421875 L 5.949219 -2.25 C 7.503906 -1.046875 8.085938 -0.65625 6.671875 -0.316406 L 6.671875 0 L 7.480469 0 C 8.113281 0 8.515625 -0.175781 8.605469 -0.492188 C 8.945312 -0.175781 9.425781 0 10.234375 0 L 11.03125 0 L 11.03125 -0.316406 C 10.625 -0.53125 9.855469 -0.847656 9.046875 -1.453125 Z M 4.433594 -4.925781" transform="translate(219.473 216.64)"/></g></g></g><g fill="#5D3A30"><g><g><path d="M 7.769531 0.238281 L 7.769531 0.101562 C 7.769531 -0.390625 7.554688 -0.667969 7.277344 -0.707031 C 7.605469 -1 7.769531 -1.363281 7.769531 -2.007812 L 7.769531 -2.476562 L 7.453125 -2.476562 C 6.910156 -0.683594 6.050781 -0.480469 4.976562 -0.480469 C 3.324219 -0.480469 3.109375 -1.0625 3.109375 -1.871094 L 3.109375 -4.421875 L 4.09375 -4.421875 C 5.09375 -4.421875 5.914062 -3.96875 6.039062 -2.980469 L 6.28125 -2.980469 L 6.28125 -3.410156 C 6.28125 -3.953125 6.101562 -4.433594 5.785156 -4.664062 C 6.101562 -4.878906 6.28125 -5.308594 6.28125 -5.914062 L 6.28125 -6.214844 L 6 -6.214844 C 5.964844 -5.382812 5.078125 -4.902344 4.308594 -4.902344 L 3.109375 -4.902344 L 3.109375 -7.289062 C 3.109375 -7.910156 3.222656 -8.464844 4.738281 -8.464844 C 6.050781 -8.464844 6.910156 -8.238281 7.453125 -6.445312 L 7.769531 -6.445312 L 7.769531 -6.925781 C 7.769531 -7.554688 7.605469 -7.921875 7.277344 -8.226562 C 7.617188 -8.261719 7.769531 -8.605469 7.769531 -9.019531 L 7.769531 -9.1875 L 7.453125 -9.1875 C 7.289062 -8.921875 7.125 -8.921875 6.785156 -8.921875 L 4.472656 -8.921875 C 3.476562 -8.921875 2.90625 -8.808594 2.5 -8.425781 C 2.285156 -8.742188 1.882812 -8.921875 1.25 -8.921875 L 0.304688 -8.921875 L 0.304688 -8.605469 C 1.527344 -8.492188 1.792969 -8.085938 1.792969 -7.328125 L 1.792969 -1.59375 C 1.792969 -0.847656 1.566406 -0.429688 0.289062 -0.316406 L 0.289062 0 L 1.25 0 C 1.882812 0 2.285156 -0.175781 2.5 -0.492188 C 2.804688 -0.175781 3.285156 0 4.285156 0 L 6.785156 0 C 7.125 0 7.289062 0 7.453125 0.238281 Z M 7.769531 0.238281" transform="translate(230.718 216.64)"/></g></g></g><g fill="#5D3A30"><g><g><path d="M 0.832031 0.238281 C 1.035156 -0.0507812 1.125 -0.0742188 1.617188 0.0234375 C 2.171875 0.140625 2.691406 0.152344 3.308594 0.152344 C 5.6875 0.152344 6.457031 -1.289062 6.457031 -2.414062 C 6.457031 -3.132812 6.152344 -3.664062 5.394531 -4.332031 C 4.460938 -5.15625 3.082031 -5.9375 2.589844 -6.429688 C 2.386719 -6.632812 2.148438 -6.988281 2.148438 -7.328125 C 2.148438 -7.796875 2.527344 -8.566406 3.574219 -8.566406 C 4.332031 -8.566406 5.507812 -8.210938 6.078125 -6.457031 L 6.394531 -6.457031 L 6.394531 -6.9375 C 6.394531 -7.417969 6.332031 -7.859375 5.902344 -8.238281 C 6.242188 -8.277344 6.394531 -8.617188 6.394531 -9.035156 L 6.394531 -9.1875 L 6.078125 -9.1875 C 5.902344 -8.90625 5.8125 -8.855469 5.34375 -8.957031 C 4.992188 -9.035156 4.398438 -9.085938 3.640625 -9.085938 C 2.058594 -9.085938 0.960938 -8.238281 0.960938 -6.886719 C 0.960938 -6.253906 1.175781 -5.851562 1.855469 -5.28125 C 2.527344 -4.726562 3.523438 -4.082031 4.371094 -3.359375 C 4.878906 -2.929688 5.128906 -2.351562 5.128906 -1.84375 C 5.128906 -1.0625 4.625 -0.355469 3.523438 -0.355469 C 2.476562 -0.355469 1.855469 -0.734375 0.832031 -2.476562 L 0.519531 -2.476562 L 0.519531 -2.160156 C 0.519531 -1.441406 0.632812 -1.035156 1.011719 -0.707031 C 0.71875 -0.667969 0.519531 -0.40625 0.519531 0.101562 L 0.519531 0.238281 Z M 0.832031 0.238281" transform="translate(242.974 216.64)"/></g></g></g><g fill="#5D3A30"><g><g><path d="M 9.1875 -7.328125 C 9.1875 -8.25 9.640625 -8.414062 10.664062 -8.679688 L 10.664062 -8.921875 L 9.753906 -8.921875 C 9.136719 -8.921875 8.71875 -8.742188 8.503906 -8.425781 C 8.289062 -8.742188 7.820312 -8.921875 7.253906 -8.921875 L 6.304688 -8.921875 L 6.304688 -8.679688 C 7.503906 -8.402344 7.859375 -8.199219 7.859375 -7.328125 L 7.859375 -4.914062 L 3.09375 -4.914062 L 3.09375 -7.328125 C 3.09375 -8.164062 3.425781 -8.402344 4.648438 -8.679688 L 4.648438 -8.921875 L 3.726562 -8.921875 C 3.144531 -8.921875 2.691406 -8.742188 2.476562 -8.425781 C 2.261719 -8.742188 1.832031 -8.921875 1.226562 -8.921875 L 0.289062 -8.921875 L 0.289062 -8.679688 C 1.414062 -8.402344 1.78125 -8.175781 1.78125 -7.328125 L 1.78125 -1.59375 C 1.78125 -0.820312 1.503906 -0.519531 0.277344 -0.238281 L 0.277344 0 L 1.226562 0 C 1.820312 0 2.261719 -0.175781 2.476562 -0.492188 C 2.691406 -0.175781 3.132812 0 3.726562 0 L 4.625 0 L 4.625 -0.238281 C 3.5625 -0.503906 3.09375 -0.65625 3.09375 -1.59375 L 3.09375 -4.257812 L 7.859375 -4.257812 L 7.859375 -1.59375 C 7.859375 -0.785156 7.605469 -0.554688 6.355469 -0.238281 L 6.355469 0 L 7.253906 0 C 7.820312 0 8.289062 -0.175781 8.503906 -0.492188 C 8.71875 -0.175781 9.136719 0 9.753906 0 L 10.675781 0 L 10.675781 -0.238281 C 9.324219 -0.554688 9.1875 -0.898438 9.1875 -1.59375 Z M 9.1875 -7.328125" transform="translate(250.214 216.64)"/></g></g></g><g fill="#5D3A30"><g><g><path d="M 5.320312 0.140625 C 8.210938 0.140625 10.257812 -1.78125 10.257812 -4.511719 C 10.257812 -7.125 8.277344 -9.070312 5.558594 -9.070312 C 2.714844 -9.070312 0.617188 -7.152344 0.617188 -4.523438 C 0.617188 -1.820312 2.578125 0.140625 5.320312 0.140625 Z M 5.597656 -0.378906 C 3.613281 -0.378906 2.109375 -2.5 2.109375 -5.242188 C 2.109375 -7.277344 3.335938 -8.566406 5.371094 -8.566406 C 7.253906 -8.566406 8.769531 -6.378906 8.769531 -3.714844 C 8.769531 -1.65625 7.542969 -0.378906 5.597656 -0.378906 Z M 5.597656 -0.378906" transform="translate(261.169 216.64)"/></g></g></g><g fill="#5D3A30"><g><g><path d="M 1.226562 0 C 1.808594 0 2.25 -0.164062 2.476562 -0.492188 C 2.691406 -0.175781 3.144531 0 3.726562 0 L 4.636719 0 L 4.636719 -0.316406 C 3.359375 -0.617188 3.144531 -0.820312 3.144531 -1.59375 L 3.144531 -4.042969 L 4.699219 -4.042969 C 6.53125 -4.042969 8.113281 -5.140625 8.113281 -6.480469 C 8.113281 -7.921875 6.796875 -8.921875 4.800781 -8.921875 C 3.476562 -8.921875 2.84375 -8.769531 2.476562 -8.425781 C 2.25 -8.757812 1.808594 -8.921875 1.226562 -8.921875 L 0.289062 -8.921875 L 0.289062 -8.605469 C 1.820312 -8.226562 1.820312 -7.910156 1.820312 -7.328125 L 1.820312 -1.59375 C 1.820312 -1.023438 1.820312 -0.683594 0.277344 -0.316406 L 0.277344 0 Z M 3.144531 -7.214844 C 3.144531 -7.910156 3.296875 -8.441406 4.5625 -8.441406 C 5.863281 -8.441406 6.582031 -7.734375 6.582031 -6.417969 C 6.582031 -5.292969 5.609375 -4.523438 4.15625 -4.523438 L 3.144531 -4.523438 Z M 3.144531 -7.214844" transform="translate(272.048 216.64)"/></g></g></g><g fill="#5D3A30"><g><g><path d="M 4.511719 -2.566406 L 4.511719 -3.601562 L 0.304688 -3.601562 L 0.304688 -2.566406 Z M 4.511719 -2.566406" transform="translate(284.38 216.64)"/></g></g></g><g fill="#5D3A30"><g><g><path d="M 0.832031 0.238281 C 1.035156 -0.0507812 1.125 -0.0742188 1.617188 0.0234375 C 2.171875 0.140625 2.691406 0.152344 3.308594 0.152344 C 5.6875 0.152344 6.457031 -1.289062 6.457031 -2.414062 C 6.457031 -3.132812 6.152344 -3.664062 5.394531 -4.332031 C 4.460938 -5.15625 3.082031 -5.9375 2.589844 -6.429688 C 2.386719 -6.632812 2.148438 -6.988281 2.148438 -7.328125 C 2.148438 -7.796875 2.527344 -8.566406 3.574219 -8.566406 C 4.332031 -8.566406 5.507812 -8.210938 6.078125 -6.457031 L 6.394531 -6.457031 L 6.394531 -6.9375 C 6.394531 -7.417969 6.332031 -7.859375 5.902344 -8.238281 C 6.242188 -8.277344 6.394531 -8.617188 6.394531 -9.035156 L 6.394531 -9.1875 L 6.078125 -9.1875 C 5.902344 -8.90625 5.8125 -8.855469 5.34375 -8.957031 C 4.992188 -9.035156 4.398438 -9.085938 3.640625 -9.085938 C 2.058594 -9.085938 0.960938 -8.238281 0.960938 -6.886719 C 0.960938 -6.253906 1.175781 -5.851562 1.855469 -5.28125 C 2.527344 -4.726562 3.523438 -4.082031 4.371094 -3.359375 C 4.878906 -2.929688 5.128906 -2.351562 5.128906 -1.84375 C 5.128906 -1.0625 4.625 -0.355469 3.523438 -0.355469 C 2.476562 -0.355469 1.855469 -0.734375 0.832031 -2.476562 L 0.519531 -2.476562 L 0.519531 -2.160156 C 0.519531 -1.441406 0.632812 -1.035156 1.011719 -0.707031 C 0.71875 -0.667969 0.519531 -0.40625 0.519531 0.101562 L 0.519531 0.238281 Z M 0.832031 0.238281" transform="translate(292.997 216.64)"/></g></g></g><g fill="#5D3A30"><g><g><path d="M 4.664062 -8.921875 L 3.738281 -8.921875 C 3.160156 -8.921875 2.703125 -8.742188 2.488281 -8.425781 C 2.273438 -8.742188 1.84375 -8.921875 1.238281 -8.921875 L 0.304688 -8.921875 L 0.304688 -8.605469 C 1.363281 -8.414062 1.792969 -8.238281 1.792969 -7.328125 L 1.792969 -1.59375 C 1.792969 -0.859375 1.566406 -0.519531 0.289062 -0.316406 L 0.289062 0 L 1.238281 0 C 1.832031 0 2.273438 -0.175781 2.488281 -0.492188 C 2.703125 -0.175781 3.144531 0 3.738281 0 L 4.636719 0 L 4.636719 -0.316406 C 3.410156 -0.519531 3.109375 -0.796875 3.109375 -1.59375 L 3.109375 -7.328125 C 3.109375 -8.226562 3.5 -8.414062 4.664062 -8.605469 Z M 4.664062 -8.921875" transform="translate(300.237 216.64)"/></g></g></g><g fill="#5D3A30"><g><g><path d="M 11.15625 -8.921875 L 10.640625 -8.921875 C 10.058594 -8.921875 9.601562 -8.742188 9.386719 -8.425781 C 9.171875 -8.742188 8.742188 -8.921875 8.136719 -8.921875 L 7.46875 -8.921875 L 7.46875 -8.605469 C 8.679688 -8.414062 9.070312 -8.25 9.070312 -7.503906 L 9.070312 -2.109375 L 3.753906 -7.570312 C 3.347656 -7.984375 2.878906 -8.453125 3.09375 -8.921875 L 2.4375 -8.921875 C 2.035156 -8.921875 1.808594 -8.742188 1.757812 -8.425781 C 1.492188 -8.742188 1.125 -8.921875 0.667969 -8.921875 L 0.214844 -8.921875 L 0.214844 -8.605469 C 1.148438 -8.425781 1.476562 -8.125 2.210938 -7.328125 L 2.210938 -1.527344 C 2.210938 -0.683594 1.871094 -0.503906 0.519531 -0.316406 L 0.519531 0 L 1.289062 0 C 1.871094 0 2.285156 -0.152344 2.539062 -0.492188 C 2.753906 -0.175781 3.171875 0 3.789062 0 L 4.523438 0 L 4.523438 -0.316406 C 2.957031 -0.554688 2.867188 -0.832031 2.867188 -1.429688 L 2.867188 -6.695312 L 9.628906 0.140625 L 9.945312 0.140625 L 9.945312 -0.175781 C 9.691406 -0.757812 9.691406 -1.339844 9.691406 -1.933594 L 9.691406 -7.355469 C 9.691406 -8.136719 9.90625 -8.402344 11.15625 -8.605469 Z M 11.15625 -8.921875" transform="translate(305.203 216.64)"/></g></g></g><g fill="#5D3A30"><g><g><path d="M 8.78125 0.238281 L 8.78125 0.101562 C 8.78125 -0.378906 8.605469 -0.65625 8.289062 -0.707031 C 8.640625 -1 8.78125 -1.390625 8.78125 -1.945312 L 8.78125 -2.476562 L 8.464844 -2.476562 C 7.71875 -0.683594 6.835938 -0.390625 5.496094 -0.390625 C 3.324219 -0.390625 2.222656 -2.453125 2.222656 -4.460938 C 2.222656 -6.46875 3.324219 -8.527344 5.496094 -8.527344 C 6.808594 -8.527344 7.71875 -8.238281 8.464844 -6.445312 L 8.78125 -6.445312 L 8.78125 -6.988281 C 8.78125 -7.46875 8.679688 -7.871094 8.289062 -8.226562 C 8.578125 -8.25 8.78125 -8.515625 8.78125 -9.019531 L 8.78125 -9.1875 L 8.464844 -9.1875 C 8.3125 -8.945312 8.175781 -8.871094 7.820312 -8.921875 C 7.226562 -9.007812 6.808594 -9.070312 5.988281 -9.070312 C 1.984375 -9.070312 0.683594 -6.925781 0.683594 -4.460938 C 0.683594 -1.742188 1.984375 0.152344 5.988281 0.152344 C 6.808594 0.152344 7.226562 0.0898438 7.820312 0 C 8.1875 -0.0507812 8.3125 0.0234375 8.464844 0.238281 Z M 8.78125 0.238281" transform="translate(316.574 216.64)"/></g></g></g><g fill="#5D3A30"><g><g><path d="M 7.769531 0.238281 L 7.769531 0.101562 C 7.769531 -0.390625 7.554688 -0.667969 7.277344 -0.707031 C 7.605469 -1 7.769531 -1.363281 7.769531 -2.007812 L 7.769531 -2.476562 L 7.453125 -2.476562 C 6.910156 -0.683594 6.050781 -0.480469 4.976562 -0.480469 C 3.324219 -0.480469 3.109375 -1.0625 3.109375 -1.871094 L 3.109375 -4.421875 L 4.09375 -4.421875 C 5.09375 -4.421875 5.914062 -3.96875 6.039062 -2.980469 L 6.28125 -2.980469 L 6.28125 -3.410156 C 6.28125 -3.953125 6.101562 -4.433594 5.785156 -4.664062 C 6.101562 -4.878906 6.28125 -5.308594 6.28125 -5.914062 L 6.28125 -6.214844 L 6 -6.214844 C 5.964844 -5.382812 5.078125 -4.902344 4.308594 -4.902344 L 3.109375 -4.902344 L 3.109375 -7.289062 C 3.109375 -7.910156 3.222656 -8.464844 4.738281 -8.464844 C 6.050781 -8.464844 6.910156 -8.238281 7.453125 -6.445312 L 7.769531 -6.445312 L 7.769531 -6.925781 C 7.769531 -7.554688 7.605469 -7.921875 7.277344 -8.226562 C 7.617188 -8.261719 7.769531 -8.605469 7.769531 -9.019531 L 7.769531 -9.1875 L 7.453125 -9.1875 C 7.289062 -8.921875 7.125 -8.921875 6.785156 -8.921875 L 4.472656 -8.921875 C 3.476562 -8.921875 2.90625 -8.808594 2.5 -8.425781 C 2.285156 -8.742188 1.882812 -8.921875 1.25 -8.921875 L 0.304688 -8.921875 L 0.304688 -8.605469 C 1.527344 -8.492188 1.792969 -8.085938 1.792969 -7.328125 L 1.792969 -1.59375 C 1.792969 -0.847656 1.566406 -0.429688 0.289062 -0.316406 L 0.289062 0 L 1.25 0 C 1.882812 0 2.285156 -0.175781 2.5 -0.492188 C 2.804688 -0.175781 3.285156 0 4.285156 0 L 6.785156 0 C 7.125 0 7.289062 0 7.453125 0.238281 Z M 7.769531 0.238281" transform="translate(326.038 216.64)"/></g></g></g><g fill="#5D3A30"><g><g><path d="M 1.429688 0 C 2.058594 0 2.464844 -0.175781 2.679688 -0.492188 C 2.894531 -0.175781 3.347656 0 3.929688 0 L 4.761719 0 L 4.761719 -0.367188 C 3.890625 -0.492188 3.375 -0.960938 3.375 -1.566406 L 3.375 -8.933594 L 2.957031 -8.933594 C 2.425781 -8.3125 1.65625 -7.949219 0.617188 -7.832031 L 0.617188 -7.519531 L 1.414062 -7.519531 C 1.820312 -7.519531 2.046875 -7.289062 2.046875 -6.886719 L 2.046875 -1.679688 C 2.046875 -1 1.578125 -0.503906 0.617188 -0.378906 L 0.617188 0 Z M 1.429688 0" transform="translate(338.294 216.64)"/></g></g></g><g fill="#5D3A30"><g><g><path d="M 3.902344 -8.90625 C 2.121094 -8.90625 0.785156 -7.503906 0.785156 -5.621094 C 0.785156 -4.070312 1.90625 -2.90625 3.410156 -2.90625 C 4.117188 -2.90625 4.890625 -3.171875 5.546875 -3.652344 C 5.105469 -1.757812 3.789062 -0.570312 1.65625 -0.125 L 1.65625 0.125 C 4.828125 0.0234375 7.125 -2.148438 7.125 -5.066406 C 7.125 -7.289062 5.773438 -8.90625 3.902344 -8.90625 Z M 3.828125 -8.453125 C 5.003906 -8.453125 5.785156 -7.53125 5.785156 -6.152344 C 5.785156 -4.710938 4.941406 -3.589844 3.839844 -3.589844 C 2.765625 -3.589844 2.160156 -4.523438 2.160156 -6.140625 C 2.160156 -7.492188 2.855469 -8.453125 3.828125 -8.453125 Z M 3.828125 -8.453125" transform="translate(343.563 216.64)"/></g></g></g><g fill="#5D3A30"><g><g><path d="M 4.003906 0.125 C 5.785156 0.125 7.125 -1.277344 7.125 -3.160156 C 7.125 -4.710938 6 -5.875 4.5 -5.875 C 3.789062 -5.875 3.019531 -5.609375 2.363281 -5.128906 C 2.804688 -7.023438 4.117188 -8.210938 6.253906 -8.65625 L 6.253906 -8.90625 C 3.082031 -8.808594 0.785156 -6.632812 0.785156 -3.714844 C 0.785156 -1.492188 2.136719 0.125 4.003906 0.125 Z M 4.082031 -0.328125 C 2.90625 -0.328125 2.121094 -1.25 2.121094 -2.628906 C 2.121094 -4.070312 2.96875 -5.191406 4.070312 -5.191406 C 5.140625 -5.191406 5.75 -4.257812 5.75 -2.640625 C 5.75 -1.289062 5.054688 -0.328125 4.082031 -0.328125 Z M 4.082031 -0.328125" transform="translate(351.447 216.64)"/></g></g></g><g fill="#5D3A30"><g><g><path d="M 7.214844 0.253906 L 7.214844 0.0625 C 7.214844 -0.40625 7.039062 -0.695312 6.722656 -0.734375 C 7.074219 -1.035156 7.214844 -1.414062 7.214844 -2.035156 L 7.214844 -2.566406 L 6.898438 -2.566406 C 6.507812 -1.175781 5.15625 -0.503906 2.753906 -0.503906 L 2.070312 -0.503906 C 5.800781 -3.703125 6.621094 -4.789062 6.621094 -6.480469 C 6.621094 -7.921875 5.546875 -8.90625 3.980469 -8.90625 C 2.816406 -8.90625 0.898438 -7.316406 0.898438 -6.394531 C 0.898438 -5.824219 1.71875 -5.230469 2.539062 -4.953125 L 2.792969 -5.167969 C 2.300781 -5.722656 2.046875 -6.367188 2.046875 -6.925781 C 2.046875 -7.683594 2.527344 -8.289062 3.488281 -8.289062 C 4.851562 -8.289062 5.28125 -7.214844 5.28125 -6.367188 C 5.28125 -5.003906 4.296875 -3.828125 0.667969 -0.683594 L 0.667969 0 L 6.203125 0 C 6.660156 0 6.785156 0.0507812 6.898438 0.253906 Z M 7.214844 0.253906" transform="translate(359.332 216.64)"/></g></g></g><g fill="#5D3A30"><g><g><path d="M 9.1875 -7.328125 C 9.1875 -8.25 9.640625 -8.414062 10.664062 -8.679688 L 10.664062 -8.921875 L 9.753906 -8.921875 C 9.136719 -8.921875 8.71875 -8.742188 8.503906 -8.425781 C 8.289062 -8.742188 7.820312 -8.921875 7.253906 -8.921875 L 6.304688 -8.921875 L 6.304688 -8.679688 C 7.503906 -8.402344 7.859375 -8.199219 7.859375 -7.328125 L 7.859375 -4.914062 L 3.09375 -4.914062 L 3.09375 -7.328125 C 3.09375 -8.164062 3.425781 -8.402344 4.648438 -8.679688 L 4.648438 -8.921875 L 3.726562 -8.921875 C 3.144531 -8.921875 2.691406 -8.742188 2.476562 -8.425781 C 2.261719 -8.742188 1.832031 -8.921875 1.226562 -8.921875 L 0.289062 -8.921875 L 0.289062 -8.679688 C 1.414062 -8.402344 1.78125 -8.175781 1.78125 -7.328125 L 1.78125 -1.59375 C 1.78125 -0.820312 1.503906 -0.519531 0.277344 -0.238281 L 0.277344 0 L 1.226562 0 C 1.820312 0 2.261719 -0.175781 2.476562 -0.492188 C 2.691406 -0.175781 3.132812 0 3.726562 0 L 4.625 0 L 4.625 -0.238281 C 3.5625 -0.503906 3.09375 -0.65625 3.09375 -1.59375 L 3.09375 -4.257812 L 7.859375 -4.257812 L 7.859375 -1.59375 C 7.859375 -0.785156 7.605469 -0.554688 6.355469 -0.238281 L 6.355469 0 L 7.253906 0 C 7.820312 0 8.289062 -0.175781 8.503906 -0.492188 C 8.71875 -0.175781 9.136719 0 9.753906 0 L 10.675781 0 L 10.675781 -0.238281 C 9.324219 -0.554688 9.1875 -0.898438 9.1875 -1.59375 Z M 9.1875 -7.328125" transform="translate(200.708 231.382)"/></g></g></g><g fill="#5D3A30"><g><g><path d="M 5.320312 0.140625 C 8.210938 0.140625 10.257812 -1.78125 10.257812 -4.511719 C 10.257812 -7.125 8.277344 -9.070312 5.558594 -9.070312 C 2.714844 -9.070312 0.617188 -7.152344 0.617188 -4.523438 C 0.617188 -1.820312 2.578125 0.140625 5.320312 0.140625 Z M 5.597656 -0.378906 C 3.613281 -0.378906 2.109375 -2.5 2.109375 -5.242188 C 2.109375 -7.277344 3.335938 -8.566406 5.371094 -8.566406 C 7.253906 -8.566406 8.769531 -6.378906 8.769531 -3.714844 C 8.769531 -1.65625 7.542969 -0.378906 5.597656 -0.378906 Z M 5.597656 -0.378906" transform="translate(211.663 231.382)"/></g></g></g><g fill="#5D3A30"><g><g><path d="M 10.324219 -7.089844 C 10.210938 -8.125 10.5 -8.425781 11.296875 -8.605469 L 11.296875 -8.921875 L 11.066406 -8.921875 C 10.601562 -8.921875 10.195312 -8.742188 10.019531 -8.425781 C 9.832031 -8.742188 9.515625 -8.921875 8.972656 -8.921875 C 8.972656 -8.328125 8.84375 -7.882812 8.679688 -7.503906 L 6.230469 -1.78125 L 4.195312 -7.164062 C 3.941406 -7.832031 3.816406 -8.378906 3.839844 -8.921875 L 3.816406 -8.921875 C 3.324219 -8.921875 2.957031 -8.742188 2.78125 -8.425781 C 2.589844 -8.742188 2.25 -8.921875 1.71875 -8.921875 L 1.300781 -8.921875 L 1.300781 -8.605469 C 2.171875 -8.402344 2.386719 -8.011719 2.25 -6.960938 L 1.554688 -1.707031 C 1.441406 -0.820312 1.226562 -0.519531 0.175781 -0.316406 L 0.175781 0 L 0.542969 0 C 1.164062 0 1.578125 -0.175781 1.792969 -0.492188 C 2.007812 -0.175781 2.476562 0 3.046875 0 L 3.425781 0 L 3.425781 -0.316406 C 2.578125 -0.480469 2.035156 -1.011719 2.121094 -1.667969 L 2.855469 -7.074219 L 5.597656 0 L 6.28125 0 L 9.085938 -6.632812 L 9.628906 -1.542969 C 9.703125 -0.820312 9.414062 -0.53125 8.390625 -0.316406 L 8.390625 0 L 9.121094 0 C 9.742188 0 10.160156 -0.175781 10.375 -0.492188 C 10.589844 -0.175781 11.042969 0 11.625 0 L 12.355469 0 L 12.355469 -0.316406 C 11.234375 -0.519531 11.019531 -0.859375 10.890625 -2.023438 Z M 10.324219 -7.089844" transform="translate(222.541 231.382)"/></g></g></g><g fill="#5D3A30"><g><g><path d="M 7.769531 0.238281 L 7.769531 0.101562 C 7.769531 -0.390625 7.554688 -0.667969 7.277344 -0.707031 C 7.605469 -1 7.769531 -1.363281 7.769531 -2.007812 L 7.769531 -2.476562 L 7.453125 -2.476562 C 6.910156 -0.683594 6.050781 -0.480469 4.976562 -0.480469 C 3.324219 -0.480469 3.109375 -1.0625 3.109375 -1.871094 L 3.109375 -4.421875 L 4.09375 -4.421875 C 5.09375 -4.421875 5.914062 -3.96875 6.039062 -2.980469 L 6.28125 -2.980469 L 6.28125 -3.410156 C 6.28125 -3.953125 6.101562 -4.433594 5.785156 -4.664062 C 6.101562 -4.878906 6.28125 -5.308594 6.28125 -5.914062 L 6.28125 -6.214844 L 6 -6.214844 C 5.964844 -5.382812 5.078125 -4.902344 4.308594 -4.902344 L 3.109375 -4.902344 L 3.109375 -7.289062 C 3.109375 -7.910156 3.222656 -8.464844 4.738281 -8.464844 C 6.050781 -8.464844 6.910156 -8.238281 7.453125 -6.445312 L 7.769531 -6.445312 L 7.769531 -6.925781 C 7.769531 -7.554688 7.605469 -7.921875 7.277344 -8.226562 C 7.617188 -8.261719 7.769531 -8.605469 7.769531 -9.019531 L 7.769531 -9.1875 L 7.453125 -9.1875 C 7.289062 -8.921875 7.125 -8.921875 6.785156 -8.921875 L 4.472656 -8.921875 C 3.476562 -8.921875 2.90625 -8.808594 2.5 -8.425781 C 2.285156 -8.742188 1.882812 -8.921875 1.25 -8.921875 L 0.304688 -8.921875 L 0.304688 -8.605469 C 1.527344 -8.492188 1.792969 -8.085938 1.792969 -7.328125 L 1.792969 -1.59375 C 1.792969 -0.847656 1.566406 -0.429688 0.289062 -0.316406 L 0.289062 0 L 1.25 0 C 1.882812 0 2.285156 -0.175781 2.5 -0.492188 C 2.804688 -0.175781 3.285156 0 4.285156 0 L 6.785156 0 C 7.125 0 7.289062 0 7.453125 0.238281 Z M 7.769531 0.238281" transform="translate(235.1 231.382)"/></g></g></g><g fill="#5D3A30"><g><g><path d="M 8.78125 0.238281 L 8.78125 0.101562 C 8.78125 -0.378906 8.605469 -0.65625 8.289062 -0.707031 C 8.640625 -1 8.78125 -1.390625 8.78125 -1.945312 L 8.78125 -2.476562 L 8.464844 -2.476562 C 7.71875 -0.683594 6.835938 -0.390625 5.496094 -0.390625 C 3.324219 -0.390625 2.222656 -2.453125 2.222656 -4.460938 C 2.222656 -6.46875 3.324219 -8.527344 5.496094 -8.527344 C 6.808594 -8.527344 7.71875 -8.238281 8.464844 -6.445312 L 8.78125 -6.445312 L 8.78125 -6.988281 C 8.78125 -7.46875 8.679688 -7.871094 8.289062 -8.226562 C 8.578125 -8.25 8.78125 -8.515625 8.78125 -9.019531 L 8.78125 -9.1875 L 8.464844 -9.1875 C 8.3125 -8.945312 8.175781 -8.871094 7.820312 -8.921875 C 7.226562 -9.007812 6.808594 -9.070312 5.988281 -9.070312 C 1.984375 -9.070312 0.683594 -6.925781 0.683594 -4.460938 C 0.683594 -1.742188 1.984375 0.152344 5.988281 0.152344 C 6.808594 0.152344 7.226562 0.0898438 7.820312 0 C 8.1875 -0.0507812 8.3125 0.0234375 8.464844 0.238281 Z M 8.78125 0.238281" transform="translate(243.566 231.382)"/></g></g></g><g fill="#5D3A30"><g><g><path d="M 0.253906 0 C 0.882812 0 1.289062 -0.175781 1.503906 -0.492188 C 1.71875 -0.175781 2.1875 0 2.753906 0 L 3.375 0 L 3.375 -0.316406 C 2.679688 -0.328125 1.84375 -0.667969 2.25 -1.894531 L 2.792969 -3.523438 L 6.242188 -3.523438 L 7.0625 -1.429688 C 7.367188 -0.644531 6.808594 -0.378906 6.140625 -0.316406 L 6.140625 0 L 6.683594 0 C 7.304688 0 7.71875 -0.175781 7.933594 -0.492188 C 8.148438 -0.175781 8.605469 0 9.1875 0 L 9.566406 0 L 9.566406 -0.316406 C 8.84375 -0.53125 8.640625 -1.035156 8.351562 -1.71875 L 5.835938 -7.617188 C 5.648438 -8.0625 5.457031 -8.476562 5.535156 -8.921875 C 4.925781 -8.921875 4.5625 -8.640625 4.398438 -8.425781 C 4.183594 -8.742188 3.777344 -8.921875 3.476562 -8.921875 L 2.945312 -8.921875 L 2.945312 -8.605469 C 3.652344 -8.542969 3.917969 -8.0625 3.625 -7.339844 L 1.527344 -2.085938 C 1.023438 -0.820312 0.707031 -0.429688 0.152344 -0.316406 L 0.152344 0 Z M 4.484375 -7.746094 L 5.964844 -4.144531 L 3.019531 -4.144531 Z M 4.484375 -7.746094" transform="translate(253.03 231.382)"/></g></g></g><g fill="#5D3A30"><g><g><path d="M 4.433594 -4.925781 C 7.050781 -6.988281 8.328125 -8.011719 10.335938 -8.605469 L 10.335938 -8.921875 L 9.351562 -8.921875 C 8.515625 -8.921875 8.0625 -8.742188 7.71875 -8.425781 C 7.632812 -8.742188 7.203125 -8.921875 6.59375 -8.921875 L 5.785156 -8.921875 L 5.785156 -8.605469 C 6.570312 -8.476562 7.023438 -8.339844 7.023438 -7.984375 C 7.023438 -7.367188 4.523438 -5.292969 3.144531 -4.75 L 3.144531 -7.328125 C 3.144531 -8.175781 3.476562 -8.328125 4.699219 -8.605469 L 4.699219 -8.921875 L 3.726562 -8.921875 C 3.132812 -8.921875 2.691406 -8.742188 2.476562 -8.425781 C 2.261719 -8.742188 1.84375 -8.921875 1.226562 -8.921875 L 0.304688 -8.921875 L 0.304688 -8.605469 C 1.667969 -8.25 1.808594 -8.0625 1.808594 -7.390625 L 1.808594 -1.59375 C 1.808594 -0.949219 1.71875 -0.644531 0.277344 -0.316406 L 0.277344 0 L 1.226562 0 C 1.84375 0 2.261719 -0.175781 2.476562 -0.492188 C 2.691406 -0.175781 3.144531 0 3.726562 0 L 4.675781 0 L 4.675781 -0.316406 C 3.4375 -0.617188 3.144531 -0.746094 3.144531 -1.59375 L 3.144531 -4.421875 L 5.949219 -2.25 C 7.503906 -1.046875 8.085938 -0.65625 6.671875 -0.316406 L 6.671875 0 L 7.480469 0 C 8.113281 0 8.515625 -0.175781 8.605469 -0.492188 C 8.945312 -0.175781 9.425781 0 10.234375 0 L 11.03125 0 L 11.03125 -0.316406 C 10.625 -0.53125 9.855469 -0.847656 9.046875 -1.453125 Z M 4.433594 -4.925781" transform="translate(262.76 231.382)"/></g></g></g><g fill="#5D3A30"><g><g><path d="M 7.769531 0.238281 L 7.769531 0.101562 C 7.769531 -0.390625 7.554688 -0.667969 7.277344 -0.707031 C 7.605469 -1 7.769531 -1.363281 7.769531 -2.007812 L 7.769531 -2.476562 L 7.453125 -2.476562 C 6.910156 -0.683594 6.050781 -0.480469 4.976562 -0.480469 C 3.324219 -0.480469 3.109375 -1.0625 3.109375 -1.871094 L 3.109375 -4.421875 L 4.09375 -4.421875 C 5.09375 -4.421875 5.914062 -3.96875 6.039062 -2.980469 L 6.28125 -2.980469 L 6.28125 -3.410156 C 6.28125 -3.953125 6.101562 -4.433594 5.785156 -4.664062 C 6.101562 -4.878906 6.28125 -5.308594 6.28125 -5.914062 L 6.28125 -6.214844 L 6 -6.214844 C 5.964844 -5.382812 5.078125 -4.902344 4.308594 -4.902344 L 3.109375 -4.902344 L 3.109375 -7.289062 C 3.109375 -7.910156 3.222656 -8.464844 4.738281 -8.464844 C 6.050781 -8.464844 6.910156 -8.238281 7.453125 -6.445312 L 7.769531 -6.445312 L 7.769531 -6.925781 C 7.769531 -7.554688 7.605469 -7.921875 7.277344 -8.226562 C 7.617188 -8.261719 7.769531 -8.605469 7.769531 -9.019531 L 7.769531 -9.1875 L 7.453125 -9.1875 C 7.289062 -8.921875 7.125 -8.921875 6.785156 -8.921875 L 4.472656 -8.921875 C 3.476562 -8.921875 2.90625 -8.808594 2.5 -8.425781 C 2.285156 -8.742188 1.882812 -8.921875 1.25 -8.921875 L 0.304688 -8.921875 L 0.304688 -8.605469 C 1.527344 -8.492188 1.792969 -8.085938 1.792969 -7.328125 L 1.792969 -1.59375 C 1.792969 -0.847656 1.566406 -0.429688 0.289062 -0.316406 L 0.289062 0 L 1.25 0 C 1.882812 0 2.285156 -0.175781 2.5 -0.492188 C 2.804688 -0.175781 3.285156 0 4.285156 0 L 6.785156 0 C 7.125 0 7.289062 0 7.453125 0.238281 Z M 7.769531 0.238281" transform="translate(274.004 231.382)"/></g></g></g><g fill="#5D3A30"><g><g><path d="M 13.46875 -8.921875 C 12.925781 -8.921875 12.433594 -8.742188 12.21875 -8.425781 C 12.003906 -8.742188 11.597656 -8.921875 10.96875 -8.921875 L 10.765625 -8.921875 L 10.765625 -8.605469 C 11.246094 -8.402344 11.726562 -8.136719 11.726562 -7.519531 C 11.726562 -7.289062 11.664062 -6.988281 11.484375 -6.570312 L 9.351562 -1.605469 L 7.65625 -5.308594 L 7.707031 -5.433594 L 7.554688 -5.660156 L 8.046875 -6.785156 C 8.542969 -7.921875 8.742188 -8.328125 9.867188 -8.605469 L 9.867188 -8.921875 L 9.300781 -8.921875 C 8.757812 -8.921875 8.261719 -8.742188 8.046875 -8.425781 C 7.859375 -8.90625 7.378906 -8.921875 6.898438 -8.921875 C 6.355469 -8.921875 5.875 -8.769531 5.671875 -8.425781 C 5.457031 -8.742188 5.042969 -8.921875 4.421875 -8.921875 L 4.09375 -8.921875 L 4.09375 -8.605469 C 4.761719 -8.425781 4.863281 -8.210938 5.066406 -7.785156 L 6.621094 -4.449219 L 5.421875 -1.605469 L 2.78125 -7.316406 C 2.664062 -7.570312 2.550781 -7.820312 2.550781 -8.011719 C 2.550781 -8.289062 2.765625 -8.402344 3.222656 -8.605469 L 3.222656 -8.921875 L 3.03125 -8.921875 C 2.453125 -8.921875 1.996094 -8.742188 1.78125 -8.425781 C 1.566406 -8.742188 1.148438 -8.921875 0.53125 -8.921875 L 0.140625 -8.921875 L 0.140625 -8.605469 C 0.832031 -8.425781 0.921875 -8.210938 1.125 -7.785156 L 4.851562 0.140625 L 5.28125 0.140625 L 6.960938 -3.726562 L 8.769531 0.140625 L 9.222656 0.140625 L 12.621094 -7.746094 C 12.835938 -8.226562 13.066406 -8.390625 13.746094 -8.605469 L 13.746094 -8.921875 Z M 7.050781 -8.605469 C 7.429688 -8.605469 7.570312 -8.226562 7.570312 -7.769531 C 7.570312 -7.339844 7.46875 -6.9375 7.316406 -6.570312 L 7.203125 -6.292969 L 6.722656 -7.328125 C 6.59375 -7.59375 6.519531 -7.898438 6.519531 -8.0625 C 6.519531 -8.363281 6.683594 -8.605469 7.050781 -8.605469 Z M 7.050781 -8.605469" transform="translate(286.26 231.382)"/></g></g></g><g fill="#5D3A30"><g><g><path d="M 4.664062 -8.921875 L 3.738281 -8.921875 C 3.160156 -8.921875 2.703125 -8.742188 2.488281 -8.425781 C 2.273438 -8.742188 1.84375 -8.921875 1.238281 -8.921875 L 0.304688 -8.921875 L 0.304688 -8.605469 C 1.363281 -8.414062 1.792969 -8.238281 1.792969 -7.328125 L 1.792969 -1.59375 C 1.792969 -0.859375 1.566406 -0.519531 0.289062 -0.316406 L 0.289062 0 L 1.238281 0 C 1.832031 0 2.273438 -0.175781 2.488281 -0.492188 C 2.703125 -0.175781 3.144531 0 3.738281 0 L 4.636719 0 L 4.636719 -0.316406 C 3.410156 -0.519531 3.109375 -0.796875 3.109375 -1.59375 L 3.109375 -7.328125 C 3.109375 -8.226562 3.5 -8.414062 4.664062 -8.605469 Z M 4.664062 -8.921875" transform="translate(300.147 231.382)"/></g></g></g><g fill="#5D3A30"><g><g><path d="M 3.550781 0 C 4.167969 0 4.585938 -0.175781 4.800781 -0.492188 C 5.015625 -0.175781 5.496094 0 6.050781 0 L 7.265625 0 L 7.265625 -0.226562 C 5.472656 -0.554688 5.484375 -0.933594 5.484375 -1.59375 L 5.484375 -6.910156 C 5.484375 -7.46875 5.523438 -8.476562 6.9375 -8.476562 C 7.503906 -8.476562 8.441406 -8.25 8.933594 -6.445312 L 9.25 -6.445312 L 9.25 -6.925781 C 9.25 -7.390625 9.1875 -7.847656 8.757812 -8.226562 C 9.070312 -8.261719 9.25 -8.554688 9.25 -9.019531 L 9.25 -9.1875 L 8.933594 -9.1875 C 8.78125 -8.921875 8.605469 -8.921875 8.261719 -8.921875 L 1.339844 -8.921875 C 1 -8.921875 0.820312 -8.921875 0.667969 -9.1875 L 0.355469 -9.1875 L 0.355469 -9.019531 C 0.355469 -8.554688 0.53125 -8.261719 0.847656 -8.226562 C 0.417969 -7.847656 0.355469 -7.390625 0.355469 -6.925781 L 0.355469 -6.445312 L 0.667969 -6.445312 C 1.164062 -8.25 2.097656 -8.476562 2.664062 -8.476562 C 4.082031 -8.476562 4.117188 -7.46875 4.117188 -6.910156 L 4.117188 -1.59375 C 4.117188 -0.871094 4.054688 -0.554688 2.335938 -0.226562 L 2.335938 0 Z M 3.550781 0" transform="translate(305.112 231.382)"/></g></g></g><g fill="#5D3A30"><g><g><path d="M 9.1875 -7.328125 C 9.1875 -8.25 9.640625 -8.414062 10.664062 -8.679688 L 10.664062 -8.921875 L 9.753906 -8.921875 C 9.136719 -8.921875 8.71875 -8.742188 8.503906 -8.425781 C 8.289062 -8.742188 7.820312 -8.921875 7.253906 -8.921875 L 6.304688 -8.921875 L 6.304688 -8.679688 C 7.503906 -8.402344 7.859375 -8.199219 7.859375 -7.328125 L 7.859375 -4.914062 L 3.09375 -4.914062 L 3.09375 -7.328125 C 3.09375 -8.164062 3.425781 -8.402344 4.648438 -8.679688 L 4.648438 -8.921875 L 3.726562 -8.921875 C 3.144531 -8.921875 2.691406 -8.742188 2.476562 -8.425781 C 2.261719 -8.742188 1.832031 -8.921875 1.226562 -8.921875 L 0.289062 -8.921875 L 0.289062 -8.679688 C 1.414062 -8.402344 1.78125 -8.175781 1.78125 -7.328125 L 1.78125 -1.59375 C 1.78125 -0.820312 1.503906 -0.519531 0.277344 -0.238281 L 0.277344 0 L 1.226562 0 C 1.820312 0 2.261719 -0.175781 2.476562 -0.492188 C 2.691406 -0.175781 3.132812 0 3.726562 0 L 4.625 0 L 4.625 -0.238281 C 3.5625 -0.503906 3.09375 -0.65625 3.09375 -1.59375 L 3.09375 -4.257812 L 7.859375 -4.257812 L 7.859375 -1.59375 C 7.859375 -0.785156 7.605469 -0.554688 6.355469 -0.238281 L 6.355469 0 L 7.253906 0 C 7.820312 0 8.289062 -0.175781 8.503906 -0.492188 C 8.71875 -0.175781 9.136719 0 9.753906 0 L 10.675781 0 L 10.675781 -0.238281 C 9.324219 -0.554688 9.1875 -0.898438 9.1875 -1.59375 Z M 9.1875 -7.328125" transform="translate(314.715 231.382)"/></g></g></g><g fill="#5D3A30"><g><g><path d="M 7.859375 -2.476562 L 7.542969 -2.476562 C 7.050781 -0.832031 6.292969 -0.503906 5.191406 -0.480469 C 3.601562 -0.441406 3.132812 -0.820312 3.132812 -1.757812 L 3.132812 -7.328125 C 3.132812 -8.125 3.386719 -8.300781 4.6875 -8.605469 L 4.6875 -8.921875 L 3.714844 -8.921875 C 3.132812 -8.921875 2.679688 -8.742188 2.464844 -8.425781 C 2.25 -8.742188 1.832031 -8.921875 1.214844 -8.921875 L 0.304688 -8.921875 L 0.304688 -8.605469 C 1.65625 -8.261719 1.808594 -8.074219 1.808594 -7.328125 L 1.808594 -1.84375 C 1.808594 -0.933594 1.667969 -0.644531 0.289062 -0.316406 L 0.289062 0 L 1.214844 0 C 1.832031 0 2.25 -0.175781 2.464844 -0.492188 C 2.679688 -0.175781 3.132812 0 3.714844 0 L 6.859375 0 C 7.214844 0 7.390625 0 7.542969 0.238281 L 7.859375 0.238281 L 7.859375 0.101562 C 7.859375 -0.378906 7.683594 -0.65625 7.367188 -0.707031 C 7.695312 -0.984375 7.859375 -1.363281 7.859375 -2.007812 Z M 7.859375 -2.476562" transform="translate(329.46 231.382)"/></g></g></g><g fill="#5D3A30"><g><g><path d="M 5.320312 0.140625 C 8.210938 0.140625 10.257812 -1.78125 10.257812 -4.511719 C 10.257812 -7.125 8.277344 -9.070312 5.558594 -9.070312 C 2.714844 -9.070312 0.617188 -7.152344 0.617188 -4.523438 C 0.617188 -1.820312 2.578125 0.140625 5.320312 0.140625 Z M 5.597656 -0.378906 C 3.613281 -0.378906 2.109375 -2.5 2.109375 -5.242188 C 2.109375 -7.277344 3.335938 -8.566406 5.371094 -8.566406 C 7.253906 -8.566406 8.769531 -6.378906 8.769531 -3.714844 C 8.769531 -1.65625 7.542969 -0.378906 5.597656 -0.378906 Z M 5.597656 -0.378906" transform="translate(337.673 231.382)"/></g></g></g><g fill="#5D3A30"><g><g><path d="M 5.191406 0.140625 L 8.59375 -7.746094 C 8.78125 -8.175781 9.097656 -8.554688 9.703125 -8.605469 L 9.703125 -8.921875 L 9.386719 -8.921875 C 8.808594 -8.921875 8.351562 -8.742188 8.136719 -8.425781 C 7.921875 -8.742188 7.480469 -8.921875 6.886719 -8.921875 L 6.40625 -8.921875 L 6.40625 -8.605469 C 7.238281 -8.425781 7.695312 -8.148438 7.695312 -7.519531 C 7.695312 -7.355469 7.632812 -6.972656 7.453125 -6.570312 L 5.320312 -1.605469 L 2.855469 -6.875 C 2.691406 -7.226562 2.601562 -7.53125 2.601562 -7.746094 C 2.601562 -8.300781 3.058594 -8.566406 3.789062 -8.605469 L 3.789062 -8.921875 L 3.007812 -8.921875 C 2.4375 -8.921875 1.972656 -8.742188 1.757812 -8.425781 C 1.542969 -8.742188 1.125 -8.921875 0.503906 -8.921875 L 0.152344 -8.921875 L 0.152344 -8.605469 C 0.847656 -8.425781 0.949219 -8.136719 1.113281 -7.785156 L 4.839844 0.140625 Z M 5.191406 0.140625" transform="translate(348.552 231.382)"/></g></g></g><g fill="#5D3A30"><g><g><path d="M 7.769531 0.238281 L 7.769531 0.101562 C 7.769531 -0.390625 7.554688 -0.667969 7.277344 -0.707031 C 7.605469 -1 7.769531 -1.363281 7.769531 -2.007812 L 7.769531 -2.476562 L 7.453125 -2.476562 C 6.910156 -0.683594 6.050781 -0.480469 4.976562 -0.480469 C 3.324219 -0.480469 3.109375 -1.0625 3.109375 -1.871094 L 3.109375 -4.421875 L 4.09375 -4.421875 C 5.09375 -4.421875 5.914062 -3.96875 6.039062 -2.980469 L 6.28125 -2.980469 L 6.28125 -3.410156 C 6.28125 -3.953125 6.101562 -4.433594 5.785156 -4.664062 C 6.101562 -4.878906 6.28125 -5.308594 6.28125 -5.914062 L 6.28125 -6.214844 L 6 -6.214844 C 5.964844 -5.382812 5.078125 -4.902344 4.308594 -4.902344 L 3.109375 -4.902344 L 3.109375 -7.289062 C 3.109375 -7.910156 3.222656 -8.464844 4.738281 -8.464844 C 6.050781 -8.464844 6.910156 -8.238281 7.453125 -6.445312 L 7.769531 -6.445312 L 7.769531 -6.925781 C 7.769531 -7.554688 7.605469 -7.921875 7.277344 -8.226562 C 7.617188 -8.261719 7.769531 -8.605469 7.769531 -9.019531 L 7.769531 -9.1875 L 7.453125 -9.1875 C 7.289062 -8.921875 7.125 -8.921875 6.785156 -8.921875 L 4.472656 -8.921875 C 3.476562 -8.921875 2.90625 -8.808594 2.5 -8.425781 C 2.285156 -8.742188 1.882812 -8.921875 1.25 -8.921875 L 0.304688 -8.921875 L 0.304688 -8.605469 C 1.527344 -8.492188 1.792969 -8.085938 1.792969 -7.328125 L 1.792969 -1.59375 C 1.792969 -0.847656 1.566406 -0.429688 0.289062 -0.316406 L 0.289062 0 L 1.25 0 C 1.882812 0 2.285156 -0.175781 2.5 -0.492188 C 2.804688 -0.175781 3.285156 0 4.285156 0 L 6.785156 0 C 7.125 0 7.289062 0 7.453125 0.238281 Z M 7.769531 0.238281" transform="translate(358.407 231.382)"/></g></g></g></svg>