<svg xmlns="http://www.w3.org/2000/svg" width="375" viewBox="0 0 375 375" height="375" version="1.0"><g fill="#5D3A30"><g><g><path d="M 22.773438 -1.386719 C 21.695312 -1.386719 19.078125 -3.230469 19.078125 -13.234375 L 19.078125 -58.777344 L 34.621094 -58.777344 C 65.703125 -58.777344 76.472656 -69.394531 76.472656 -84.167969 C 76.472656 -99.09375 65.703125 -109.710938 34.621094 -109.710938 C 25.695312 -109.710938 15.078125 -108.171875 6 -108.015625 L 4.617188 -108.015625 L 4.617188 -106.632812 C 5.539062 -106.632812 8.15625 -104.941406 8.15625 -94.785156 L 8.15625 -13.234375 C 8.15625 -3.230469 5.539062 -1.386719 4.617188 -1.386719 L 4.617188 0 L 22.773438 0 Z M 19.078125 -60.164062 L 19.078125 -107.554688 C 24.464844 -108.015625 29.695312 -108.480469 34.621094 -108.480469 C 47.855469 -108.480469 65.703125 -103.246094 65.703125 -84.167969 C 65.703125 -65.242188 47.855469 -60.007812 34.621094 -60.007812 L 34.621094 -60.164062 Z M 19.078125 -60.164062" transform="translate(-2.619 216.51)"/></g></g></g><g fill="#5D3A30"><g><g><path d="M 72.011719 -16.464844 C 74.78125 -7.847656 74.933594 -1.386719 73.859375 -1.386719 L 73.859375 0 L 91.859375 0 L 91.859375 -1.386719 C 89.550781 -1.386719 85.707031 -10.769531 81.707031 -22.3125 L 52.316406 -108.015625 L 40.621094 -108.015625 L 43.546875 -99.554688 L 16.15625 -19.386719 C 11.386719 -5.539062 6.925781 -1.386719 4.617188 -1.386719 L 4.617188 0 L 17.695312 0 L 17.695312 -1.386719 C 13.695312 -1.386719 13.386719 -7.230469 17.542969 -18.925781 L 25.082031 -41.390625 C 27.234375 -47.390625 34.929688 -48.777344 40.46875 -48.316406 C 55.546875 -46.777344 66.164062 -33.699219 70.78125 -20.15625 Z M 44.316406 -97.398438 L 66.933594 -31.542969 C 61.085938 -40.929688 52.007812 -48.46875 40.46875 -49.546875 C 36.003906 -50.007812 30.3125 -49.238281 26.773438 -46.007812 Z M 44.316406 -97.398438" transform="translate(78.47 216.51)"/></g></g></g><g fill="#5D3A30"><g><g><path d="M 48.625 -59.546875 C 68.933594 -62.472656 76.320312 -71.859375 76.320312 -84.167969 C 76.320312 -99.09375 65.703125 -109.710938 34.46875 -109.710938 C 25.542969 -109.710938 15.078125 -108.171875 6 -108.015625 L 4.617188 -108.015625 L 4.617188 -106.632812 C 5.539062 -106.632812 8.15625 -104.941406 8.15625 -94.785156 L 8.15625 -13.234375 C 8.15625 -3.230469 5.539062 -1.386719 4.617188 -1.386719 L 4.617188 0 L 22.617188 0 L 22.617188 -1.386719 C 21.695312 -1.386719 19.078125 -3.230469 19.078125 -13.234375 L 19.078125 -58.777344 L 36.46875 -58.777344 L 59.855469 -18.3125 C 65.550781 -8.460938 67.855469 -1.386719 66.625 -1.386719 L 66.625 0 L 84.628906 0 L 84.628906 -1.386719 C 82.320312 -1.386719 77.242188 -10.15625 70.472656 -21.695312 Z M 19.078125 -107.554688 C 24.464844 -108.015625 29.695312 -108.480469 34.46875 -108.480469 C 47.855469 -108.480469 65.550781 -103.246094 65.550781 -84.167969 C 65.550781 -65.242188 47.855469 -60.007812 34.46875 -60.007812 L 19.078125 -60.007812 Z M 19.078125 -107.554688" transform="translate(174.944 216.51)"/></g></g></g><g fill="#5D3A30"><g><g><path d="M 22.773438 -108.015625 L 4.617188 -108.015625 L 4.617188 -106.632812 C 5.539062 -106.632812 8.15625 -104.941406 8.15625 -94.785156 L 8.15625 -13.234375 C 8.15625 -3.230469 5.539062 -1.386719 4.617188 -1.386719 L 4.617188 0 L 22.773438 0 L 22.773438 -1.386719 C 21.695312 -1.386719 19.078125 -3.230469 19.078125 -13.234375 L 19.078125 -94.785156 C 19.078125 -104.941406 21.695312 -106.632812 22.773438 -106.632812 Z M 22.773438 -108.015625" transform="translate(264.187 216.51)"/></g></g></g><g fill="#5D3A30"><g><g><path d="M 48.929688 1.230469 C 65.550781 1.230469 79.859375 -9.695312 79.859375 -26.621094 C 79.859375 -44.007812 65.085938 -53.394531 49.085938 -59.085938 C 34.773438 -64.164062 19.078125 -73.703125 19.078125 -88.628906 C 19.078125 -103.554688 36.929688 -108.015625 43.699219 -108.015625 C 67.085938 -108.015625 74.628906 -75.859375 74.628906 -75.859375 L 76.011719 -75.859375 L 79.703125 -89.398438 C 73.703125 -100.015625 64.625 -109.402344 43.699219 -109.402344 C 26.925781 -109.402344 12.769531 -98.476562 12.769531 -81.550781 C 12.769531 -64.164062 27.542969 -54.777344 43.546875 -49.085938 C 57.703125 -44.007812 73.394531 -34.3125 73.394531 -19.386719 C 73.394531 -4.460938 55.699219 0 48.929688 0 C 25.542969 0 9.539062 -36.929688 9.539062 -36.929688 L 8.308594 -36.929688 L 4.617188 -23.234375 C 10.617188 -12.617188 28.003906 1.230469 48.929688 1.230469 Z M 48.929688 1.230469" transform="translate(291.575 216.51)"/></g></g></g></svg>