<svg xmlns="http://www.w3.org/2000/svg" width="375" viewBox="0 0 375 375" height="375" version="1.0"><g fill="#FFF"><g><g><path d="M 30.484375 7.933594 C 43.566406 22.546875 59.851562 30.621094 79.476562 31.179688 C 101.609375 31.597656 119.980469 22.828125 134.734375 6.261719 C 147.542969 -8.351562 156.449219 -25.332031 164.105469 -43.011719 C 170.367188 -57.484375 174.960938 -72.65625 180.390625 -87.550781 C 186.933594 -105.785156 194.171875 -123.601562 204.191406 -140.023438 C 205.304688 -141.835938 206.558594 -142.808594 208.644531 -143.226562 C 217.136719 -145.035156 225.488281 -147.679688 232.726562 -152.832031 C 234.394531 -153.945312 235.648438 -154.222656 237.597656 -153.664062 C 262.234375 -146.707031 287.429688 -142.671875 313.179688 -142.53125 C 325.566406 -142.390625 337.816406 -142.808594 349.925781 -145.871094 C 356.605469 -147.542969 363.148438 -149.90625 368.15625 -155.058594 C 368.714844 -155.476562 369.828125 -155.753906 369.273438 -156.726562 C 368.855469 -157.703125 367.742188 -157.839844 366.765625 -157.425781 C 364.816406 -156.867188 362.589844 -156.449219 360.640625 -155.335938 C 355.214844 -151.996094 349.507812 -149.351562 343.105469 -148.097656 C 334.054688 -146.148438 324.871094 -145.59375 315.542969 -145.59375 C 294.25 -145.316406 273.089844 -147.960938 252.351562 -152.691406 C 247.203125 -153.804688 242.191406 -155.195312 237.039062 -156.589844 C 237.457031 -157.144531 237.597656 -157.425781 237.875 -157.839844 C 242.191406 -163.828125 239.6875 -169.253906 232.308594 -170.230469 C 226.183594 -171.066406 220.894531 -168.699219 216.300781 -165.078125 C 214.214844 -163.410156 212.542969 -163.132812 210.316406 -164.105469 C 209.898438 -164.246094 209.480469 -164.246094 209.203125 -164.382812 C 193.890625 -168.835938 178.582031 -172.316406 162.714844 -173.011719 C 143.085938 -173.847656 124.019531 -170.785156 105.367188 -165.078125 C 63.332031 -152.136719 32.570312 -125.96875 12.945312 -86.855469 C 5.148438 -71.265625 2.644531 -54.839844 6.542969 -37.71875 C 10.300781 -20.320312 18.789062 -5.289062 30.484375 7.933594 Z M 229.941406 -166.890625 C 231.890625 -167.585938 233.003906 -166.609375 233.421875 -164.941406 C 233.980469 -162.574219 233.003906 -160.625 231.613281 -158.816406 C 231.195312 -158.398438 230.777344 -158.257812 230.21875 -158.539062 C 227.160156 -159.371094 224.097656 -160.347656 220.753906 -161.320312 C 223.679688 -163.964844 226.601562 -165.777344 229.941406 -166.890625 Z M 217.414062 -158.121094 C 217.832031 -158.539062 218.25 -159.09375 219.222656 -158.816406 C 222.285156 -157.980469 225.488281 -157.007812 229.105469 -156.03125 C 222.984375 -151.019531 216.164062 -149.074219 209.0625 -147.125 C 211.570312 -151.019531 214.351562 -154.640625 217.414062 -158.121094 Z M 19.625 -88.105469 C 41.339844 -129.308594 74.882812 -154.917969 120.261719 -165.359375 C 132.507812 -168.140625 145.035156 -169.953125 157.5625 -170.089844 C 170.089844 -170.230469 182.339844 -167.863281 194.449219 -165.21875 C 200.015625 -163.964844 205.445312 -162.574219 211.152344 -160.902344 C 208.785156 -158.121094 206.558594 -155.613281 204.46875 -153.109375 C 203.636719 -152.136719 202.523438 -151.019531 201.964844 -149.769531 C 199.738281 -145.316406 195.980469 -144.0625 191.246094 -143.644531 C 179.277344 -142.53125 167.308594 -141.277344 155.335938 -139.886719 C 136.824219 -137.660156 119.148438 -132.925781 103.558594 -122.210938 C 86.019531 -110.238281 74.050781 -94.230469 68.898438 -73.492188 C 66.949219 -65.835938 67.925781 -58.179688 70.011719 -50.664062 C 70.429688 -49.550781 70.988281 -48.578125 71.40625 -47.464844 C 71.820312 -46.488281 72.796875 -45.933594 73.769531 -46.488281 C 74.605469 -46.90625 73.769531 -47.601562 73.632812 -48.300781 C 71.542969 -59.296875 72.101562 -70.152344 76.277344 -80.589844 C 87.273438 -107.734375 107.453125 -124.714844 135.433594 -132.789062 C 148.097656 -136.40625 161.042969 -137.660156 174.128906 -138.773438 C 180.53125 -139.328125 186.933594 -140.023438 193.335938 -140.722656 C 194.03125 -140.722656 194.726562 -140.722656 195.703125 -140.859375 C 194.308594 -138.355469 193.058594 -136.128906 191.804688 -133.902344 C 184.148438 -120.957031 179.136719 -106.757812 173.847656 -92.699219 C 168.003906 -77.113281 163.546875 -60.824219 157.144531 -45.375 C 149.90625 -27.976562 141.554688 -11.273438 129.585938 3.339844 C 117.476562 18.511719 101.75 27.28125 82.402344 28.535156 C 68.480469 29.367188 55.816406 25.195312 45.097656 16.285156 C 24.636719 -0.835938 12.386719 -22.546875 10.578125 -49.550781 C 9.742188 -63.332031 13.222656 -76.136719 19.625 -88.105469 Z M 19.625 -88.105469" transform="translate(7.93 255.405)"/></g></g></g><g fill="#FFF"><g><g><path d="M 84.765625 -21.714844 C 76.972656 -17.675781 69.734375 -12.945312 63.191406 -7.097656 C 54.5625 0.558594 47.046875 9.324219 39.25 17.816406 C 35.214844 22.269531 30.898438 26.585938 25.609375 29.507812 C 22.6875 31.316406 21.15625 30.484375 20.738281 27.28125 C 20.601562 26.308594 20.601562 25.332031 20.738281 24.359375 C 21.019531 22.410156 21.433594 20.460938 21.992188 18.652344 C 24.496094 10.4375 28.117188 2.644531 32.152344 -5.011719 C 35.910156 -12.386719 39.808594 -19.765625 43.566406 -27.140625 C 45.238281 -30.34375 46.488281 -33.960938 47.183594 -37.441406 C 48.160156 -41.757812 46.210938 -43.984375 41.757812 -43.984375 C 39.25 -43.84375 37.164062 -42.730469 35.074219 -41.480469 C 28.535156 -37.164062 22.828125 -31.597656 17.121094 -26.308594 C 12.804688 -22.269531 8.628906 -17.957031 3.617188 -14.476562 C 3.757812 -18.652344 4.734375 -22.6875 6.125 -26.445312 C 11.273438 -40.644531 17.121094 -54.5625 23.800781 -68.0625 C 27.839844 -76.832031 32.429688 -85.183594 37.023438 -93.535156 C 46.070312 -109.960938 55.816406 -126.105469 66.117188 -141.695312 C 68.621094 -145.453125 70.847656 -149.492188 72.9375 -153.527344 C 73.910156 -155.476562 73.492188 -156.171875 71.40625 -156.867188 C 68.898438 -157.703125 67.089844 -157.144531 65.417969 -154.78125 C 62.078125 -149.90625 58.738281 -145.175781 55.535156 -140.441406 C 43.984375 -122.90625 33.265625 -104.949219 23.664062 -86.4375 C 15.589844 -70.570312 7.933594 -54.5625 1.390625 -38 C -1.53125 -30.761719 -3.898438 -23.382812 -4.175781 -15.589844 C -4.453125 -10.996094 -2.085938 -8.90625 2.367188 -9.324219 C 4.035156 -9.464844 5.429688 -10.160156 6.820312 -11.136719 C 8.210938 -12.386719 9.605469 -13.5 10.855469 -14.753906 C 17.398438 -20.878906 23.664062 -27.28125 30.484375 -32.988281 C 33.40625 -35.355469 36.328125 -37.859375 39.808594 -39.25 C 40.503906 -38.277344 40.085938 -37.441406 39.667969 -36.605469 C 38.972656 -34.796875 38.136719 -32.847656 37.304688 -31.039062 C 34.242188 -24.078125 30.066406 -17.816406 26.722656 -11.136719 C 22.546875 -3.203125 18.511719 4.59375 16.285156 13.222656 C 15.171875 17.816406 14.058594 22.410156 15.3125 27.28125 C 16.285156 31.179688 18.375 32.847656 22.410156 32.847656 C 25.609375 32.988281 28.394531 31.734375 30.761719 29.785156 C 33.683594 27.699219 36.328125 25.332031 38.835938 22.828125 C 45.238281 16.285156 51.640625 9.882812 58.042969 3.203125 C 67.089844 -5.984375 76.695312 -14.335938 87.96875 -20.601562 C 88.664062 -21.019531 89.636719 -21.296875 89.359375 -22.410156 C 87.132812 -22.828125 87.132812 -22.828125 84.765625 -21.714844 Z M 84.765625 -21.714844" transform="translate(196.773 255.405)"/></g></g></g><g fill="#FFF"><g><g><path d="M 26.722656 5.707031 C 39.808594 0.835938 66.8125 -19.765625 92.839844 -23.246094 C 92.003906 -25.054688 90.753906 -25.054688 89.636719 -25.054688 C 66.949219 -22.546875 37.164062 -2.921875 28.394531 1.253906 C 24.496094 3.0625 20.460938 4.316406 16.007812 4.734375 C 12.804688 5.011719 9.882812 4.316406 7.65625 1.671875 C 2.367188 -5.148438 1.949219 -12.25 5.429688 -19.902344 C 6.125 -21.433594 6.960938 -22.269531 8.90625 -21.714844 C 11.554688 -21.019531 14.199219 -21.15625 16.84375 -21.992188 C 22.269531 -23.800781 26.722656 -27.140625 30.761719 -31.039062 C 31.457031 -31.734375 31.875 -32.429688 32.292969 -33.265625 C 33.40625 -35.492188 32.988281 -37.71875 30.898438 -39.25 C 27.558594 -41.617188 23.941406 -43.011719 19.902344 -41.757812 C 9.464844 -38.695312 1.53125 -32.570312 -2.367188 -22.132812 C -4.734375 -15.726562 -4.035156 -9.605469 -0.695312 -4.035156 C 6.125 7.097656 14.199219 10.4375 26.722656 5.707031 Z M 26.445312 -36.46875 C 24.777344 -31.316406 15.726562 -25.609375 10.160156 -26.167969 C 12.386719 -31.039062 21.433594 -36.746094 26.445312 -36.46875 Z M 26.445312 -36.46875" transform="translate(282.22 255.405)"/></g></g></g><g fill="#5D3A30"><g><g><path d="M 30.484375 7.933594 C 43.566406 22.546875 59.851562 30.621094 79.476562 31.179688 C 101.609375 31.597656 119.980469 22.828125 134.734375 6.261719 C 147.542969 -8.351562 156.449219 -25.332031 164.105469 -43.011719 C 170.367188 -57.484375 174.960938 -72.65625 180.390625 -87.550781 C 186.933594 -105.785156 194.171875 -123.601562 204.191406 -140.023438 C 205.304688 -141.835938 206.558594 -142.808594 208.644531 -143.226562 C 217.136719 -145.035156 225.488281 -147.679688 232.726562 -152.832031 C 234.394531 -153.945312 235.648438 -154.222656 237.597656 -153.664062 C 262.234375 -146.707031 287.429688 -142.671875 313.179688 -142.53125 C 325.566406 -142.390625 337.816406 -142.808594 349.925781 -145.871094 C 356.605469 -147.542969 363.148438 -149.90625 368.15625 -155.058594 C 368.714844 -155.476562 369.828125 -155.753906 369.273438 -156.726562 C 368.855469 -157.703125 367.742188 -157.839844 366.765625 -157.425781 C 364.816406 -156.867188 362.589844 -156.449219 360.640625 -155.335938 C 355.214844 -151.996094 349.507812 -149.351562 343.105469 -148.097656 C 334.054688 -146.148438 324.871094 -145.59375 315.542969 -145.59375 C 294.25 -145.316406 273.089844 -147.960938 252.351562 -152.691406 C 247.203125 -153.804688 242.191406 -155.195312 237.039062 -156.589844 C 237.457031 -157.144531 237.597656 -157.425781 237.875 -157.839844 C 242.191406 -163.828125 239.6875 -169.253906 232.308594 -170.230469 C 226.183594 -171.066406 220.894531 -168.699219 216.300781 -165.078125 C 214.214844 -163.410156 212.542969 -163.132812 210.316406 -164.105469 C 209.898438 -164.246094 209.480469 -164.246094 209.203125 -164.382812 C 193.890625 -168.835938 178.582031 -172.316406 162.714844 -173.011719 C 143.085938 -173.847656 124.019531 -170.785156 105.367188 -165.078125 C 63.332031 -152.136719 32.570312 -125.96875 12.945312 -86.855469 C 5.148438 -71.265625 2.644531 -54.839844 6.542969 -37.71875 C 10.300781 -20.320312 18.789062 -5.289062 30.484375 7.933594 Z M 229.941406 -166.890625 C 231.890625 -167.585938 233.003906 -166.609375 233.421875 -164.941406 C 233.980469 -162.574219 233.003906 -160.625 231.613281 -158.816406 C 231.195312 -158.398438 230.777344 -158.257812 230.21875 -158.539062 C 227.160156 -159.371094 224.097656 -160.347656 220.753906 -161.320312 C 223.679688 -163.964844 226.601562 -165.777344 229.941406 -166.890625 Z M 217.414062 -158.121094 C 217.832031 -158.539062 218.25 -159.09375 219.222656 -158.816406 C 222.285156 -157.980469 225.488281 -157.007812 229.105469 -156.03125 C 222.984375 -151.019531 216.164062 -149.074219 209.0625 -147.125 C 211.570312 -151.019531 214.351562 -154.640625 217.414062 -158.121094 Z M 19.625 -88.105469 C 41.339844 -129.308594 74.882812 -154.917969 120.261719 -165.359375 C 132.507812 -168.140625 145.035156 -169.953125 157.5625 -170.089844 C 170.089844 -170.230469 182.339844 -167.863281 194.449219 -165.21875 C 200.015625 -163.964844 205.445312 -162.574219 211.152344 -160.902344 C 208.785156 -158.121094 206.558594 -155.613281 204.46875 -153.109375 C 203.636719 -152.136719 202.523438 -151.019531 201.964844 -149.769531 C 199.738281 -145.316406 195.980469 -144.0625 191.246094 -143.644531 C 179.277344 -142.53125 167.308594 -141.277344 155.335938 -139.886719 C 136.824219 -137.660156 119.148438 -132.925781 103.558594 -122.210938 C 86.019531 -110.238281 74.050781 -94.230469 68.898438 -73.492188 C 66.949219 -65.835938 67.925781 -58.179688 70.011719 -50.664062 C 70.429688 -49.550781 70.988281 -48.578125 71.40625 -47.464844 C 71.820312 -46.488281 72.796875 -45.933594 73.769531 -46.488281 C 74.605469 -46.90625 73.769531 -47.601562 73.632812 -48.300781 C 71.542969 -59.296875 72.101562 -70.152344 76.277344 -80.589844 C 87.273438 -107.734375 107.453125 -124.714844 135.433594 -132.789062 C 148.097656 -136.40625 161.042969 -137.660156 174.128906 -138.773438 C 180.53125 -139.328125 186.933594 -140.023438 193.335938 -140.722656 C 194.03125 -140.722656 194.726562 -140.722656 195.703125 -140.859375 C 194.308594 -138.355469 193.058594 -136.128906 191.804688 -133.902344 C 184.148438 -120.957031 179.136719 -106.757812 173.847656 -92.699219 C 168.003906 -77.113281 163.546875 -60.824219 157.144531 -45.375 C 149.90625 -27.976562 141.554688 -11.273438 129.585938 3.339844 C 117.476562 18.511719 101.75 27.28125 82.402344 28.535156 C 68.480469 29.367188 55.816406 25.195312 45.097656 16.285156 C 24.636719 -0.835938 12.386719 -22.546875 10.578125 -49.550781 C 9.742188 -63.332031 13.222656 -76.136719 19.625 -88.105469 Z M 19.625 -88.105469" transform="translate(2.137 253.523)"/></g></g></g><g fill="#5D3A30"><g><g><path d="M 84.765625 -21.714844 C 76.972656 -17.675781 69.734375 -12.945312 63.191406 -7.097656 C 54.5625 0.558594 47.046875 9.324219 39.25 17.816406 C 35.214844 22.269531 30.898438 26.585938 25.609375 29.507812 C 22.6875 31.316406 21.15625 30.484375 20.738281 27.28125 C 20.601562 26.308594 20.601562 25.332031 20.738281 24.359375 C 21.019531 22.410156 21.433594 20.460938 21.992188 18.652344 C 24.496094 10.4375 28.117188 2.644531 32.152344 -5.011719 C 35.910156 -12.386719 39.808594 -19.765625 43.566406 -27.140625 C 45.238281 -30.34375 46.488281 -33.960938 47.183594 -37.441406 C 48.160156 -41.757812 46.210938 -43.984375 41.757812 -43.984375 C 39.25 -43.84375 37.164062 -42.730469 35.074219 -41.480469 C 28.535156 -37.164062 22.828125 -31.597656 17.121094 -26.308594 C 12.804688 -22.269531 8.628906 -17.957031 3.617188 -14.476562 C 3.757812 -18.652344 4.734375 -22.6875 6.125 -26.445312 C 11.273438 -40.644531 17.121094 -54.5625 23.800781 -68.0625 C 27.839844 -76.832031 32.429688 -85.183594 37.023438 -93.535156 C 46.070312 -109.960938 55.816406 -126.105469 66.117188 -141.695312 C 68.621094 -145.453125 70.847656 -149.492188 72.9375 -153.527344 C 73.910156 -155.476562 73.492188 -156.171875 71.40625 -156.867188 C 68.898438 -157.703125 67.089844 -157.144531 65.417969 -154.78125 C 62.078125 -149.90625 58.738281 -145.175781 55.535156 -140.441406 C 43.984375 -122.90625 33.265625 -104.949219 23.664062 -86.4375 C 15.589844 -70.570312 7.933594 -54.5625 1.390625 -38 C -1.53125 -30.761719 -3.898438 -23.382812 -4.175781 -15.589844 C -4.453125 -10.996094 -2.085938 -8.90625 2.367188 -9.324219 C 4.035156 -9.464844 5.429688 -10.160156 6.820312 -11.136719 C 8.210938 -12.386719 9.605469 -13.5 10.855469 -14.753906 C 17.398438 -20.878906 23.664062 -27.28125 30.484375 -32.988281 C 33.40625 -35.355469 36.328125 -37.859375 39.808594 -39.25 C 40.503906 -38.277344 40.085938 -37.441406 39.667969 -36.605469 C 38.972656 -34.796875 38.136719 -32.847656 37.304688 -31.039062 C 34.242188 -24.078125 30.066406 -17.816406 26.722656 -11.136719 C 22.546875 -3.203125 18.511719 4.59375 16.285156 13.222656 C 15.171875 17.816406 14.058594 22.410156 15.3125 27.28125 C 16.285156 31.179688 18.375 32.847656 22.410156 32.847656 C 25.609375 32.988281 28.394531 31.734375 30.761719 29.785156 C 33.683594 27.699219 36.328125 25.332031 38.835938 22.828125 C 45.238281 16.285156 51.640625 9.882812 58.042969 3.203125 C 67.089844 -5.984375 76.695312 -14.335938 87.96875 -20.601562 C 88.664062 -21.019531 89.636719 -21.296875 89.359375 -22.410156 C 87.132812 -22.828125 87.132812 -22.828125 84.765625 -21.714844 Z M 84.765625 -21.714844" transform="translate(190.981 253.523)"/></g></g></g><g fill="#5D3A30"><g><g><path d="M 26.722656 5.707031 C 39.808594 0.835938 66.8125 -19.765625 92.839844 -23.246094 C 92.003906 -25.054688 90.753906 -25.054688 89.636719 -25.054688 C 66.949219 -22.546875 37.164062 -2.921875 28.394531 1.253906 C 24.496094 3.0625 20.460938 4.316406 16.007812 4.734375 C 12.804688 5.011719 9.882812 4.316406 7.65625 1.671875 C 2.367188 -5.148438 1.949219 -12.25 5.429688 -19.902344 C 6.125 -21.433594 6.960938 -22.269531 8.90625 -21.714844 C 11.554688 -21.019531 14.199219 -21.15625 16.84375 -21.992188 C 22.269531 -23.800781 26.722656 -27.140625 30.761719 -31.039062 C 31.457031 -31.734375 31.875 -32.429688 32.292969 -33.265625 C 33.40625 -35.492188 32.988281 -37.71875 30.898438 -39.25 C 27.558594 -41.617188 23.941406 -43.011719 19.902344 -41.757812 C 9.464844 -38.695312 1.53125 -32.570312 -2.367188 -22.132812 C -4.734375 -15.726562 -4.035156 -9.605469 -0.695312 -4.035156 C 6.125 7.097656 14.199219 10.4375 26.722656 5.707031 Z M 26.445312 -36.46875 C 24.777344 -31.316406 15.726562 -25.609375 10.160156 -26.167969 C 12.386719 -31.039062 21.433594 -36.746094 26.445312 -36.46875 Z M 26.445312 -36.46875" transform="translate(276.427 253.523)"/></g></g></g></svg>