<svg xmlns="http://www.w3.org/2000/svg" width="375" viewBox="0 0 375 375" height="375" version="1.0"><g fill="#5D3A30"><g><g><path d="M 8.59375 -0.523438 C 8.1875 -0.523438 7.199219 -1.21875 7.199219 -4.992188 L 7.199219 -22.175781 L 13.0625 -22.175781 C 24.789062 -22.175781 28.851562 -26.183594 28.851562 -31.753906 C 28.851562 -37.386719 24.789062 -41.394531 13.0625 -41.394531 C 9.695312 -41.394531 5.6875 -40.8125 2.265625 -40.753906 L 1.742188 -40.753906 L 1.742188 -40.230469 C 2.089844 -40.230469 3.078125 -39.59375 3.078125 -35.761719 L 3.078125 -4.992188 C 3.078125 -1.21875 2.089844 -0.523438 1.742188 -0.523438 L 1.742188 0 L 8.59375 0 Z M 7.199219 -22.699219 L 7.199219 -40.578125 C 9.230469 -40.753906 11.203125 -40.929688 13.0625 -40.929688 C 18.054688 -40.929688 24.789062 -38.953125 24.789062 -31.753906 C 24.789062 -24.613281 18.054688 -22.640625 13.0625 -22.640625 L 13.0625 -22.699219 Z M 7.199219 -22.699219" transform="translate(198.55 156.32)"/></g></g></g><g fill="#5D3A30"><g><g><path d="M 27.167969 -6.210938 C 28.214844 -2.960938 28.273438 -0.523438 27.867188 -0.523438 L 27.867188 0 L 34.660156 0 L 34.660156 -0.523438 C 33.789062 -0.523438 32.335938 -4.0625 30.828125 -8.417969 L 19.738281 -40.753906 L 15.328125 -40.753906 L 16.429688 -37.5625 L 6.09375 -7.316406 C 4.296875 -2.089844 2.613281 -0.523438 1.742188 -0.523438 L 1.742188 0 L 6.675781 0 L 6.675781 -0.523438 C 5.167969 -0.523438 5.050781 -2.730469 6.617188 -7.140625 L 9.460938 -15.617188 C 10.277344 -17.878906 13.179688 -18.402344 15.269531 -18.230469 C 20.957031 -17.648438 24.964844 -12.714844 26.703125 -7.605469 Z M 16.71875 -36.75 L 25.253906 -11.902344 C 23.046875 -15.441406 19.621094 -18.285156 15.269531 -18.695312 C 13.585938 -18.867188 11.4375 -18.578125 10.101562 -17.359375 Z M 16.71875 -36.75" transform="translate(229.143 156.32)"/></g></g></g><g fill="#5D3A30"><g><g><path d="M 18.34375 -22.46875 C 26.007812 -23.570312 28.792969 -27.109375 28.792969 -31.753906 C 28.792969 -37.386719 24.789062 -41.394531 13.003906 -41.394531 C 9.636719 -41.394531 5.6875 -40.8125 2.265625 -40.753906 L 1.742188 -40.753906 L 1.742188 -40.230469 C 2.089844 -40.230469 3.078125 -39.59375 3.078125 -35.761719 L 3.078125 -4.992188 C 3.078125 -1.21875 2.089844 -0.523438 1.742188 -0.523438 L 1.742188 0 L 8.535156 0 L 8.535156 -0.523438 C 8.1875 -0.523438 7.199219 -1.21875 7.199219 -4.992188 L 7.199219 -22.175781 L 13.757812 -22.175781 L 22.582031 -6.910156 C 24.730469 -3.191406 25.601562 -0.523438 25.136719 -0.523438 L 25.136719 0 L 31.929688 0 L 31.929688 -0.523438 C 31.058594 -0.523438 29.144531 -3.832031 26.589844 -8.1875 Z M 7.199219 -40.578125 C 9.230469 -40.753906 11.203125 -40.929688 13.003906 -40.929688 C 18.054688 -40.929688 24.730469 -38.953125 24.730469 -31.753906 C 24.730469 -24.613281 18.054688 -22.640625 13.003906 -22.640625 L 7.199219 -22.640625 Z M 7.199219 -40.578125" transform="translate(265.542 156.32)"/></g></g></g><g fill="#5D3A30"><g><g><path d="M 8.59375 -40.753906 L 1.742188 -40.753906 L 1.742188 -40.230469 C 2.089844 -40.230469 3.078125 -39.59375 3.078125 -35.761719 L 3.078125 -4.992188 C 3.078125 -1.21875 2.089844 -0.523438 1.742188 -0.523438 L 1.742188 0 L 8.59375 0 L 8.59375 -0.523438 C 8.1875 -0.523438 7.199219 -1.21875 7.199219 -4.992188 L 7.199219 -35.761719 C 7.199219 -39.59375 8.1875 -40.230469 8.59375 -40.230469 Z M 8.59375 -40.753906" transform="translate(299.213 156.32)"/></g></g></g><g fill="#5D3A30"><g><g><path d="M 18.460938 0.464844 C 24.730469 0.464844 30.128906 -3.65625 30.128906 -10.042969 C 30.128906 -16.601562 24.558594 -20.144531 18.519531 -22.292969 C 13.121094 -24.207031 7.199219 -27.808594 7.199219 -33.4375 C 7.199219 -39.070312 13.933594 -40.753906 16.488281 -40.753906 C 25.3125 -40.753906 28.15625 -28.621094 28.15625 -28.621094 L 28.679688 -28.621094 L 30.070312 -33.730469 C 27.808594 -37.734375 24.382812 -41.277344 16.488281 -41.277344 C 10.160156 -41.277344 4.820312 -37.15625 4.820312 -30.769531 C 4.820312 -24.207031 10.390625 -20.667969 16.429688 -18.519531 C 21.769531 -16.601562 27.691406 -12.945312 27.691406 -7.316406 C 27.691406 -1.683594 21.015625 0 18.460938 0 C 9.636719 0 3.597656 -13.933594 3.597656 -13.933594 L 3.136719 -13.933594 L 1.742188 -8.765625 C 4.003906 -4.761719 10.566406 0.464844 18.460938 0.464844 Z M 18.460938 0.464844" transform="translate(309.546 156.32)"/></g></g></g><g fill="#5D3A30"><g><g><path d="M 2.496094 -15.152344 C 7.894531 5.050781 37.039062 4.933594 40.753906 -13.933594 L 40.289062 -14.050781 C 36.863281 3.25 11.84375 3.191406 6.617188 -16.253906 C 4.179688 -25.3125 7.199219 -37.269531 17.183594 -39.941406 C 25.542969 -42.148438 32.625 -35.933594 36.226562 -28.738281 L 36.75 -28.738281 L 38.082031 -33.84375 C 33.089844 -39.710938 25.019531 -42.554688 17.066406 -40.40625 C 6.039062 -37.445312 -0.464844 -26.183594 2.496094 -15.152344 Z M 2.496094 -15.152344" transform="translate(182.057 208.12)"/></g></g></g><g fill="#5D3A30"><g><g><path d="M 27.167969 -6.210938 C 28.214844 -2.960938 28.273438 -0.523438 27.867188 -0.523438 L 27.867188 0 L 34.660156 0 L 34.660156 -0.523438 C 33.789062 -0.523438 32.335938 -4.0625 30.828125 -8.417969 L 19.738281 -40.753906 L 15.328125 -40.753906 L 16.429688 -37.5625 L 6.09375 -7.316406 C 4.296875 -2.089844 2.613281 -0.523438 1.742188 -0.523438 L 1.742188 0 L 6.675781 0 L 6.675781 -0.523438 C 5.167969 -0.523438 5.050781 -2.730469 6.617188 -7.140625 L 9.460938 -15.617188 C 10.277344 -17.878906 13.179688 -18.402344 15.269531 -18.230469 C 20.957031 -17.648438 24.964844 -12.714844 26.703125 -7.605469 Z M 16.71875 -36.75 L 25.253906 -11.902344 C 23.046875 -15.441406 19.621094 -18.285156 15.269531 -18.695312 C 13.585938 -18.867188 11.4375 -18.578125 10.101562 -17.359375 Z M 16.71875 -36.75" transform="translate(224.551 208.12)"/></g></g></g><g fill="#5D3A30"><g><g><path d="M 16.835938 -27.285156 L 23.105469 -33.554688 C 25.949219 -36.398438 30.535156 -40.230469 33.730469 -40.230469 L 33.730469 -40.753906 L 24.441406 -40.753906 L 24.441406 -40.230469 C 27.980469 -40.230469 26.761719 -37.96875 22.875 -34.019531 L 7.199219 -18.402344 L 7.199219 -35.761719 C 7.199219 -39.59375 8.1875 -40.230469 8.59375 -40.230469 L 8.59375 -40.753906 L 1.742188 -40.753906 L 1.742188 -40.230469 C 2.089844 -40.230469 3.078125 -39.59375 3.078125 -35.761719 L 3.078125 -4.992188 C 3.078125 -1.21875 2.089844 -0.523438 1.742188 -0.523438 L 1.742188 0 L 8.59375 0 L 8.59375 -0.523438 C 8.1875 -0.523438 7.199219 -1.21875 7.199219 -4.992188 L 7.199219 -17.707031 L 13.757812 -24.207031 L 24.441406 -5.28125 C 26.703125 -1.335938 26.53125 -0.523438 25.949219 -0.523438 L 25.949219 0 L 33.207031 0 L 33.207031 -0.523438 C 32.511719 -0.523438 31.058594 -2.089844 28.621094 -6.328125 Z M 16.835938 -27.285156" transform="translate(260.95 208.12)"/></g></g></g><g fill="#5D3A30"><g><g><path d="M 2.496094 -15.09375 C 7.894531 5.109375 37.039062 4.992188 40.8125 -13.875 L 40.289062 -13.992188 C 36.863281 3.308594 11.84375 3.25 6.617188 -16.195312 C 6.039062 -18.285156 5.804688 -20.492188 5.804688 -22.699219 L 7.023438 -22.699219 C 16.3125 -22.699219 26.472656 -20.492188 26.472656 -20.492188 L 26.996094 -20.492188 L 26.996094 -25.425781 L 26.472656 -25.425781 C 26.472656 -25.425781 16.3125 -23.222656 7.023438 -23.222656 L 5.863281 -23.222656 C 6.09375 -30.535156 9.695312 -37.851562 17.183594 -39.882812 C 25.601562 -42.089844 32.625 -35.878906 36.226562 -28.679688 L 36.75 -28.679688 L 38.140625 -33.789062 C 33.148438 -39.652344 25.019531 -42.496094 17.066406 -40.347656 C 6.09375 -37.386719 -0.464844 -26.125 2.496094 -15.09375 Z M 2.496094 -15.09375" transform="translate(296.42 208.12)"/></g></g></g><g fill="#5D3A30"><g><g><path d="M 18.460938 0.464844 C 24.730469 0.464844 30.128906 -3.65625 30.128906 -10.042969 C 30.128906 -16.601562 24.558594 -20.144531 18.519531 -22.292969 C 13.121094 -24.207031 7.199219 -27.808594 7.199219 -33.4375 C 7.199219 -39.070312 13.933594 -40.753906 16.488281 -40.753906 C 25.3125 -40.753906 28.15625 -28.621094 28.15625 -28.621094 L 28.679688 -28.621094 L 30.070312 -33.730469 C 27.808594 -37.734375 24.382812 -41.277344 16.488281 -41.277344 C 10.160156 -41.277344 4.820312 -37.15625 4.820312 -30.769531 C 4.820312 -24.207031 10.390625 -20.667969 16.429688 -18.519531 C 21.769531 -16.601562 27.691406 -12.945312 27.691406 -7.316406 C 27.691406 -1.683594 21.015625 0 18.460938 0 C 9.636719 0 3.597656 -13.933594 3.597656 -13.933594 L 3.136719 -13.933594 L 1.742188 -8.765625 C 4.003906 -4.761719 10.566406 0.464844 18.460938 0.464844 Z M 18.460938 0.464844" transform="translate(338.973 208.12)"/></g></g></g><g fill="#FFF"><g><g><path d="M 13.195312 3.433594 C 18.859375 9.761719 25.90625 13.253906 34.402344 13.496094 C 43.980469 13.675781 51.933594 9.882812 58.320312 2.710938 C 63.863281 -3.613281 67.71875 -10.964844 71.035156 -18.617188 C 73.746094 -24.882812 75.734375 -31.449219 78.082031 -37.898438 C 80.914062 -45.789062 84.046875 -53.5 88.386719 -60.609375 C 88.867188 -61.394531 89.410156 -61.816406 90.3125 -61.996094 C 93.988281 -62.78125 97.605469 -63.925781 100.738281 -66.152344 C 101.460938 -66.636719 102.003906 -66.757812 102.847656 -66.515625 C 113.511719 -63.503906 124.414062 -61.757812 135.5625 -61.695312 C 140.925781 -61.636719 146.226562 -61.816406 151.46875 -63.140625 C 154.359375 -63.863281 157.191406 -64.890625 159.359375 -67.117188 C 159.601562 -67.300781 160.082031 -67.417969 159.84375 -67.839844 C 159.660156 -68.261719 159.179688 -68.324219 158.757812 -68.140625 C 157.914062 -67.902344 156.949219 -67.71875 156.105469 -67.238281 C 153.757812 -65.792969 151.285156 -64.648438 148.515625 -64.105469 C 144.597656 -63.261719 140.621094 -63.019531 136.585938 -63.019531 C 127.367188 -62.902344 118.210938 -64.046875 109.234375 -66.09375 C 107.003906 -66.574219 104.835938 -67.179688 102.605469 -67.78125 C 102.785156 -68.023438 102.847656 -68.140625 102.964844 -68.324219 C 104.835938 -70.914062 103.75 -73.261719 100.558594 -73.683594 C 97.90625 -74.046875 95.617188 -73.023438 93.628906 -71.457031 C 92.722656 -70.734375 92 -70.613281 91.039062 -71.035156 C 90.855469 -71.09375 90.675781 -71.09375 90.554688 -71.15625 C 83.929688 -73.082031 77.300781 -74.589844 70.433594 -74.890625 C 61.9375 -75.25 53.683594 -73.925781 45.609375 -71.457031 C 27.414062 -65.851562 14.097656 -54.527344 5.601562 -37.597656 C 2.230469 -30.847656 1.144531 -23.738281 2.832031 -16.328125 C 4.457031 -8.796875 8.132812 -2.289062 13.195312 3.433594 Z M 99.53125 -72.238281 C 100.375 -72.539062 100.859375 -72.117188 101.039062 -71.394531 C 101.28125 -70.371094 100.859375 -69.527344 100.253906 -68.746094 C 100.074219 -68.5625 99.894531 -68.503906 99.652344 -68.625 C 98.328125 -68.984375 97.003906 -69.40625 95.554688 -69.828125 C 96.820312 -70.972656 98.085938 -71.757812 99.53125 -72.238281 Z M 94.109375 -68.445312 C 94.289062 -68.625 94.472656 -68.867188 94.894531 -68.746094 C 96.21875 -68.382812 97.605469 -67.960938 99.171875 -67.539062 C 96.519531 -65.371094 93.566406 -64.527344 90.496094 -63.683594 C 91.578125 -65.371094 92.785156 -66.9375 94.109375 -68.445312 Z M 8.496094 -38.136719 C 17.894531 -55.972656 32.414062 -67.058594 52.054688 -71.578125 C 57.359375 -72.78125 62.78125 -73.566406 68.203125 -73.625 C 73.625 -73.683594 78.925781 -72.660156 84.167969 -71.515625 C 86.578125 -70.972656 88.929688 -70.371094 91.398438 -69.648438 C 90.375 -68.445312 89.410156 -67.359375 88.507812 -66.273438 C 88.144531 -65.851562 87.664062 -65.371094 87.421875 -64.828125 C 86.457031 -62.902344 84.832031 -62.359375 82.78125 -62.175781 C 77.601562 -61.695312 72.421875 -61.152344 67.238281 -60.550781 C 59.226562 -59.585938 51.574219 -57.539062 44.824219 -52.898438 C 37.234375 -47.71875 32.054688 -40.789062 29.824219 -31.8125 C 28.980469 -28.5 29.402344 -25.183594 30.304688 -21.929688 C 30.488281 -21.449219 30.726562 -21.027344 30.90625 -20.546875 C 31.089844 -20.125 31.511719 -19.882812 31.933594 -20.125 C 32.292969 -20.304688 31.933594 -20.605469 31.871094 -20.90625 C 30.96875 -25.667969 31.210938 -30.367188 33.015625 -34.882812 C 37.777344 -46.632812 46.511719 -53.984375 58.621094 -57.476562 C 64.105469 -59.042969 69.707031 -59.585938 75.371094 -60.070312 C 78.144531 -60.308594 80.914062 -60.609375 83.6875 -60.914062 C 83.988281 -60.914062 84.289062 -60.914062 84.710938 -60.972656 C 84.109375 -59.886719 83.566406 -58.925781 83.023438 -57.960938 C 79.710938 -52.355469 77.542969 -46.210938 75.25 -40.125 C 72.722656 -33.378906 70.792969 -26.328125 68.023438 -19.640625 C 64.890625 -12.109375 61.273438 -4.878906 56.09375 1.445312 C 50.851562 8.011719 44.042969 11.808594 35.667969 12.351562 C 29.644531 12.710938 24.160156 10.90625 19.519531 7.050781 C 10.664062 -0.363281 5.363281 -9.761719 4.578125 -21.449219 C 4.21875 -27.414062 5.722656 -32.957031 8.496094 -38.136719 Z M 8.496094 -38.136719" transform="translate(3.3 198.629)"/></g></g></g><g fill="#FFF"><g><g><path d="M 36.691406 -9.398438 C 33.316406 -7.652344 30.183594 -5.601562 27.351562 -3.074219 C 23.617188 0.242188 20.363281 4.035156 16.992188 7.710938 C 15.242188 9.640625 13.375 11.507812 11.085938 12.773438 C 9.820312 13.554688 9.15625 13.195312 8.976562 11.808594 C 8.917969 11.386719 8.917969 10.964844 8.976562 10.542969 C 9.097656 9.699219 9.277344 8.855469 9.519531 8.074219 C 10.605469 4.519531 12.171875 1.144531 13.917969 -2.167969 C 15.542969 -5.363281 17.230469 -8.554688 18.859375 -11.75 C 19.582031 -13.132812 20.125 -14.699219 20.425781 -16.207031 C 20.847656 -18.074219 20.003906 -19.039062 18.074219 -19.039062 C 16.992188 -18.980469 16.085938 -18.496094 15.183594 -17.953125 C 12.351562 -16.085938 9.882812 -13.675781 7.410156 -11.386719 C 5.542969 -9.640625 3.734375 -7.773438 1.566406 -6.265625 C 1.625 -8.074219 2.046875 -9.820312 2.652344 -11.449219 C 4.878906 -17.59375 7.410156 -23.617188 10.300781 -29.460938 C 12.050781 -33.257812 14.039062 -36.871094 16.027344 -40.488281 C 19.941406 -47.597656 24.160156 -54.585938 28.617188 -61.335938 C 29.703125 -62.960938 30.667969 -64.707031 31.570312 -66.457031 C 31.992188 -67.300781 31.8125 -67.601562 30.90625 -67.902344 C 29.824219 -68.261719 29.039062 -68.023438 28.316406 -66.996094 C 26.871094 -64.890625 25.425781 -62.839844 24.039062 -60.792969 C 19.039062 -53.199219 14.398438 -45.429688 10.242188 -37.414062 C 6.746094 -30.546875 3.433594 -23.617188 0.601562 -16.449219 C -0.664062 -13.316406 -1.6875 -10.121094 -1.808594 -6.746094 C -1.929688 -4.757812 -0.902344 -3.855469 1.023438 -4.035156 C 1.746094 -4.097656 2.351562 -4.398438 2.953125 -4.820312 C 3.554688 -5.363281 4.15625 -5.84375 4.699219 -6.386719 C 7.53125 -9.039062 10.242188 -11.808594 13.195312 -14.277344 C 14.460938 -15.304688 15.726562 -16.386719 17.230469 -16.992188 C 17.53125 -16.570312 17.351562 -16.207031 17.171875 -15.84375 C 16.871094 -15.0625 16.507812 -14.21875 16.148438 -13.4375 C 14.820312 -10.421875 13.015625 -7.710938 11.566406 -4.820312 C 9.761719 -1.386719 8.011719 1.988281 7.050781 5.722656 C 6.566406 7.710938 6.085938 9.699219 6.628906 11.808594 C 7.050781 13.496094 7.953125 14.21875 9.699219 14.21875 C 11.085938 14.277344 12.289062 13.738281 13.316406 12.894531 C 14.582031 11.988281 15.726562 10.964844 16.808594 9.882812 C 19.582031 7.050781 22.351562 4.277344 25.125 1.386719 C 29.039062 -2.589844 33.199219 -6.207031 38.078125 -8.917969 C 38.378906 -9.097656 38.800781 -9.21875 38.679688 -9.699219 C 37.714844 -9.882812 37.714844 -9.882812 36.691406 -9.398438 Z M 36.691406 -9.398438" transform="translate(85.042 198.629)"/></g></g></g><g fill="#FFF"><g><g><path d="M 11.566406 2.46875 C 17.230469 0.363281 28.917969 -8.554688 40.1875 -10.0625 C 39.824219 -10.84375 39.28125 -10.84375 38.800781 -10.84375 C 28.980469 -9.761719 16.085938 -1.265625 12.289062 0.542969 C 10.605469 1.324219 8.855469 1.867188 6.929688 2.046875 C 5.542969 2.167969 4.277344 1.867188 3.3125 0.722656 C 1.023438 -2.230469 0.84375 -5.300781 2.351562 -8.617188 C 2.652344 -9.277344 3.011719 -9.640625 3.855469 -9.398438 C 5 -9.097656 6.144531 -9.15625 7.289062 -9.519531 C 9.640625 -10.300781 11.566406 -11.75 13.316406 -13.4375 C 13.617188 -13.738281 13.796875 -14.039062 13.976562 -14.398438 C 14.460938 -15.363281 14.277344 -16.328125 13.375 -16.992188 C 11.929688 -18.015625 10.363281 -18.617188 8.617188 -18.074219 C 4.097656 -16.75 0.664062 -14.097656 -1.023438 -9.578125 C -2.046875 -6.808594 -1.746094 -4.15625 -0.300781 -1.746094 C 2.652344 3.074219 6.144531 4.519531 11.566406 2.46875 Z M 11.449219 -15.785156 C 10.722656 -13.554688 6.808594 -11.085938 4.398438 -11.328125 C 5.363281 -13.4375 9.277344 -15.90625 11.449219 -15.785156 Z M 11.449219 -15.785156" transform="translate(122.028 198.629)"/></g></g></g><g fill="#5D3A30"><g><g><path d="M 13.195312 3.433594 C 18.859375 9.761719 25.90625 13.253906 34.402344 13.496094 C 43.980469 13.675781 51.933594 9.882812 58.320312 2.710938 C 63.863281 -3.613281 67.71875 -10.964844 71.035156 -18.617188 C 73.746094 -24.882812 75.734375 -31.449219 78.082031 -37.898438 C 80.914062 -45.789062 84.046875 -53.5 88.386719 -60.609375 C 88.867188 -61.394531 89.410156 -61.816406 90.3125 -61.996094 C 93.988281 -62.78125 97.605469 -63.925781 100.738281 -66.152344 C 101.460938 -66.636719 102.003906 -66.757812 102.847656 -66.515625 C 113.511719 -63.503906 124.414062 -61.757812 135.5625 -61.695312 C 140.925781 -61.636719 146.226562 -61.816406 151.46875 -63.140625 C 154.359375 -63.863281 157.191406 -64.890625 159.359375 -67.117188 C 159.601562 -67.300781 160.082031 -67.417969 159.84375 -67.839844 C 159.660156 -68.261719 159.179688 -68.324219 158.757812 -68.140625 C 157.914062 -67.902344 156.949219 -67.71875 156.105469 -67.238281 C 153.757812 -65.792969 151.285156 -64.648438 148.515625 -64.105469 C 144.597656 -63.261719 140.621094 -63.019531 136.585938 -63.019531 C 127.367188 -62.902344 118.210938 -64.046875 109.234375 -66.09375 C 107.003906 -66.574219 104.835938 -67.179688 102.605469 -67.78125 C 102.785156 -68.023438 102.847656 -68.140625 102.964844 -68.324219 C 104.835938 -70.914062 103.75 -73.261719 100.558594 -73.683594 C 97.90625 -74.046875 95.617188 -73.023438 93.628906 -71.457031 C 92.722656 -70.734375 92 -70.613281 91.039062 -71.035156 C 90.855469 -71.09375 90.675781 -71.09375 90.554688 -71.15625 C 83.929688 -73.082031 77.300781 -74.589844 70.433594 -74.890625 C 61.9375 -75.25 53.683594 -73.925781 45.609375 -71.457031 C 27.414062 -65.851562 14.097656 -54.527344 5.601562 -37.597656 C 2.230469 -30.847656 1.144531 -23.738281 2.832031 -16.328125 C 4.457031 -8.796875 8.132812 -2.289062 13.195312 3.433594 Z M 99.53125 -72.238281 C 100.375 -72.539062 100.859375 -72.117188 101.039062 -71.394531 C 101.28125 -70.371094 100.859375 -69.527344 100.253906 -68.746094 C 100.074219 -68.5625 99.894531 -68.503906 99.652344 -68.625 C 98.328125 -68.984375 97.003906 -69.40625 95.554688 -69.828125 C 96.820312 -70.972656 98.085938 -71.757812 99.53125 -72.238281 Z M 94.109375 -68.445312 C 94.289062 -68.625 94.472656 -68.867188 94.894531 -68.746094 C 96.21875 -68.382812 97.605469 -67.960938 99.171875 -67.539062 C 96.519531 -65.371094 93.566406 -64.527344 90.496094 -63.683594 C 91.578125 -65.371094 92.785156 -66.9375 94.109375 -68.445312 Z M 8.496094 -38.136719 C 17.894531 -55.972656 32.414062 -67.058594 52.054688 -71.578125 C 57.359375 -72.78125 62.78125 -73.566406 68.203125 -73.625 C 73.625 -73.683594 78.925781 -72.660156 84.167969 -71.515625 C 86.578125 -70.972656 88.929688 -70.371094 91.398438 -69.648438 C 90.375 -68.445312 89.410156 -67.359375 88.507812 -66.273438 C 88.144531 -65.851562 87.664062 -65.371094 87.421875 -64.828125 C 86.457031 -62.902344 84.832031 -62.359375 82.78125 -62.175781 C 77.601562 -61.695312 72.421875 -61.152344 67.238281 -60.550781 C 59.226562 -59.585938 51.574219 -57.539062 44.824219 -52.898438 C 37.234375 -47.71875 32.054688 -40.789062 29.824219 -31.8125 C 28.980469 -28.5 29.402344 -25.183594 30.304688 -21.929688 C 30.488281 -21.449219 30.726562 -21.027344 30.90625 -20.546875 C 31.089844 -20.125 31.511719 -19.882812 31.933594 -20.125 C 32.292969 -20.304688 31.933594 -20.605469 31.871094 -20.90625 C 30.96875 -25.667969 31.210938 -30.367188 33.015625 -34.882812 C 37.777344 -46.632812 46.511719 -53.984375 58.621094 -57.476562 C 64.105469 -59.042969 69.707031 -59.585938 75.371094 -60.070312 C 78.144531 -60.308594 80.914062 -60.609375 83.6875 -60.914062 C 83.988281 -60.914062 84.289062 -60.914062 84.710938 -60.972656 C 84.109375 -59.886719 83.566406 -58.925781 83.023438 -57.960938 C 79.710938 -52.355469 77.542969 -46.210938 75.25 -40.125 C 72.722656 -33.378906 70.792969 -26.328125 68.023438 -19.640625 C 64.890625 -12.109375 61.273438 -4.878906 56.09375 1.445312 C 50.851562 8.011719 44.042969 11.808594 35.667969 12.351562 C 29.644531 12.710938 24.160156 10.90625 19.519531 7.050781 C 10.664062 -0.363281 5.363281 -9.761719 4.578125 -21.449219 C 4.21875 -27.414062 5.722656 -32.957031 8.496094 -38.136719 Z M 8.496094 -38.136719" transform="translate(.792 197.814)"/></g></g></g><g fill="#5D3A30"><g><g><path d="M 36.691406 -9.398438 C 33.316406 -7.652344 30.183594 -5.601562 27.351562 -3.074219 C 23.617188 0.242188 20.363281 4.035156 16.992188 7.710938 C 15.242188 9.640625 13.375 11.507812 11.085938 12.773438 C 9.820312 13.554688 9.15625 13.195312 8.976562 11.808594 C 8.917969 11.386719 8.917969 10.964844 8.976562 10.542969 C 9.097656 9.699219 9.277344 8.855469 9.519531 8.074219 C 10.605469 4.519531 12.171875 1.144531 13.917969 -2.167969 C 15.542969 -5.363281 17.230469 -8.554688 18.859375 -11.75 C 19.582031 -13.132812 20.125 -14.699219 20.425781 -16.207031 C 20.847656 -18.074219 20.003906 -19.039062 18.074219 -19.039062 C 16.992188 -18.980469 16.085938 -18.496094 15.183594 -17.953125 C 12.351562 -16.085938 9.882812 -13.675781 7.410156 -11.386719 C 5.542969 -9.640625 3.734375 -7.773438 1.566406 -6.265625 C 1.625 -8.074219 2.046875 -9.820312 2.652344 -11.449219 C 4.878906 -17.59375 7.410156 -23.617188 10.300781 -29.460938 C 12.050781 -33.257812 14.039062 -36.871094 16.027344 -40.488281 C 19.941406 -47.597656 24.160156 -54.585938 28.617188 -61.335938 C 29.703125 -62.960938 30.667969 -64.707031 31.570312 -66.457031 C 31.992188 -67.300781 31.8125 -67.601562 30.90625 -67.902344 C 29.824219 -68.261719 29.039062 -68.023438 28.316406 -66.996094 C 26.871094 -64.890625 25.425781 -62.839844 24.039062 -60.792969 C 19.039062 -53.199219 14.398438 -45.429688 10.242188 -37.414062 C 6.746094 -30.546875 3.433594 -23.617188 0.601562 -16.449219 C -0.664062 -13.316406 -1.6875 -10.121094 -1.808594 -6.746094 C -1.929688 -4.757812 -0.902344 -3.855469 1.023438 -4.035156 C 1.746094 -4.097656 2.351562 -4.398438 2.953125 -4.820312 C 3.554688 -5.363281 4.15625 -5.84375 4.699219 -6.386719 C 7.53125 -9.039062 10.242188 -11.808594 13.195312 -14.277344 C 14.460938 -15.304688 15.726562 -16.386719 17.230469 -16.992188 C 17.53125 -16.570312 17.351562 -16.207031 17.171875 -15.84375 C 16.871094 -15.0625 16.507812 -14.21875 16.148438 -13.4375 C 14.820312 -10.421875 13.015625 -7.710938 11.566406 -4.820312 C 9.761719 -1.386719 8.011719 1.988281 7.050781 5.722656 C 6.566406 7.710938 6.085938 9.699219 6.628906 11.808594 C 7.050781 13.496094 7.953125 14.21875 9.699219 14.21875 C 11.085938 14.277344 12.289062 13.738281 13.316406 12.894531 C 14.582031 11.988281 15.726562 10.964844 16.808594 9.882812 C 19.582031 7.050781 22.351562 4.277344 25.125 1.386719 C 29.039062 -2.589844 33.199219 -6.207031 38.078125 -8.917969 C 38.378906 -9.097656 38.800781 -9.21875 38.679688 -9.699219 C 37.714844 -9.882812 37.714844 -9.882812 36.691406 -9.398438 Z M 36.691406 -9.398438" transform="translate(82.535 197.814)"/></g></g></g><g fill="#5D3A30"><g><g><path d="M 11.566406 2.46875 C 17.230469 0.363281 28.917969 -8.554688 40.1875 -10.0625 C 39.824219 -10.84375 39.28125 -10.84375 38.800781 -10.84375 C 28.980469 -9.761719 16.085938 -1.265625 12.289062 0.542969 C 10.605469 1.324219 8.855469 1.867188 6.929688 2.046875 C 5.542969 2.167969 4.277344 1.867188 3.3125 0.722656 C 1.023438 -2.230469 0.84375 -5.300781 2.351562 -8.617188 C 2.652344 -9.277344 3.011719 -9.640625 3.855469 -9.398438 C 5 -9.097656 6.144531 -9.15625 7.289062 -9.519531 C 9.640625 -10.300781 11.566406 -11.75 13.316406 -13.4375 C 13.617188 -13.738281 13.796875 -14.039062 13.976562 -14.398438 C 14.460938 -15.363281 14.277344 -16.328125 13.375 -16.992188 C 11.929688 -18.015625 10.363281 -18.617188 8.617188 -18.074219 C 4.097656 -16.75 0.664062 -14.097656 -1.023438 -9.578125 C -2.046875 -6.808594 -1.746094 -4.15625 -0.300781 -1.746094 C 2.652344 3.074219 6.144531 4.519531 11.566406 2.46875 Z M 11.449219 -15.785156 C 10.722656 -13.554688 6.808594 -11.085938 4.398438 -11.328125 C 5.363281 -13.4375 9.277344 -15.90625 11.449219 -15.785156 Z M 11.449219 -15.785156" transform="translate(119.52 197.814)"/></g></g></g><g fill="#5D3A30"><g><g><path d="M 9.425781 0.257812 L 9.425781 0.109375 C 9.425781 -0.40625 9.234375 -0.707031 8.894531 -0.757812 C 9.277344 -1.070312 9.425781 -1.492188 9.425781 -2.089844 L 9.425781 -2.65625 L 9.085938 -2.65625 C 8.285156 -0.730469 7.335938 -0.421875 5.898438 -0.421875 C 3.566406 -0.421875 2.386719 -2.632812 2.386719 -4.789062 C 2.386719 -6.945312 3.566406 -9.152344 5.898438 -9.152344 C 7.308594 -9.152344 8.285156 -8.84375 9.085938 -6.917969 L 9.425781 -6.917969 L 9.425781 -7.5 C 9.425781 -8.015625 9.316406 -8.449219 8.894531 -8.828125 C 9.207031 -8.855469 9.425781 -9.140625 9.425781 -9.683594 L 9.425781 -9.859375 L 9.085938 -9.859375 C 8.921875 -9.601562 8.773438 -9.519531 8.394531 -9.574219 C 7.757812 -9.667969 7.308594 -9.738281 6.429688 -9.738281 C 2.128906 -9.738281 0.730469 -7.433594 0.730469 -4.789062 C 0.730469 -1.871094 2.128906 0.164062 6.429688 0.164062 C 7.308594 0.164062 7.757812 0.09375 8.394531 0 C 8.789062 -0.0546875 8.921875 0.0273438 9.085938 0.257812 Z M 9.425781 0.257812" transform="translate(190.024 232.47)"/></g></g></g><g fill="#5D3A30"><g><g><path d="M 0.269531 0 C 0.949219 0 1.382812 -0.191406 1.613281 -0.527344 C 1.84375 -0.191406 2.347656 0 2.957031 0 L 3.621094 0 L 3.621094 -0.339844 C 2.875 -0.351562 1.980469 -0.71875 2.414062 -2.035156 L 2.996094 -3.785156 L 6.699219 -3.785156 L 7.582031 -1.53125 C 7.90625 -0.691406 7.308594 -0.40625 6.589844 -0.339844 L 6.589844 0 L 7.175781 0 C 7.839844 0 8.285156 -0.191406 8.515625 -0.527344 C 8.746094 -0.191406 9.234375 0 9.859375 0 L 10.265625 0 L 10.265625 -0.339844 C 9.492188 -0.570312 9.277344 -1.113281 8.964844 -1.84375 L 6.265625 -8.175781 C 6.0625 -8.652344 5.859375 -9.101562 5.941406 -9.574219 C 5.289062 -9.574219 4.894531 -9.277344 4.71875 -9.046875 C 4.488281 -9.382812 4.054688 -9.574219 3.730469 -9.574219 L 3.160156 -9.574219 L 3.160156 -9.234375 C 3.917969 -9.167969 4.203125 -8.652344 3.890625 -7.878906 L 1.640625 -2.238281 C 1.097656 -0.882812 0.757812 -0.460938 0.164062 -0.339844 L 0.164062 0 Z M 4.8125 -8.3125 L 6.402344 -4.449219 L 3.242188 -4.449219 Z M 4.8125 -8.3125" transform="translate(200.182 232.47)"/></g></g></g><g fill="#5D3A30"><g><g><path d="M 4.761719 -5.289062 C 7.566406 -7.5 8.9375 -8.597656 11.09375 -9.234375 L 11.09375 -9.574219 L 10.035156 -9.574219 C 9.140625 -9.574219 8.652344 -9.382812 8.285156 -9.046875 C 8.191406 -9.382812 7.730469 -9.574219 7.078125 -9.574219 L 6.210938 -9.574219 L 6.210938 -9.234375 C 7.050781 -9.101562 7.539062 -8.949219 7.539062 -8.570312 C 7.539062 -7.90625 4.855469 -5.683594 3.375 -5.097656 L 3.375 -7.867188 C 3.375 -8.773438 3.730469 -8.9375 5.046875 -9.234375 L 5.046875 -9.574219 L 4 -9.574219 C 3.363281 -9.574219 2.886719 -9.382812 2.65625 -9.046875 C 2.425781 -9.382812 1.980469 -9.574219 1.316406 -9.574219 L 0.324219 -9.574219 L 0.324219 -9.234375 C 1.789062 -8.855469 1.9375 -8.652344 1.9375 -7.933594 L 1.9375 -1.707031 C 1.9375 -1.015625 1.84375 -0.691406 0.296875 -0.339844 L 0.296875 0 L 1.316406 0 C 1.980469 0 2.425781 -0.191406 2.65625 -0.527344 C 2.886719 -0.191406 3.375 0 4 0 L 5.019531 0 L 5.019531 -0.339844 C 3.6875 -0.664062 3.375 -0.800781 3.375 -1.707031 L 3.375 -4.746094 L 6.386719 -2.414062 C 8.054688 -1.125 8.679688 -0.707031 7.160156 -0.339844 L 7.160156 0 L 8.027344 0 C 8.707031 0 9.140625 -0.191406 9.234375 -0.527344 C 9.601562 -0.191406 10.117188 0 10.984375 0 L 11.839844 0 L 11.839844 -0.339844 C 11.40625 -0.570312 10.578125 -0.910156 9.710938 -1.558594 Z M 4.761719 -5.289062" transform="translate(210.624 232.47)"/></g></g></g><g fill="#5D3A30"><g><g><path d="M 8.339844 0.257812 L 8.339844 0.109375 C 8.339844 -0.421875 8.109375 -0.71875 7.8125 -0.757812 C 8.164062 -1.070312 8.339844 -1.464844 8.339844 -2.15625 L 8.339844 -2.65625 L 8 -2.65625 C 7.417969 -0.730469 6.496094 -0.515625 5.34375 -0.515625 C 3.566406 -0.515625 3.335938 -1.140625 3.335938 -2.007812 L 3.335938 -4.746094 L 4.394531 -4.746094 C 5.464844 -4.746094 6.347656 -4.257812 6.484375 -3.199219 L 6.738281 -3.199219 L 6.738281 -3.660156 C 6.738281 -4.246094 6.550781 -4.761719 6.210938 -5.003906 C 6.550781 -5.234375 6.738281 -5.695312 6.738281 -6.347656 L 6.738281 -6.671875 L 6.441406 -6.671875 C 6.402344 -5.777344 5.453125 -5.261719 4.625 -5.261719 L 3.335938 -5.261719 L 3.335938 -7.824219 C 3.335938 -8.488281 3.457031 -9.085938 5.085938 -9.085938 C 6.496094 -9.085938 7.417969 -8.84375 8 -6.917969 L 8.339844 -6.917969 L 8.339844 -7.433594 C 8.339844 -8.109375 8.164062 -8.503906 7.8125 -8.828125 C 8.175781 -8.871094 8.339844 -9.234375 8.339844 -9.683594 L 8.339844 -9.859375 L 8 -9.859375 C 7.824219 -9.574219 7.648438 -9.574219 7.28125 -9.574219 L 4.800781 -9.574219 C 3.730469 -9.574219 3.121094 -9.453125 2.683594 -9.046875 C 2.453125 -9.382812 2.019531 -9.574219 1.34375 -9.574219 L 0.324219 -9.574219 L 0.324219 -9.234375 C 1.640625 -9.113281 1.925781 -8.679688 1.925781 -7.867188 L 1.925781 -1.707031 C 1.925781 -0.910156 1.683594 -0.460938 0.3125 -0.339844 L 0.3125 0 L 1.34375 0 C 2.019531 0 2.453125 -0.191406 2.683594 -0.527344 C 3.011719 -0.191406 3.527344 0 4.597656 0 L 7.28125 0 C 7.648438 0 7.824219 0 8 0.257812 Z M 8.339844 0.257812" transform="translate(222.694 232.47)"/></g></g></g><g fill="#5D3A30"><g><g><path d="M 0.894531 0.257812 C 1.113281 -0.0546875 1.207031 -0.0820312 1.734375 0.0273438 C 2.332031 0.148438 2.886719 0.164062 3.554688 0.164062 C 6.101562 0.164062 6.929688 -1.382812 6.929688 -2.589844 C 6.929688 -3.363281 6.605469 -3.933594 5.789062 -4.652344 C 4.789062 -5.53125 3.308594 -6.375 2.78125 -6.902344 C 2.5625 -7.121094 2.304688 -7.5 2.304688 -7.867188 C 2.304688 -8.367188 2.710938 -9.195312 3.839844 -9.195312 C 4.652344 -9.195312 5.914062 -8.816406 6.523438 -6.929688 L 6.863281 -6.929688 L 6.863281 -7.445312 C 6.863281 -7.960938 6.792969 -8.433594 6.332031 -8.84375 C 6.699219 -8.882812 6.863281 -9.25 6.863281 -9.695312 L 6.863281 -9.859375 L 6.523438 -9.859375 C 6.332031 -9.5625 6.238281 -9.507812 5.738281 -9.613281 C 5.355469 -9.695312 4.71875 -9.75 3.90625 -9.75 C 2.210938 -9.75 1.03125 -8.84375 1.03125 -7.390625 C 1.03125 -6.714844 1.261719 -6.277344 1.992188 -5.667969 C 2.710938 -5.070312 3.785156 -4.378906 4.691406 -3.605469 C 5.234375 -3.144531 5.507812 -2.523438 5.507812 -1.980469 C 5.507812 -1.140625 4.964844 -0.378906 3.785156 -0.378906 C 2.65625 -0.378906 1.992188 -0.785156 0.894531 -2.65625 L 0.554688 -2.65625 L 0.554688 -2.320312 C 0.554688 -1.546875 0.679688 -1.113281 1.085938 -0.757812 C 0.773438 -0.71875 0.554688 -0.433594 0.554688 0.109375 L 0.554688 0.257812 Z M 0.894531 0.257812" transform="translate(235.85 232.47)"/></g></g></g><g fill="#5D3A30"><g><g><path d="M 9.859375 -7.867188 C 9.859375 -8.855469 10.347656 -9.03125 11.445312 -9.316406 L 11.445312 -9.574219 L 10.46875 -9.574219 C 9.804688 -9.574219 9.359375 -9.382812 9.128906 -9.046875 C 8.894531 -9.382812 8.394531 -9.574219 7.785156 -9.574219 L 6.765625 -9.574219 L 6.765625 -9.316406 C 8.054688 -9.019531 8.433594 -8.800781 8.433594 -7.867188 L 8.433594 -5.277344 L 3.324219 -5.277344 L 3.324219 -7.867188 C 3.324219 -8.761719 3.675781 -9.019531 4.992188 -9.316406 L 4.992188 -9.574219 L 4 -9.574219 C 3.375 -9.574219 2.886719 -9.382812 2.65625 -9.046875 C 2.425781 -9.382812 1.964844 -9.574219 1.316406 -9.574219 L 0.3125 -9.574219 L 0.3125 -9.316406 C 1.519531 -9.019531 1.914062 -8.773438 1.914062 -7.867188 L 1.914062 -1.707031 C 1.914062 -0.882812 1.613281 -0.554688 0.296875 -0.257812 L 0.296875 0 L 1.316406 0 C 1.953125 0 2.425781 -0.191406 2.65625 -0.527344 C 2.886719 -0.191406 3.363281 0 4 0 L 4.964844 0 L 4.964844 -0.257812 C 3.824219 -0.542969 3.324219 -0.707031 3.324219 -1.707031 L 3.324219 -4.570312 L 8.433594 -4.570312 L 8.433594 -1.707031 C 8.433594 -0.839844 8.164062 -0.597656 6.820312 -0.257812 L 6.820312 0 L 7.785156 0 C 8.394531 0 8.894531 -0.191406 9.128906 -0.527344 C 9.359375 -0.191406 9.804688 0 10.46875 0 L 11.460938 0 L 11.460938 -0.257812 C 10.007812 -0.597656 9.859375 -0.960938 9.859375 -1.707031 Z M 9.859375 -7.867188" transform="translate(243.62 232.47)"/></g></g></g><g fill="#5D3A30"><g><g><path d="M 5.710938 0.148438 C 8.816406 0.148438 11.011719 -1.914062 11.011719 -4.839844 C 11.011719 -7.648438 8.882812 -9.738281 5.96875 -9.738281 C 2.914062 -9.738281 0.664062 -7.675781 0.664062 -4.855469 C 0.664062 -1.953125 2.765625 0.148438 5.710938 0.148438 Z M 6.007812 -0.40625 C 3.878906 -0.40625 2.265625 -2.683594 2.265625 -5.628906 C 2.265625 -7.8125 3.582031 -9.195312 5.765625 -9.195312 C 7.785156 -9.195312 9.410156 -6.847656 9.410156 -3.988281 C 9.410156 -1.777344 8.097656 -0.40625 6.007812 -0.40625 Z M 6.007812 -0.40625" transform="translate(255.378 232.47)"/></g></g></g><g fill="#5D3A30"><g><g><path d="M 1.316406 0 C 1.9375 0 2.414062 -0.175781 2.65625 -0.527344 C 2.886719 -0.191406 3.375 0 4 0 L 4.976562 0 L 4.976562 -0.339844 C 3.605469 -0.664062 3.375 -0.882812 3.375 -1.707031 L 3.375 -4.339844 L 5.046875 -4.339844 C 7.011719 -4.339844 8.707031 -5.519531 8.707031 -6.957031 C 8.707031 -8.503906 7.296875 -9.574219 5.152344 -9.574219 C 3.730469 -9.574219 3.050781 -9.410156 2.65625 -9.046875 C 2.414062 -9.398438 1.9375 -9.574219 1.316406 -9.574219 L 0.3125 -9.574219 L 0.3125 -9.234375 C 1.953125 -8.828125 1.953125 -8.488281 1.953125 -7.867188 L 1.953125 -1.707031 C 1.953125 -1.097656 1.953125 -0.730469 0.296875 -0.339844 L 0.296875 0 Z M 3.375 -7.742188 C 3.375 -8.488281 3.539062 -9.058594 4.894531 -9.058594 C 6.292969 -9.058594 7.066406 -8.300781 7.066406 -6.890625 C 7.066406 -5.683594 6.019531 -4.855469 4.460938 -4.855469 L 3.375 -4.855469 Z M 3.375 -7.742188" transform="translate(267.055 232.47)"/></g></g></g><g fill="#5D3A30"><g><g><path d="M 4.839844 -2.753906 L 4.839844 -3.863281 L 0.324219 -3.863281 L 0.324219 -2.753906 Z M 4.839844 -2.753906" transform="translate(280.291 232.47)"/></g></g></g><g fill="#5D3A30"><g><g><path d="M 0.894531 0.257812 C 1.113281 -0.0546875 1.207031 -0.0820312 1.734375 0.0273438 C 2.332031 0.148438 2.886719 0.164062 3.554688 0.164062 C 6.101562 0.164062 6.929688 -1.382812 6.929688 -2.589844 C 6.929688 -3.363281 6.605469 -3.933594 5.789062 -4.652344 C 4.789062 -5.53125 3.308594 -6.375 2.78125 -6.902344 C 2.5625 -7.121094 2.304688 -7.5 2.304688 -7.867188 C 2.304688 -8.367188 2.710938 -9.195312 3.839844 -9.195312 C 4.652344 -9.195312 5.914062 -8.816406 6.523438 -6.929688 L 6.863281 -6.929688 L 6.863281 -7.445312 C 6.863281 -7.960938 6.792969 -8.433594 6.332031 -8.84375 C 6.699219 -8.882812 6.863281 -9.25 6.863281 -9.695312 L 6.863281 -9.859375 L 6.523438 -9.859375 C 6.332031 -9.5625 6.238281 -9.507812 5.738281 -9.613281 C 5.355469 -9.695312 4.71875 -9.75 3.90625 -9.75 C 2.210938 -9.75 1.03125 -8.84375 1.03125 -7.390625 C 1.03125 -6.714844 1.261719 -6.277344 1.992188 -5.667969 C 2.710938 -5.070312 3.785156 -4.378906 4.691406 -3.605469 C 5.234375 -3.144531 5.507812 -2.523438 5.507812 -1.980469 C 5.507812 -1.140625 4.964844 -0.378906 3.785156 -0.378906 C 2.65625 -0.378906 1.992188 -0.785156 0.894531 -2.65625 L 0.554688 -2.65625 L 0.554688 -2.320312 C 0.554688 -1.546875 0.679688 -1.113281 1.085938 -0.757812 C 0.773438 -0.71875 0.554688 -0.433594 0.554688 0.109375 L 0.554688 0.257812 Z M 0.894531 0.257812" transform="translate(289.54 232.47)"/></g></g></g><g fill="#5D3A30"><g><g><path d="M 5.003906 -9.574219 L 4.015625 -9.574219 C 3.390625 -9.574219 2.902344 -9.382812 2.671875 -9.046875 C 2.441406 -9.382812 1.980469 -9.574219 1.328125 -9.574219 L 0.324219 -9.574219 L 0.324219 -9.234375 C 1.464844 -9.03125 1.925781 -8.84375 1.925781 -7.867188 L 1.925781 -1.707031 C 1.925781 -0.921875 1.683594 -0.554688 0.3125 -0.339844 L 0.3125 0 L 1.328125 0 C 1.964844 0 2.441406 -0.191406 2.671875 -0.527344 C 2.902344 -0.191406 3.375 0 4.015625 0 L 4.976562 0 L 4.976562 -0.339844 C 3.660156 -0.554688 3.335938 -0.855469 3.335938 -1.707031 L 3.335938 -7.867188 C 3.335938 -8.828125 3.757812 -9.03125 5.003906 -9.234375 Z M 5.003906 -9.574219" transform="translate(297.311 232.47)"/></g></g></g><g fill="#5D3A30"><g><g><path d="M 11.976562 -9.574219 L 11.417969 -9.574219 C 10.796875 -9.574219 10.308594 -9.382812 10.078125 -9.046875 C 9.847656 -9.382812 9.382812 -9.574219 8.734375 -9.574219 L 8.015625 -9.574219 L 8.015625 -9.234375 C 9.316406 -9.03125 9.738281 -8.855469 9.738281 -8.054688 L 9.738281 -2.265625 L 4.027344 -8.125 C 3.59375 -8.570312 3.09375 -9.074219 3.324219 -9.574219 L 2.617188 -9.574219 C 2.183594 -9.574219 1.9375 -9.382812 1.886719 -9.046875 C 1.601562 -9.382812 1.207031 -9.574219 0.71875 -9.574219 L 0.230469 -9.574219 L 0.230469 -9.234375 C 1.234375 -9.046875 1.585938 -8.71875 2.375 -7.867188 L 2.375 -1.640625 C 2.375 -0.730469 2.007812 -0.542969 0.554688 -0.339844 L 0.554688 0 L 1.382812 0 C 2.007812 0 2.453125 -0.164062 2.726562 -0.527344 C 2.957031 -0.191406 3.402344 0 4.070312 0 L 4.855469 0 L 4.855469 -0.339844 C 3.171875 -0.597656 3.078125 -0.894531 3.078125 -1.53125 L 3.078125 -7.1875 L 10.332031 0.148438 L 10.671875 0.148438 L 10.671875 -0.191406 C 10.402344 -0.8125 10.402344 -1.4375 10.402344 -2.074219 L 10.402344 -7.894531 C 10.402344 -8.734375 10.632812 -9.019531 11.976562 -9.234375 Z M 11.976562 -9.574219" transform="translate(302.64 232.47)"/></g></g></g><g fill="#5D3A30"><g><g><path d="M 9.425781 0.257812 L 9.425781 0.109375 C 9.425781 -0.40625 9.234375 -0.707031 8.894531 -0.757812 C 9.277344 -1.070312 9.425781 -1.492188 9.425781 -2.089844 L 9.425781 -2.65625 L 9.085938 -2.65625 C 8.285156 -0.730469 7.335938 -0.421875 5.898438 -0.421875 C 3.566406 -0.421875 2.386719 -2.632812 2.386719 -4.789062 C 2.386719 -6.945312 3.566406 -9.152344 5.898438 -9.152344 C 7.308594 -9.152344 8.285156 -8.84375 9.085938 -6.917969 L 9.425781 -6.917969 L 9.425781 -7.5 C 9.425781 -8.015625 9.316406 -8.449219 8.894531 -8.828125 C 9.207031 -8.855469 9.425781 -9.140625 9.425781 -9.683594 L 9.425781 -9.859375 L 9.085938 -9.859375 C 8.921875 -9.601562 8.773438 -9.519531 8.394531 -9.574219 C 7.757812 -9.667969 7.308594 -9.738281 6.429688 -9.738281 C 2.128906 -9.738281 0.730469 -7.433594 0.730469 -4.789062 C 0.730469 -1.871094 2.128906 0.164062 6.429688 0.164062 C 7.308594 0.164062 7.757812 0.09375 8.394531 0 C 8.789062 -0.0546875 8.921875 0.0273438 9.085938 0.257812 Z M 9.425781 0.257812" transform="translate(314.846 232.47)"/></g></g></g><g fill="#5D3A30"><g><g><path d="M 8.339844 0.257812 L 8.339844 0.109375 C 8.339844 -0.421875 8.109375 -0.71875 7.8125 -0.757812 C 8.164062 -1.070312 8.339844 -1.464844 8.339844 -2.15625 L 8.339844 -2.65625 L 8 -2.65625 C 7.417969 -0.730469 6.496094 -0.515625 5.34375 -0.515625 C 3.566406 -0.515625 3.335938 -1.140625 3.335938 -2.007812 L 3.335938 -4.746094 L 4.394531 -4.746094 C 5.464844 -4.746094 6.347656 -4.257812 6.484375 -3.199219 L 6.738281 -3.199219 L 6.738281 -3.660156 C 6.738281 -4.246094 6.550781 -4.761719 6.210938 -5.003906 C 6.550781 -5.234375 6.738281 -5.695312 6.738281 -6.347656 L 6.738281 -6.671875 L 6.441406 -6.671875 C 6.402344 -5.777344 5.453125 -5.261719 4.625 -5.261719 L 3.335938 -5.261719 L 3.335938 -7.824219 C 3.335938 -8.488281 3.457031 -9.085938 5.085938 -9.085938 C 6.496094 -9.085938 7.417969 -8.84375 8 -6.917969 L 8.339844 -6.917969 L 8.339844 -7.433594 C 8.339844 -8.109375 8.164062 -8.503906 7.8125 -8.828125 C 8.175781 -8.871094 8.339844 -9.234375 8.339844 -9.683594 L 8.339844 -9.859375 L 8 -9.859375 C 7.824219 -9.574219 7.648438 -9.574219 7.28125 -9.574219 L 4.800781 -9.574219 C 3.730469 -9.574219 3.121094 -9.453125 2.683594 -9.046875 C 2.453125 -9.382812 2.019531 -9.574219 1.34375 -9.574219 L 0.324219 -9.574219 L 0.324219 -9.234375 C 1.640625 -9.113281 1.925781 -8.679688 1.925781 -7.867188 L 1.925781 -1.707031 C 1.925781 -0.910156 1.683594 -0.460938 0.3125 -0.339844 L 0.3125 0 L 1.34375 0 C 2.019531 0 2.453125 -0.191406 2.683594 -0.527344 C 3.011719 -0.191406 3.527344 0 4.597656 0 L 7.28125 0 C 7.648438 0 7.824219 0 8 0.257812 Z M 8.339844 0.257812" transform="translate(325.004 232.47)"/></g></g></g><g fill="#5D3A30"><g><g><path d="M 1.53125 0 C 2.210938 0 2.644531 -0.191406 2.875 -0.527344 C 3.105469 -0.191406 3.59375 0 4.21875 0 L 5.113281 0 L 5.113281 -0.394531 C 4.175781 -0.527344 3.621094 -1.03125 3.621094 -1.683594 L 3.621094 -9.589844 L 3.171875 -9.589844 C 2.605469 -8.921875 1.777344 -8.53125 0.664062 -8.410156 L 0.664062 -8.070312 L 1.519531 -8.070312 C 1.953125 -8.070312 2.195312 -7.824219 2.195312 -7.390625 L 2.195312 -1.804688 C 2.195312 -1.070312 1.695312 -0.542969 0.664062 -0.40625 L 0.664062 0 Z M 1.53125 0" transform="translate(338.16 232.47)"/></g></g></g><g fill="#5D3A30"><g><g><path d="M 4.191406 -9.5625 C 2.277344 -9.5625 0.839844 -8.054688 0.839844 -6.035156 C 0.839844 -4.367188 2.046875 -3.121094 3.660156 -3.121094 C 4.421875 -3.121094 5.25 -3.402344 5.953125 -3.917969 C 5.480469 -1.886719 4.070312 -0.609375 1.777344 -0.136719 L 1.777344 0.136719 C 5.179688 0.0273438 7.648438 -2.304688 7.648438 -5.4375 C 7.648438 -7.824219 6.199219 -9.5625 4.191406 -9.5625 Z M 4.109375 -9.074219 C 5.371094 -9.074219 6.210938 -8.082031 6.210938 -6.605469 C 6.210938 -5.058594 5.300781 -3.851562 4.121094 -3.851562 C 2.96875 -3.851562 2.320312 -4.855469 2.320312 -6.589844 C 2.320312 -8.042969 3.066406 -9.074219 4.109375 -9.074219 Z M 4.109375 -9.074219" transform="translate(343.814 232.47)"/></g></g></g><g fill="#5D3A30"><g><g><path d="M 4.300781 0.136719 C 6.210938 0.136719 7.648438 -1.371094 7.648438 -3.390625 C 7.648438 -5.058594 6.441406 -6.304688 4.828125 -6.304688 C 4.070312 -6.304688 3.242188 -6.019531 2.535156 -5.507812 C 3.011719 -7.539062 4.421875 -8.816406 6.714844 -9.289062 L 6.714844 -9.5625 C 3.308594 -9.453125 0.839844 -7.121094 0.839844 -3.988281 C 0.839844 -1.601562 2.292969 0.136719 4.300781 0.136719 Z M 4.378906 -0.351562 C 3.121094 -0.351562 2.277344 -1.34375 2.277344 -2.820312 C 2.277344 -4.367188 3.1875 -5.574219 4.367188 -5.574219 C 5.519531 -5.574219 6.171875 -4.570312 6.171875 -2.835938 C 6.171875 -1.382812 5.425781 -0.351562 4.378906 -0.351562 Z M 4.378906 -0.351562" transform="translate(352.277 232.47)"/></g></g></g><g fill="#5D3A30"><g><g><path d="M 7.742188 0.269531 L 7.742188 0.0664062 C 7.742188 -0.433594 7.554688 -0.746094 7.214844 -0.785156 C 7.59375 -1.113281 7.742188 -1.519531 7.742188 -2.183594 L 7.742188 -2.753906 L 7.40625 -2.753906 C 6.984375 -1.261719 5.53125 -0.542969 2.957031 -0.542969 L 2.222656 -0.542969 C 6.226562 -3.972656 7.105469 -5.140625 7.105469 -6.957031 C 7.105469 -8.503906 5.953125 -9.5625 4.273438 -9.5625 C 3.023438 -9.5625 0.960938 -7.851562 0.960938 -6.863281 C 0.960938 -6.25 1.84375 -5.613281 2.726562 -5.316406 L 2.996094 -5.546875 C 2.46875 -6.144531 2.195312 -6.835938 2.195312 -7.433594 C 2.195312 -8.246094 2.710938 -8.894531 3.742188 -8.894531 C 5.207031 -8.894531 5.667969 -7.742188 5.667969 -6.835938 C 5.667969 -5.371094 4.609375 -4.109375 0.71875 -0.730469 L 0.71875 0 L 6.660156 0 C 7.148438 0 7.28125 0.0546875 7.40625 0.269531 Z M 7.742188 0.269531" transform="translate(360.74 232.47)"/></g></g></g></svg>