<svg xmlns="http://www.w3.org/2000/svg" width="375" viewBox="0 0 375 375" height="375" version="1.0"><path fill="#FFF" d="M-37.5 -37.5H412.5V412.5H-37.5z"/><path fill="#FFF" d="M-37.5 -37.5H412.5V412.5H-37.5z"/><path fill="#FFF" d="M-37.5 -37.5H412.5V412.5H-37.5z"/><path fill="#5D3A30" d="M 185.25 18.738281 C 166.523438 19.347656 147.910156 27.503906 132.273438 43.214844 L 129.445312 46.066406 L 125.265625 46.910156 C 96.34375 52.75 76.050781 84.675781 78.535156 107.207031 L 79.175781 112.964844 L 74.40625 116.925781 C 65.699219 124.140625 50.523438 153.328125 58.671875 178.78125 C 58.800781 179.171875 59.453125 179.109375 59.460938 178.699219 C 59.550781 170.152344 62.535156 152.085938 69.417969 146.257812 C 69.6875 146.03125 70.125 146.210938 70.082031 146.542969 C 67.417969 166.804688 73.25 186.222656 79.746094 195.496094 C 79.984375 195.847656 80.589844 195.601562 80.46875 195.203125 C 73.035156 170.539062 77.101562 141.566406 80.828125 131.507812 C 80.945312 131.261719 81.117188 131.0625 81.34375 130.914062 C 81.570312 130.761719 81.820312 130.679688 82.09375 130.667969 C 82.367188 130.65625 82.621094 130.714844 82.863281 130.84375 C 83.101562 130.972656 83.292969 131.15625 83.429688 131.390625 C 86.230469 136.878906 92.136719 138.546875 96.878906 131.953125 C 103.222656 123.132812 112.148438 116.300781 121.265625 110.015625 C 126.644531 106.308594 129.585938 100.464844 129.152344 94.4375 C 128.875 91.25 129.160156 88.113281 130.011719 85.027344 C 130.070312 84.882812 130.140625 84.75 130.234375 84.625 C 130.324219 84.5 130.429688 84.390625 130.546875 84.292969 C 130.667969 84.195312 130.796875 84.117188 130.9375 84.050781 C 131.074219 83.988281 131.222656 83.941406 131.371094 83.917969 C 131.523438 83.890625 131.675781 83.882812 131.828125 83.898438 C 131.984375 83.910156 132.132812 83.941406 132.277344 83.992188 C 132.421875 84.042969 132.558594 84.113281 132.683594 84.199219 C 132.8125 84.285156 132.925781 84.386719 133.027344 84.5 C 140.945312 94.027344 153.59375 92.847656 170.476562 91.753906 C 175.609375 91.417969 180.449219 91.230469 185.25 91.183594 C 190.054688 91.230469 194.898438 91.417969 200.027344 91.753906 C 216.910156 92.847656 229.558594 94.027344 237.476562 84.5 C 237.578125 84.386719 237.691406 84.285156 237.820312 84.199219 C 237.945312 84.113281 238.082031 84.042969 238.226562 83.992188 C 238.375 83.941406 238.523438 83.910156 238.675781 83.894531 C 238.828125 83.882812 238.980469 83.890625 239.132812 83.917969 C 239.285156 83.941406 239.429688 83.988281 239.570312 84.050781 C 239.710938 84.117188 239.839844 84.195312 239.960938 84.292969 C 240.078125 84.390625 240.183594 84.5 240.273438 84.625 C 240.367188 84.75 240.441406 84.882812 240.496094 85.027344 C 241.347656 88.113281 241.632812 91.25 241.355469 94.4375 C 240.921875 100.464844 243.863281 106.308594 249.246094 110.015625 C 258.359375 116.300781 267.285156 123.132812 273.628906 131.953125 C 278.363281 138.546875 284.277344 136.878906 287.074219 131.390625 C 287.214844 131.15625 287.402344 130.976562 287.644531 130.84375 C 287.882812 130.714844 288.140625 130.65625 288.410156 130.667969 C 288.683594 130.679688 288.933594 130.761719 289.160156 130.914062 C 289.386719 131.0625 289.558594 131.261719 289.675781 131.507812 C 293.40625 141.566406 297.472656 170.539062 290.035156 195.203125 C 289.917969 195.601562 290.519531 195.84375 290.757812 195.496094 C 297.253906 186.222656 303.085938 166.804688 300.421875 146.542969 C 300.378906 146.210938 300.816406 146.03125 301.085938 146.257812 C 307.964844 152.085938 310.953125 170.152344 311.039062 178.699219 C 311.046875 179.109375 311.707031 179.171875 311.832031 178.78125 C 319.980469 153.328125 304.796875 124.140625 296.101562 116.925781 L 291.328125 112.964844 L 291.964844 107.207031 C 294.449219 84.675781 274.15625 52.75 245.238281 46.910156 L 241.058594 46.066406 L 238.226562 43.214844 C 222.59375 27.5 203.976562 19.347656 185.25 18.738281 Z M 185.25 100.753906 C 190.460938 100.832031 195.648438 101.210938 200.816406 101.886719 C 255.820312 109.136719 281.566406 149.597656 283.640625 179.699219 C 283.667969 180.144531 282.941406 180.238281 282.8125 179.808594 C 275.960938 156.957031 260.195312 140.546875 249.023438 134.136719 C 248.617188 133.898438 248.171875 134.363281 248.5 134.679688 C 270.636719 156.683594 278.214844 187.027344 277.0625 200.058594 C 277.035156 200.230469 276.949219 200.363281 276.804688 200.460938 C 276.660156 200.554688 276.503906 200.585938 276.335938 200.542969 L 275.695312 199.390625 C 273.777344 190.773438 267.140625 173.8125 248.28125 161.03125 C 232.371094 150.253906 208.925781 144.699219 185.25 144.371094 C 161.574219 144.699219 138.121094 150.253906 122.226562 161.03125 C 103.363281 173.808594 96.726562 190.777344 94.808594 199.386719 L 94.164062 200.542969 C 93.996094 200.582031 93.839844 200.554688 93.695312 200.460938 C 93.550781 200.363281 93.464844 200.226562 93.4375 200.054688 C 92.289062 187.023438 99.859375 156.683594 122 134.679688 C 122.320312 134.359375 121.882812 133.898438 121.476562 134.132812 C 110.304688 140.546875 94.539062 156.957031 87.683594 179.808594 C 87.554688 180.234375 86.828125 180.144531 86.859375 179.699219 C 88.929688 149.59375 114.679688 109.136719 169.683594 101.886719 C 174.851562 101.207031 180.039062 100.832031 185.25 100.753906 Z M 185.25 152.867188 C 204.699219 153.183594 222.886719 155.839844 237.535156 169.410156 C 245.726562 177.003906 251.945312 186.964844 255.566406 199.585938 C 265.050781 232.625 261.800781 279.371094 248.804688 303.648438 C 238.59375 322.71875 221.195312 343.59375 197.796875 355.648438 C 193.707031 356.902344 189.527344 357.53125 185.25 357.53125 C 180.976562 357.53125 176.792969 356.902344 172.707031 355.648438 C 149.304688 343.59375 131.910156 322.71875 121.699219 303.648438 C 108.699219 279.371094 105.453125 232.621094 114.9375 199.585938 C 118.5625 186.964844 124.777344 177.003906 132.96875 169.410156 C 147.613281 155.839844 165.808594 153.183594 185.25 152.867188 Z M 185.25 367.375 C 178.640625 367.375 172.03125 366.125 166.789062 363.636719 C 146.4375 353.992188 125.339844 332.796875 114.035156 314.152344 C 114.710938 324.285156 117.128906 332.394531 120.199219 342.347656 C 120.289062 342.621094 120.214844 342.84375 119.980469 343.011719 C 119.75 343.183594 119.515625 343.183594 119.28125 343.019531 C 113.085938 338.449219 103.640625 318.542969 98.773438 290.527344 C 98.746094 290.378906 98.675781 290.257812 98.558594 290.160156 C 98.441406 290.066406 98.304688 290.023438 98.15625 290.03125 C 98.007812 290.039062 97.875 290.09375 97.769531 290.199219 C 97.660156 290.304688 97.601562 290.429688 97.589844 290.582031 C 95.097656 327.253906 112.539062 355.84375 128.144531 366.863281 C 128.257812 366.945312 128.332031 367.050781 128.367188 367.183594 C 128.40625 367.3125 128.398438 367.445312 128.347656 367.570312 C 128.296875 367.699219 128.210938 367.796875 128.09375 367.863281 C 127.972656 367.933594 127.84375 367.957031 127.710938 367.933594 C 101.988281 364.121094 72.320312 323.605469 69.535156 244.625 C 50.847656 229.335938 43.53125 195.714844 46.976562 185.046875 C 35.269531 154.644531 52.828125 118.714844 65.320312 108.347656 C 62.199219 80.015625 86.398438 42.707031 122.316406 35.445312 C 140.515625 17.144531 162.816406 7.703125 185.25 7.113281 C 207.683594 7.703125 229.984375 17.144531 248.191406 35.445312 C 284.109375 42.707031 308.308594 80.019531 305.179688 108.347656 C 317.675781 118.714844 335.246094 154.644531 323.53125 185.046875 C 326.976562 195.710938 319.65625 229.335938 300.96875 244.625 C 298.1875 323.605469 268.519531 364.121094 242.796875 367.9375 C 242.660156 367.957031 242.53125 367.933594 242.414062 367.863281 C 242.292969 367.796875 242.207031 367.699219 242.15625 367.570312 C 242.105469 367.445312 242.097656 367.316406 242.136719 367.183594 C 242.175781 367.050781 242.25 366.945312 242.363281 366.863281 C 257.964844 355.84375 275.410156 327.253906 272.917969 290.582031 C 272.90625 290.433594 272.84375 290.304688 272.738281 290.199219 C 272.628906 290.09375 272.5 290.039062 272.347656 290.03125 C 272.199219 290.023438 272.0625 290.066406 271.945312 290.164062 C 271.828125 290.257812 271.757812 290.378906 271.730469 290.527344 C 266.859375 318.546875 257.421875 338.449219 251.222656 343.019531 C 250.988281 343.183594 250.753906 343.183594 250.523438 343.011719 C 250.292969 342.84375 250.21875 342.621094 250.308594 342.347656 C 253.375 332.394531 255.796875 324.285156 256.472656 314.152344 C 245.167969 332.796875 224.066406 353.992188 203.710938 363.636719 C 198.472656 366.128906 191.863281 367.375 185.25 367.375 Z M 185.25 315.296875 C 188.910156 315.011719 192.425781 314.132812 195.789062 312.660156 C 197.125 312.875 198.65625 313.207031 199.925781 313.40625 C 197.453125 314.902344 194.867188 316.15625 192.164062 317.167969 C 192.046875 317.214844 192.003906 317.296875 192.035156 317.421875 C 192.066406 317.542969 192.144531 317.597656 192.269531 317.578125 C 203.121094 316.179688 212.492188 308.339844 212.394531 304.910156 C 211.804688 304.117188 210.230469 305.632812 207.417969 307.976562 C 204.410156 307.359375 193.6875 305.222656 190.785156 305.757812 L 185.734375 308.277344 C 185.410156 308.4375 185.082031 308.4375 184.753906 308.277344 L 179.710938 305.757812 C 176.804688 305.222656 166.082031 307.363281 163.078125 307.976562 C 160.265625 305.632812 158.691406 304.117188 158.097656 304.910156 C 158.003906 308.335938 167.375 316.179688 178.230469 317.578125 C 178.351562 317.59375 178.429688 317.539062 178.460938 317.417969 C 178.492188 317.300781 178.449219 317.214844 178.335938 317.167969 C 175.632812 316.15625 173.042969 314.902344 170.574219 313.40625 C 171.839844 313.207031 173.375 312.875 174.710938 312.660156 C 178.074219 314.132812 181.589844 315.011719 185.25 315.296875 Z M 185.25 293.164062 C 181.820312 293.164062 178.613281 288.808594 176.550781 288.453125 C 176.203125 288.410156 175.859375 288.4375 175.523438 288.535156 C 175.1875 288.632812 174.886719 288.792969 174.613281 289.015625 C 174.34375 289.238281 174.128906 289.503906 173.96875 289.816406 C 173.804688 290.128906 173.714844 290.457031 173.6875 290.808594 C 173.6875 293.628906 177.007812 296.160156 180.089844 297.90625 C 180.878906 298.351562 181.707031 298.691406 182.582031 298.925781 C 183.457031 299.15625 184.347656 299.273438 185.25 299.273438 C 186.15625 299.273438 187.042969 299.15625 187.917969 298.925781 C 188.792969 298.691406 189.625 298.351562 190.410156 297.90625 C 193.492188 296.160156 196.8125 293.628906 196.8125 290.808594 C 196.785156 290.457031 196.695312 290.128906 196.53125 289.816406 C 196.371094 289.503906 196.15625 289.238281 195.886719 289.015625 C 195.613281 288.792969 195.3125 288.632812 194.972656 288.535156 C 194.636719 288.4375 194.296875 288.410156 193.949219 288.453125 C 191.890625 288.808594 188.679688 293.164062 185.25 293.164062 Z M 185.25 328.722656 C 180.863281 328.632812 176.5625 327.984375 172.34375 326.78125 C 172.167969 326.726562 172.015625 326.769531 171.890625 326.902344 C 171.765625 327.039062 171.738281 327.191406 171.804688 327.363281 C 172.078125 328.027344 172.394531 328.664062 172.761719 329.28125 C 173.128906 329.894531 173.539062 330.480469 173.996094 331.035156 C 174.449219 331.589844 174.941406 332.109375 175.46875 332.589844 C 176 333.074219 176.5625 333.511719 177.15625 333.914062 C 177.753906 334.3125 178.375 334.664062 179.023438 334.972656 C 179.667969 335.277344 180.335938 335.535156 181.023438 335.746094 C 181.707031 335.953125 182.402344 336.109375 183.113281 336.214844 C 183.820312 336.320312 184.535156 336.375 185.25 336.375 C 185.96875 336.375 186.679688 336.320312 187.386719 336.214844 C 188.097656 336.109375 188.792969 335.953125 189.480469 335.746094 C 190.164062 335.535156 190.832031 335.277344 191.480469 334.972656 C 192.128906 334.664062 192.75 334.3125 193.34375 333.914062 C 193.9375 333.511719 194.5 333.074219 195.03125 332.589844 C 195.5625 332.109375 196.054688 331.589844 196.507812 331.035156 C 196.960938 330.480469 197.371094 329.894531 197.738281 329.28125 C 198.105469 328.664062 198.425781 328.027344 198.699219 327.363281 C 198.765625 327.191406 198.738281 327.039062 198.609375 326.902344 C 198.484375 326.765625 198.335938 326.726562 198.160156 326.78125 C 193.941406 327.984375 189.636719 328.632812 185.25 328.722656 Z M 242.769531 217.121094 C 230.3125 214.667969 212.953125 222.285156 208.308594 220.007812 C 204.777344 223.765625 204.515625 229.105469 204.5 230.160156 C 204.496094 230.289062 204.5625 230.359375 204.691406 230.363281 C 208.710938 230.503906 212.542969 229.714844 216.179688 228.003906 C 231.023438 220.976562 239.574219 219.761719 245.292969 220.78125 C 247.042969 221.089844 248.703125 221.648438 250.285156 222.457031 C 251.535156 223.089844 251.496094 222.113281 250.914062 221.394531 C 248.925781 218.9375 245.828125 217.722656 242.769531 217.121094 Z M 218.261719 256.699219 C 222.207031 257.347656 226.148438 257.347656 230.089844 256.699219 C 230.472656 256.335938 230.820312 255.941406 231.128906 255.515625 C 231.441406 255.089844 231.710938 254.640625 231.941406 254.164062 C 232.167969 253.691406 232.351562 253.199219 232.488281 252.6875 C 232.625 252.179688 232.714844 251.664062 232.757812 251.136719 C 232.800781 250.613281 232.792969 250.085938 232.738281 249.5625 C 232.683594 249.039062 232.582031 248.523438 232.433594 248.015625 C 232.28125 247.511719 232.089844 247.023438 231.847656 246.554688 C 231.609375 246.085938 231.328125 245.640625 231.007812 245.222656 C 234.214844 246.050781 237.101562 247.511719 239.671875 249.601562 C 239.546875 250.832031 237.707031 253.90625 237.707031 253.90625 C 238.648438 253.5625 239.535156 253.105469 240.363281 252.542969 C 241.191406 251.976562 241.9375 251.316406 242.605469 250.566406 C 243.269531 249.816406 243.832031 248.992188 244.292969 248.101562 C 244.753906 247.210938 245.101562 246.277344 245.328125 245.300781 C 245.328125 245.300781 240.847656 234.609375 229.664062 233.671875 C 229.542969 233.664062 229.472656 233.71875 229.445312 233.835938 C 229.421875 233.953125 229.464844 234.03125 229.578125 234.074219 C 234.757812 236.332031 237.691406 238.933594 239.496094 241.449219 C 220.289062 231.496094 203.027344 248.253906 203.027344 248.253906 C 204.789062 250.449219 206.996094 252.015625 209.652344 252.953125 C 209.738281 252.984375 209.816406 252.964844 209.878906 252.898438 C 209.941406 252.828125 209.953125 252.753906 209.917969 252.667969 C 209.507812 251.679688 209.21875 250.660156 209.046875 249.601562 C 211.519531 248.003906 214.148438 246.738281 216.9375 245.800781 C 216.667969 246.21875 216.4375 246.65625 216.242188 247.117188 C 216.050781 247.574219 215.898438 248.046875 215.785156 248.53125 C 215.675781 249.015625 215.605469 249.507812 215.578125 250.003906 C 215.554688 250.5 215.570312 250.996094 215.632812 251.492188 C 215.691406 251.984375 215.792969 252.46875 215.9375 252.945312 C 216.082031 253.421875 216.265625 253.882812 216.492188 254.324219 C 216.714844 254.769531 216.976562 255.191406 217.273438 255.589844 C 217.570312 255.988281 217.902344 256.359375 218.261719 256.699219 Z M 127.730469 217.121094 C 124.675781 217.722656 121.578125 218.9375 119.585938 221.394531 C 119.003906 222.117188 118.964844 223.089844 120.214844 222.453125 C 121.796875 221.644531 123.460938 221.085938 125.210938 220.777344 C 130.921875 219.761719 139.476562 220.972656 154.316406 228.003906 C 157.957031 229.714844 161.789062 230.5 165.808594 230.359375 C 165.9375 230.355469 166.003906 230.289062 166 230.15625 C 165.984375 229.105469 165.71875 223.761719 162.191406 220.007812 C 157.546875 222.285156 140.1875 214.664062 127.730469 217.121094 Z M 152.238281 256.695312 C 152.597656 256.355469 152.929688 255.984375 153.226562 255.585938 C 153.523438 255.1875 153.785156 254.765625 154.007812 254.320312 C 154.234375 253.878906 154.417969 253.417969 154.5625 252.941406 C 154.707031 252.464844 154.808594 251.980469 154.871094 251.488281 C 154.929688 250.992188 154.945312 250.496094 154.921875 250 C 154.894531 249.503906 154.828125 249.011719 154.714844 248.527344 C 154.605469 248.042969 154.453125 247.570312 154.257812 247.113281 C 154.066406 246.652344 153.832031 246.214844 153.5625 245.796875 C 156.351562 246.734375 158.980469 248 161.449219 249.597656 C 161.28125 250.652344 160.992188 251.675781 160.582031 252.664062 C 160.546875 252.75 160.558594 252.828125 160.625 252.894531 C 160.6875 252.964844 160.761719 252.980469 160.851562 252.949219 C 163.507812 252.011719 165.714844 250.445312 167.476562 248.25 C 167.476562 248.25 150.214844 231.492188 131 241.445312 C 132.804688 238.933594 135.742188 236.332031 140.917969 234.070312 C 141.027344 234.027344 141.074219 233.949219 141.046875 233.832031 C 141.023438 233.714844 140.949219 233.660156 140.832031 233.667969 C 129.648438 234.601562 125.167969 245.292969 125.167969 245.292969 C 125.398438 246.273438 125.742188 247.207031 126.203125 248.097656 C 126.664062 248.988281 127.226562 249.8125 127.894531 250.5625 C 128.558594 251.316406 129.304688 251.972656 130.132812 252.539062 C 130.964844 253.105469 131.851562 253.558594 132.792969 253.902344 C 132.792969 253.902344 130.949219 250.828125 130.828125 249.597656 C 133.398438 247.503906 136.285156 246.046875 139.492188 245.21875 C 139.171875 245.636719 138.890625 246.082031 138.652344 246.550781 C 138.410156 247.019531 138.214844 247.507812 138.066406 248.011719 C 137.917969 248.519531 137.8125 249.03125 137.757812 249.558594 C 137.703125 250.082031 137.699219 250.605469 137.738281 251.132812 C 137.78125 251.65625 137.871094 252.175781 138.007812 252.683594 C 138.144531 253.195312 138.328125 253.6875 138.554688 254.160156 C 138.785156 254.636719 139.054688 255.085938 139.363281 255.511719 C 139.675781 255.9375 140.023438 256.332031 140.40625 256.695312 C 144.347656 257.34375 148.292969 257.34375 152.234375 256.695312 Z M 152.238281 256.695312" fill-rule="evenodd"/></svg>